<svg width="160" height="160" viewBox="0 0 160 160" fill="none" xmlns="http://www.w3.org/2000/svg">
<path d="M112.909 9.63049H35.8198C31.698 9.63049 28.3566 12.9767 28.3566 17.1044V145.024C28.3566 149.152 31.698 152.498 35.8198 152.498H112.909C117.031 152.498 120.372 149.152 120.372 145.024V17.1044C120.372 12.9767 117.031 9.63049 112.909 9.63049Z" fill="#FCA311"/>
<path d="M112.901 153.3H35.8195C33.6365 153.298 31.5435 152.429 29.9999 150.883C28.4563 149.337 27.5882 147.241 27.5861 145.055V17.1044C27.5882 14.9183 28.4563 12.8223 29.9999 11.2765C31.5435 9.73064 33.6365 8.8613 35.8195 8.85925H112.901C115.085 8.85925 117.18 9.72769 118.726 11.2737C120.271 12.8198 121.14 14.917 121.142 17.1044V145.017C121.146 146.103 120.936 147.18 120.524 148.184C120.111 149.189 119.505 150.103 118.739 150.872C117.974 151.642 117.064 152.253 116.062 152.669C115.06 153.086 113.986 153.3 112.901 153.3ZM35.8195 10.4019C34.0451 10.4039 32.3439 11.1107 31.0891 12.3672C29.8344 13.6238 29.1286 15.3274 29.1265 17.1044V145.017C29.1286 146.794 29.8344 148.497 31.0891 149.754C32.3439 151.01 34.0451 151.717 35.8195 151.719H112.901C114.677 151.719 116.38 151.013 117.636 149.757C118.893 148.5 119.6 146.795 119.602 145.017V17.1044C119.6 15.3261 118.893 13.6213 117.636 12.3645C116.38 11.1078 114.677 10.4019 112.901 10.4019H35.8195Z" fill="#14213D"/>
<path d="M112.092 24.0538H36.6361C34.4795 24.0538 32.7312 25.8046 32.7312 27.9643V131.874C32.7312 134.033 34.4795 135.784 36.6361 135.784H112.092C114.249 135.784 115.997 134.033 115.997 131.874V27.9643C115.997 25.8046 114.249 24.0538 112.092 24.0538Z" fill="white"/>
<path d="M112.131 136.548H36.6514C35.4128 136.548 34.2249 136.056 33.3484 135.179C32.4718 134.303 31.9784 133.114 31.9763 131.874V27.9644C31.9763 26.7227 32.4689 25.5319 33.3456 24.6539C34.2224 23.7759 35.4115 23.2826 36.6514 23.2826H112.131C113.361 23.2988 114.535 23.799 115.4 24.675C116.264 25.551 116.75 26.7326 116.752 27.9644V131.874C116.748 133.104 116.261 134.284 115.397 135.158C114.532 136.033 113.359 136.532 112.131 136.548ZM36.6514 24.8252C35.82 24.8252 35.0227 25.1559 34.4348 25.7446C33.847 26.3334 33.5167 27.1318 33.5167 27.9644V131.874C33.5188 132.705 33.8499 133.502 34.4376 134.089C35.0252 134.676 35.8214 135.005 36.6514 135.005H112.131C112.961 135.005 113.757 134.676 114.345 134.089C114.932 133.502 115.263 132.705 115.265 131.874V27.9644C115.265 27.1318 114.935 26.3334 114.347 25.7446C113.759 25.1559 112.962 24.8252 112.131 24.8252H36.6514Z" fill="#14213D"/>
<path d="M62.4916 18.7858C63.1552 18.7858 63.6931 18.2471 63.6931 17.5826C63.6931 16.9181 63.1552 16.3794 62.4916 16.3794C61.8281 16.3794 61.2901 16.9181 61.2901 17.5826C61.2901 18.2471 61.8281 18.7858 62.4916 18.7858Z" fill="#14213D"/>
<path d="M87.438 18.3234H68.2293C68.025 18.3234 67.8291 18.2421 67.6847 18.0975C67.5403 17.9528 67.4591 17.7566 67.4591 17.552C67.4591 17.3474 67.5403 17.1511 67.6847 17.0065C67.8291 16.8618 68.025 16.7805 68.2293 16.7805H87.438C87.6423 16.7805 87.8382 16.8618 87.9826 17.0065C88.1271 17.1511 88.2082 17.3474 88.2082 17.552C88.2082 17.7566 88.1271 17.9528 87.9826 18.0975C87.8382 18.2421 87.6423 18.3234 87.438 18.3234Z" fill="#14213D"/>
<path d="M74.3601 148.75C77.1547 148.75 79.4203 146.481 79.4203 143.682C79.4203 140.884 77.1547 138.615 74.3601 138.615C71.5654 138.615 69.2999 140.884 69.2999 143.682C69.2999 146.481 71.5654 148.75 74.3601 148.75Z" fill="#14213D"/>
<path d="M45.7321 107.547H102.996V70.864L74.3603 52.2834L45.7321 70.864V107.547Z" fill="#FCA311"/>
<path d="M102.996 108.318H45.732C45.5278 108.318 45.3318 108.237 45.1874 108.092C45.043 107.948 44.9618 107.752 44.9618 107.547V70.864C44.962 70.7349 44.9946 70.608 45.0565 70.4948C45.1184 70.3816 45.2077 70.2858 45.3161 70.2161L73.9444 51.6355C74.0693 51.5542 74.2151 51.5109 74.3641 51.5109C74.5131 51.5109 74.6589 51.5542 74.7839 51.6355L103.412 70.2161C103.521 70.2858 103.61 70.3816 103.672 70.4948C103.734 70.608 103.766 70.7349 103.766 70.864V107.547C103.766 107.752 103.685 107.948 103.541 108.092C103.396 108.237 103.2 108.318 102.996 108.318ZM46.5022 106.776H102.226V71.2959L74.3911 53.2012L46.533 71.2882L46.5022 106.776Z" fill="#14213D"/>
<path d="M98.7294 61.8397H49.999V105.14H98.7294V61.8397Z" fill="white"/>
<path d="M98.7293 105.912H49.9989C49.7946 105.912 49.5987 105.831 49.4543 105.686C49.3098 105.541 49.2287 105.345 49.2287 105.141V61.8398C49.2287 61.6352 49.3098 61.439 49.4543 61.2944C49.5987 61.1497 49.7946 61.0685 49.9989 61.0685H98.7293C98.9335 61.0685 99.1294 61.1497 99.2739 61.2944C99.4183 61.439 99.4995 61.6352 99.4995 61.8398V105.141C99.4995 105.345 99.4183 105.541 99.2739 105.686C99.1294 105.831 98.9335 105.912 98.7293 105.912ZM50.7691 104.369H97.9591V62.6111H50.7691V104.369Z" fill="#14213D"/>
<path d="M91.4277 70.9106H57.3003C57.096 70.9106 56.9001 70.8293 56.7557 70.6846C56.6112 70.5399 56.5301 70.3437 56.5301 70.1391C56.5301 69.9345 56.6112 69.7383 56.7557 69.5936C56.9001 69.449 57.096 69.3677 57.3003 69.3677H91.4277C91.632 69.3677 91.8279 69.449 91.9723 69.5936C92.1168 69.7383 92.1979 69.9345 92.1979 70.1391C92.1979 70.3437 92.1168 70.5399 91.9723 70.6846C91.8279 70.8293 91.632 70.9106 91.4277 70.9106Z" fill="#96928E"/>
<path d="M91.4277 76.9961H57.3003C57.096 76.9961 56.9001 76.9148 56.7557 76.7702C56.6112 76.6255 56.5301 76.4293 56.5301 76.2247C56.5301 76.0201 56.6112 75.8239 56.7557 75.6792C56.9001 75.5345 57.096 75.4532 57.3003 75.4532H91.4277C91.632 75.4532 91.8279 75.5345 91.9723 75.6792C92.1168 75.8239 92.1979 76.0201 92.1979 76.2247C92.1979 76.4293 92.1168 76.6255 91.9723 76.7702C91.8279 76.9148 91.632 76.9961 91.4277 76.9961Z" fill="#96928E"/>
<path d="M91.4277 83.1125H57.3003C57.096 83.1125 56.9001 83.0312 56.7557 82.8865C56.6112 82.7419 56.5301 82.5456 56.5301 82.341C56.5301 82.1364 56.6112 81.9402 56.7557 81.7955C56.9001 81.6509 57.096 81.5696 57.3003 81.5696H91.4277C91.632 81.5696 91.8279 81.6509 91.9723 81.7955C92.1168 81.9402 92.1979 82.1364 92.1979 82.341C92.1979 82.5456 92.1168 82.7419 91.9723 82.8865C91.8279 83.0312 91.632 83.1125 91.4277 83.1125Z" fill="#96928E"/>
<path d="M91.4277 89.1595H57.3003C57.096 89.1595 56.9001 89.0782 56.7557 88.9335C56.6112 88.7888 56.5301 88.5926 56.5301 88.388C56.5301 88.1834 56.6112 87.9872 56.7557 87.8425C56.9001 87.6979 57.096 87.6166 57.3003 87.6166H91.4277C91.632 87.6166 91.8279 87.6979 91.9723 87.8425C92.1168 87.9872 92.1979 88.1834 92.1979 88.388C92.1979 88.5926 92.1168 88.7888 91.9723 88.9335C91.8279 89.0782 91.632 89.1595 91.4277 89.1595Z" fill="#96928E"/>
<path d="M102.996 107.547H45.7321V70.864L102.996 107.547Z" fill="#FCA311"/>
<path d="M102.996 108.318H45.732C45.5278 108.318 45.3318 108.237 45.1874 108.092C45.043 107.948 44.9618 107.752 44.9618 107.547V70.864C44.9621 70.7257 44.9994 70.5899 45.0701 70.471C45.1407 70.3521 45.2419 70.2544 45.3632 70.1882C45.4845 70.1219 45.6213 70.0896 45.7594 70.0945C45.8975 70.0994 46.0317 70.1414 46.1479 70.2161L103.412 106.899C103.552 106.989 103.658 107.122 103.716 107.278C103.774 107.434 103.78 107.605 103.733 107.764C103.686 107.924 103.589 108.064 103.457 108.164C103.324 108.264 103.162 108.318 102.996 108.318ZM46.5022 106.776H100.362L46.5022 72.314V106.776Z" fill="#14213D"/>
<path d="M45.7321 107.547H102.996V70.864L45.7321 107.547Z" fill="#FCA311"/>
<path d="M102.996 108.318H45.7319C45.5659 108.318 45.4044 108.264 45.2715 108.164C45.1387 108.064 45.0417 107.924 44.9949 107.764C44.9481 107.605 44.9541 107.434 45.012 107.278C45.0699 107.122 45.1765 106.989 45.316 106.899L102.58 70.2161C102.696 70.1414 102.831 70.0994 102.969 70.0945C103.107 70.0896 103.244 70.1219 103.365 70.1882C103.486 70.2544 103.587 70.3521 103.658 70.471C103.729 70.5899 103.766 70.7257 103.766 70.864V107.547C103.766 107.752 103.685 107.948 103.541 108.092C103.396 108.237 103.2 108.318 102.996 108.318ZM48.366 106.776H102.226V72.314L48.366 106.776Z" fill="#14213D"/>
<path d="M102.996 108.318C102.849 108.32 102.705 108.28 102.58 108.203L73.9442 89.8611C73.7716 89.7507 73.6498 89.5761 73.6058 89.3757C73.5617 89.1754 73.599 88.9657 73.7093 88.7929C73.8196 88.62 73.9939 88.4981 74.194 88.454C74.394 88.4099 74.6034 88.4472 74.776 88.5576L103.412 106.899C103.583 107.01 103.704 107.184 103.747 107.384C103.79 107.583 103.753 107.792 103.643 107.964C103.573 108.072 103.478 108.162 103.365 108.224C103.252 108.286 103.125 108.318 102.996 108.318Z" fill="#14213D"/>
<path d="M113.409 7.5636C109.813 7.561 106.301 8.65178 103.337 10.6917C100.373 12.7315 98.0974 15.6244 96.811 18.9876C95.5246 22.3508 95.288 26.0258 96.1325 29.5266C96.9771 33.0273 98.863 36.1889 101.541 38.593V47.9566L106.817 41.8787C109.248 42.8526 111.864 43.2763 114.478 43.1195C117.091 42.9628 119.638 42.2295 121.936 40.9722C124.234 39.7148 126.225 37.9644 127.769 35.8462C129.312 33.728 130.369 31.2944 130.864 28.7194C131.359 26.1445 131.279 23.4918 130.631 20.9513C129.982 18.4108 128.781 16.0452 127.113 14.0238C125.446 12.0023 123.352 10.375 120.983 9.25816C118.614 8.14136 116.028 7.56271 113.409 7.5636Z" fill="#14213D"/>
<path d="M101.54 48.7277C101.448 48.7285 101.356 48.7102 101.271 48.6737C101.125 48.619 100.999 48.5211 100.909 48.393C100.82 48.2649 100.771 48.1127 100.77 47.9564V38.9322C97.3972 35.7872 95.3115 31.4993 94.9178 26.9009C94.5241 22.3025 95.8505 17.7216 98.6397 14.0475C101.429 10.3733 105.482 7.86807 110.011 7.01796C114.541 6.16785 119.225 7.03355 123.153 9.44701C127.082 11.8605 129.974 15.6495 131.27 20.0787C132.566 24.5078 132.172 29.261 130.165 33.4157C128.158 37.5704 124.681 40.8301 120.409 42.5621C116.137 44.2942 111.375 44.3749 107.047 42.7887L102.118 48.4577C102.047 48.5414 101.958 48.6088 101.858 48.6554C101.759 48.7019 101.65 48.7266 101.54 48.7277ZM113.409 8.33475C109.97 8.33581 106.612 9.38156 103.779 11.3339C100.946 13.2862 98.7703 16.0532 97.5403 19.2695C96.3104 22.4859 96.0836 26.0001 96.8899 29.3482C97.6962 32.6963 99.4977 35.7208 102.056 38.0221C102.136 38.0942 102.2 38.1822 102.244 38.2805C102.288 38.3788 102.31 38.4852 102.311 38.5928V45.8893L106.239 41.3695C106.343 41.2499 106.483 41.1657 106.637 41.1285C106.791 41.0912 106.954 41.1026 107.101 41.1612C109.427 42.0934 111.93 42.4992 114.431 42.3496C116.931 42.2 119.368 41.4988 121.566 40.296C123.765 39.0933 125.671 37.4188 127.148 35.3923C128.624 33.3659 129.636 31.0376 130.109 28.574C130.582 26.1105 130.506 23.5726 129.886 21.142C129.266 18.7114 128.116 16.4482 126.521 14.5143C124.925 12.5803 122.922 11.0235 120.655 9.95523C118.389 8.88694 115.914 8.33358 113.409 8.33475Z" fill="#14213D"/>
<path d="M112.639 22.1795L110.213 24.316L108.765 22.6423L112.708 19.3103H115.096V31.4351H112.639V22.1795Z" fill="white"/>
<path d="M60.1192 50.8951C59.9264 50.8959 59.7403 50.8242 59.5977 50.6942C59.4551 50.5643 59.3663 50.3855 59.349 50.1932L58.6943 42.6653C58.6773 42.4618 58.7414 42.2599 58.8728 42.1037C59.0042 41.9476 59.1921 41.85 59.3952 41.8323C59.5984 41.8152 59.8001 41.8795 59.956 42.0111C60.1119 42.1426 60.2094 42.3308 60.227 42.5342L60.8817 50.0621C60.8988 50.2655 60.8346 50.4675 60.7032 50.6236C60.5718 50.7798 60.3839 50.8774 60.1808 50.8951H60.1192Z" fill="#96928E"/>
<path d="M53.1799 53.0316C53.049 53.0318 52.9202 52.9987 52.8057 52.9353C52.6911 52.8718 52.5946 52.7802 52.5252 52.6691L47.4342 44.5473C47.3808 44.4608 47.345 44.3646 47.3288 44.2641C47.3127 44.1637 47.3165 44.0611 47.3402 43.9621C47.3638 43.8632 47.4067 43.7699 47.4665 43.6877C47.5262 43.6054 47.6017 43.5358 47.6884 43.4829C47.8622 43.3773 48.0707 43.3447 48.2684 43.3924C48.466 43.4401 48.6368 43.5641 48.7436 43.7374L53.8038 51.8978C53.8575 51.9838 53.8938 52.0796 53.9105 52.1798C53.9273 52.2799 53.9241 52.3823 53.9012 52.4812C53.8783 52.5801 53.8361 52.6735 53.7771 52.756C53.7181 52.8385 53.6434 52.9086 53.5573 52.9622C53.4394 53.0168 53.3095 53.0407 53.1799 53.0316Z" fill="#96928E"/>
<path d="M47.7037 57.7364C47.5655 57.7364 47.4298 57.6991 47.3109 57.6284L41.2186 53.9725C41.0644 53.8602 40.9573 53.6946 40.918 53.5077C40.8787 53.3209 40.9099 53.1261 41.0058 52.961C41.1016 52.796 41.2552 52.6723 41.4368 52.6141C41.6184 52.5559 41.8151 52.5672 41.9888 52.6458L48.0811 56.3018C48.2268 56.3884 48.3399 56.5206 48.403 56.6781C48.466 56.8355 48.4755 57.0094 48.4299 57.1728C48.3843 57.3362 48.2861 57.48 48.1507 57.5819C48.0152 57.6838 47.85 57.7381 47.6806 57.7364H47.7037Z" fill="#96928E"/>
</svg>
