<svg width="160" height="160" viewBox="0 0 160 160" fill="none" xmlns="http://www.w3.org/2000/svg">
<path d="M137.418 23.0525H86.5808C80.9503 23.0525 76.3859 27.6132 76.3859 33.2392V126.726C76.3859 132.352 80.9503 136.913 86.5808 136.913H137.418C143.048 136.913 147.613 132.352 147.613 126.726V33.2392C147.613 27.6132 143.048 23.0525 137.418 23.0525Z" fill="#FCA311"/>
<path d="M137.418 137.6H86.581C85.1501 137.602 83.7329 137.322 82.4102 136.776C81.0875 136.231 79.8853 135.43 78.8723 134.421C77.8592 133.411 77.0551 132.212 76.5058 130.892C75.9566 129.571 75.6729 128.156 75.6711 126.726V33.2736C75.6748 30.3909 76.8225 27.6272 78.8625 25.5888C80.9026 23.5504 83.6684 22.4036 86.5535 22.4H137.39C138.821 22.3982 140.239 22.678 141.561 23.2235C142.884 23.769 144.086 24.5694 145.099 25.5791C146.112 26.5888 146.916 27.788 147.466 29.1083C148.015 30.4285 148.298 31.8439 148.3 33.2736V126.761C148.288 129.637 147.136 132.392 145.097 134.423C143.058 136.454 140.297 137.596 137.418 137.6ZM86.581 23.7395C85.3277 23.7376 84.0865 23.9831 82.9284 24.4616C81.7703 24.9402 80.7181 25.6425 79.8323 26.5283C78.9464 27.4141 78.2443 28.4659 77.7662 29.6234C77.2881 30.7809 77.0433 32.0214 77.046 33.2736V126.761C77.0497 129.279 78.0525 131.693 79.8347 133.474C81.6169 135.255 84.0331 136.257 86.5535 136.26H137.39C139.911 136.259 142.329 135.257 144.111 133.476C145.894 131.695 146.896 129.28 146.898 126.761V33.2736C146.896 30.7547 145.894 28.3394 144.111 26.5582C142.329 24.7771 139.911 23.7756 137.39 23.7738L86.581 23.7395Z" fill="#14213D"/>
<path d="M140.277 31.6869H83.7278C82.7027 31.6869 81.8716 32.5172 81.8716 33.5415V119.947C81.8716 120.971 82.7027 121.801 83.7278 121.801H140.277C141.303 121.801 142.134 120.971 142.134 119.947V33.5415C142.134 32.5172 141.303 31.6869 140.277 31.6869Z" fill="white"/>
<path d="M140.292 122.488H83.7213C83.0479 122.486 82.4027 122.218 81.9272 121.741C81.4517 121.265 81.1846 120.619 81.1846 119.947V33.5416C81.1846 32.8687 81.4517 32.2233 81.9272 31.7469C82.4027 31.2704 83.0479 31.0019 83.7213 31.0001H140.292C140.966 31.0001 141.613 31.2678 142.09 31.7445C142.567 32.2211 142.835 32.8675 142.835 33.5416V119.947C142.835 120.621 142.567 121.267 142.09 121.744C141.613 122.22 140.966 122.488 140.292 122.488ZM83.7213 32.3739C83.4126 32.3757 83.1171 32.4995 82.8994 32.7183C82.6817 32.9371 82.5595 33.2331 82.5595 33.5416V119.947C82.5595 120.255 82.6817 120.551 82.8994 120.77C83.1171 120.989 83.4126 121.113 83.7213 121.114H140.292C140.602 121.114 140.899 120.991 141.118 120.772C141.337 120.553 141.46 120.256 141.46 119.947V33.5416C141.46 33.2319 141.337 32.9349 141.118 32.7159C140.899 32.4969 140.602 32.3739 140.292 32.3739H83.7213Z" fill="#14213D"/>
<path d="M137.17 89.7985H86.8283C86.646 89.7985 86.4711 89.7262 86.3422 89.5973C86.2133 89.4685 86.1409 89.2938 86.1409 89.1116V68.0788C86.1409 67.8966 86.2133 67.7219 86.3422 67.5931C86.4711 67.4642 86.646 67.3919 86.8283 67.3919H137.17C137.353 67.3919 137.527 67.4642 137.656 67.5931C137.785 67.7219 137.858 67.8966 137.858 68.0788V89.1116C137.858 89.2938 137.785 89.4685 137.656 89.5973C137.527 89.7262 137.353 89.7985 137.17 89.7985ZM87.5158 88.4247H136.483V68.7657H87.5158V88.4247Z" fill="#96928E"/>
<path d="M111.652 132.289C113.274 132.289 114.588 130.976 114.588 129.357C114.588 127.737 113.274 126.424 111.652 126.424C110.031 126.424 108.717 127.737 108.717 129.357C108.717 130.976 110.031 132.289 111.652 132.289Z" fill="white"/>
<path d="M111.652 132.977C110.936 132.977 110.235 132.765 109.639 132.367C109.044 131.969 108.579 131.404 108.305 130.742C108.031 130.081 107.959 129.353 108.099 128.651C108.239 127.949 108.584 127.304 109.09 126.797C109.597 126.291 110.242 125.946 110.945 125.807C111.648 125.667 112.376 125.739 113.038 126.013C113.7 126.287 114.266 126.751 114.664 127.346C115.062 127.941 115.275 128.641 115.275 129.357C115.273 130.317 114.891 131.236 114.212 131.915C113.533 132.593 112.612 132.975 111.652 132.977ZM111.652 127.111C111.207 127.111 110.773 127.243 110.403 127.489C110.033 127.736 109.745 128.087 109.575 128.497C109.405 128.908 109.361 129.36 109.447 129.795C109.534 130.231 109.748 130.631 110.062 130.945C110.377 131.259 110.777 131.473 111.213 131.56C111.65 131.647 112.102 131.602 112.512 131.432C112.923 131.262 113.274 130.974 113.521 130.605C113.768 130.236 113.9 129.801 113.9 129.357C113.898 128.762 113.661 128.192 113.24 127.771C112.818 127.35 112.248 127.113 111.652 127.111Z" fill="#14213D"/>
<path d="M137.177 43.7214H86.8284V64.7542H137.177V43.7214Z" fill="#FCA311"/>
<path d="M137.17 65.4411H86.8283C86.646 65.4411 86.4711 65.3687 86.3422 65.2399C86.2133 65.1111 86.1409 64.9363 86.1409 64.7542V43.7213C86.1409 43.5391 86.2133 43.3644 86.3422 43.2356C86.4711 43.1068 86.646 43.0344 86.8283 43.0344H137.17C137.353 43.0344 137.527 43.1068 137.656 43.2356C137.785 43.3644 137.858 43.5391 137.858 43.7213V64.7542C137.858 64.8444 137.84 64.9337 137.805 65.017C137.771 65.1004 137.72 65.1761 137.656 65.2399C137.593 65.3037 137.517 65.3543 137.433 65.3888C137.35 65.4233 137.261 65.4411 137.17 65.4411ZM87.5158 64.0673H136.483V44.4082H87.5158V64.0673Z" fill="#14213D"/>
<path d="M137.177 92.4362H86.8284V113.469H137.177V92.4362Z" fill="#FCA311"/>
<path d="M137.17 114.156H86.8283C86.646 114.156 86.4711 114.084 86.3422 113.955C86.2133 113.826 86.1409 113.651 86.1409 113.469V92.4362C86.1409 92.2541 86.2133 92.0793 86.3422 91.9505C86.4711 91.8217 86.646 91.7493 86.8283 91.7493H137.17C137.353 91.7493 137.527 91.8217 137.656 91.9505C137.785 92.0793 137.858 92.2541 137.858 92.4362V113.469C137.858 113.651 137.785 113.826 137.656 113.955C137.527 114.084 137.353 114.156 137.17 114.156ZM87.5158 112.782H136.483V93.1231H87.5158V112.782Z" fill="#14213D"/>
<path d="M91.2898 36.4674H87.6807C87.4984 36.4674 87.3235 36.3951 87.1946 36.2663C87.0657 36.1375 86.9932 35.9628 86.9932 35.7806C86.9932 35.5985 87.0657 35.4238 87.1946 35.295C87.3235 35.1662 87.4984 35.0938 87.6807 35.0938H91.2898C91.4721 35.0938 91.647 35.1662 91.7759 35.295C91.9048 35.4238 91.9772 35.5985 91.9772 35.7806C91.9772 35.9628 91.9048 36.1375 91.7759 36.2663C91.647 36.3951 91.4721 36.4674 91.2898 36.4674Z" fill="#14213D"/>
<path d="M91.2898 38.48H87.6807C87.4984 38.48 87.3235 38.4076 87.1946 38.2789C87.0657 38.1501 86.9932 37.9754 86.9932 37.7932C86.9932 37.6111 87.0657 37.4364 87.1946 37.3076C87.3235 37.1788 87.4984 37.1064 87.6807 37.1064H91.2898C91.4721 37.1064 91.647 37.1788 91.7759 37.3076C91.9048 37.4364 91.9772 37.6111 91.9772 37.7932C91.9772 37.9754 91.9048 38.1501 91.7759 38.2789C91.647 38.4076 91.4721 38.48 91.2898 38.48Z" fill="#14213D"/>
<path d="M91.2898 40.4995H87.6807C87.4984 40.4995 87.3235 40.4271 87.1946 40.2983C87.0657 40.1695 86.9932 39.9948 86.9932 39.8127C86.9932 39.6305 87.0657 39.4559 87.1946 39.3271C87.3235 39.1983 87.4984 39.1259 87.6807 39.1259H91.2898C91.4721 39.1259 91.647 39.1983 91.7759 39.3271C91.9048 39.4559 91.9772 39.6305 91.9772 39.8127C91.9772 39.9948 91.9048 40.1695 91.7759 40.2983C91.647 40.4271 91.4721 40.4995 91.2898 40.4995Z" fill="#14213D"/>
<path d="M137.17 38.48H120.094C119.912 38.48 119.737 38.4076 119.608 38.2789C119.479 38.1501 119.406 37.9754 119.406 37.7932C119.406 37.6111 119.479 37.4364 119.608 37.3076C119.737 37.1788 119.912 37.1064 120.094 37.1064H137.17C137.353 37.1064 137.527 37.1788 137.656 37.3076C137.785 37.4364 137.858 37.6111 137.858 37.7932C137.858 37.9754 137.785 38.1501 137.656 38.2789C137.527 38.4076 137.353 38.48 137.17 38.48Z" fill="#14213D"/>
<path d="M76.7983 85.0657C74.2135 83.8087 73.0792 85.1962 71.8143 87.8133C68.6176 94.3457 62.3412 102.073 60.2582 103.756C57.7147 103.111 42.0958 89.613 39.5178 89.613H23.4246C22.5342 89.6121 21.6524 89.7867 20.8296 90.1267C20.0068 90.4668 19.2593 90.9656 18.6297 91.5947C18.0001 92.2238 17.5008 92.9708 17.1605 93.7929C16.8202 94.615 16.6455 95.4962 16.6464 96.3858V125.435H46.3236V106.511L46.6261 106.71C52.9575 110.873 57.3434 112.768 60.7738 112.768C61.3795 112.772 61.9837 112.708 62.5749 112.576C68.707 111.202 75.0109 100.658 79.2181 92.0309C79.5178 91.415 79.693 90.746 79.7336 90.0623C79.7741 89.3786 79.6793 88.6936 79.4545 88.0466C79.2298 87.3996 78.8794 86.8033 78.4236 86.2918C77.9678 85.7803 77.4155 85.3636 76.7983 85.0657Z" fill="#FCA311"/>
<path d="M46.2962 126.094H16.619C16.4366 126.094 16.2618 126.022 16.1329 125.893C16.0039 125.764 15.9315 125.59 15.9315 125.408V96.3585C15.9342 95.378 16.1302 94.4076 16.5082 93.5028C16.8863 92.5979 17.439 91.7763 18.1348 91.0849C18.8306 90.3935 19.6559 89.8458 20.5635 89.473C21.4712 89.1003 22.4434 88.9099 23.4247 88.9126H39.5454C41.0922 88.9126 45.1963 91.9555 51.7683 96.9699C55.075 99.4839 58.7803 102.314 60.1483 102.96C62.3001 100.995 68.1021 93.8857 71.23 87.4976C72.4056 85.0797 73.8355 82.861 77.1215 84.4683C78.5197 85.161 79.5862 86.379 80.0874 87.8557C80.5886 89.3324 80.4837 90.9475 79.7957 92.3471C75.5197 101.105 69.0783 111.848 62.685 113.263C58.9247 114.101 54.2638 112.494 46.9699 107.768V125.387C46.9727 125.478 46.9574 125.568 46.9249 125.653C46.8924 125.738 46.8435 125.815 46.7808 125.881C46.7182 125.947 46.6431 126 46.5599 126.036C46.4767 126.073 46.3871 126.093 46.2962 126.094ZM17.3064 124.721H45.6088V106.511C45.6086 106.386 45.6424 106.264 45.7066 106.157C45.7709 106.05 45.8631 105.962 45.9733 105.903C46.0836 105.845 46.2077 105.817 46.3324 105.824C46.4571 105.831 46.5777 105.871 46.6812 105.941L46.9699 106.14C54.3325 110.948 58.8972 112.686 62.4032 111.91C67.0366 110.88 72.6324 103.901 78.5789 91.7289C79.1047 90.6535 79.1829 89.4139 78.7964 88.2812C78.4099 87.1484 77.5902 86.2146 76.5165 85.6841C74.6673 84.7843 73.8286 85.2789 72.4537 88.0814C69.2777 94.5795 62.9394 102.465 60.7121 104.265C60.6284 104.332 60.5302 104.379 60.4251 104.402C60.32 104.425 60.2111 104.422 60.1071 104.395C58.8972 104.086 55.8311 101.785 50.9296 98.0483C46.8668 94.9504 40.7347 90.2726 39.5386 90.2726H23.4247C21.8093 90.2726 20.2601 90.9138 19.1179 92.0551C17.9756 93.1965 17.3339 94.7445 17.3339 96.3585L17.3064 124.721Z" fill="#14213D"/>
<path d="M32.1281 93.5353L37.1396 101.531L38.6451 92.0791L32.1281 93.5353Z" fill="#14213D"/>
<path d="M37.1736 102.218C37.058 102.217 36.9444 102.187 36.8435 102.13C36.7425 102.074 36.6575 101.993 36.5962 101.895L31.5778 93.8993C31.5204 93.8062 31.486 93.7009 31.4776 93.5919C31.4691 93.483 31.4868 93.3736 31.5292 93.2728C31.5715 93.1721 31.6373 93.0828 31.7211 93.0126C31.8049 92.9424 31.9042 92.8931 32.0109 92.8689L38.5279 91.4058C38.6372 91.382 38.7508 91.3851 38.8586 91.4151C38.9664 91.445 39.0653 91.5008 39.1466 91.5776C39.2297 91.6541 39.2926 91.7499 39.3298 91.8566C39.3669 91.9632 39.3772 92.0773 39.3597 92.1889L37.8542 101.641C37.8318 101.779 37.7678 101.906 37.6707 102.007C37.5737 102.108 37.4482 102.176 37.3111 102.204C37.2663 102.216 37.2199 102.22 37.1736 102.218ZM33.262 93.9748L36.7818 99.5937L37.8405 92.9514L33.262 93.9748Z" fill="#14213D"/>
<path d="M46.2963 107.198C46.114 107.198 45.9392 107.125 45.8102 106.997C45.6813 106.868 45.6089 106.693 45.6089 106.511V98.4672C45.6089 98.2851 45.6813 98.1103 45.8102 97.9815C45.9392 97.8527 46.114 97.7803 46.2963 97.7803C46.4787 97.7803 46.6535 97.8527 46.7824 97.9815C46.9114 98.1103 46.9838 98.2851 46.9838 98.4672V106.511C46.9838 106.693 46.9114 106.868 46.7824 106.997C46.6535 107.125 46.4787 107.198 46.2963 107.198Z" fill="#14213D"/>
<path d="M46.3031 125.407H16.619V136.92H46.3031V125.407Z" fill="#14213D"/>
<path d="M46.2962 137.6H16.619C16.4366 137.6 16.2618 137.528 16.1329 137.399C16.0039 137.27 15.9315 137.095 15.9315 136.913V125.408C15.9315 125.225 16.0039 125.051 16.1329 124.922C16.2618 124.793 16.4366 124.721 16.619 124.721H46.2962C46.4785 124.721 46.6534 124.793 46.7823 124.922C46.9112 125.051 46.9837 125.225 46.9837 125.408V136.913C46.9837 137.095 46.9112 137.27 46.7823 137.399C46.6534 137.528 46.4785 137.6 46.2962 137.6ZM17.3064 136.226H45.6088V126.094H17.3064V136.226Z" fill="#14213D"/>
<path d="M103.444 73.8831H53.0953V94.9159H103.444V73.8831Z" fill="#FCA311"/>
<path d="M103.444 95.6028H53.095C52.9127 95.6028 52.7379 95.5304 52.6089 95.4016C52.48 95.2728 52.4076 95.0981 52.4076 94.9159V73.883C52.4076 73.7009 52.48 73.5261 52.6089 73.3973C52.7379 73.2685 52.9127 73.1961 53.095 73.1961H103.444C103.626 73.1961 103.801 73.2685 103.93 73.3973C104.059 73.5261 104.131 73.7009 104.131 73.883V94.9159C104.131 95.0981 104.059 95.2728 103.93 95.4016C103.801 95.5304 103.626 95.6028 103.444 95.6028ZM53.7825 94.229H102.756V74.5699H53.7825V94.229Z" fill="#14213D"/>
<path d="M18.6813 101.023C21.791 104.688 25.154 108.131 28.7456 111.326C34.802 116.643 40.0473 119.308 44.4401 119.308C46.7414 119.324 48.9718 118.512 50.7234 117.02C53.5557 114.685 57.866 109.54 60.2583 106.408C59.4127 104.491 55.8655 100.459 55.4461 99.5869C51.7479 102.476 47.8622 105.117 43.8145 107.493C40.7897 106.751 33.379 100.37 27.6731 93.5078" fill="#FCA311"/>
<path d="M44.4401 120.022C39.8823 120.022 34.4514 117.275 28.2918 111.876C24.6706 108.647 21.2822 105.168 18.152 101.462C18.0942 101.393 18.0507 101.313 18.0239 101.226C17.9971 101.14 17.9876 101.049 17.9959 100.959C18.0042 100.869 18.0301 100.782 18.0722 100.702C18.1144 100.622 18.1718 100.551 18.2413 100.494C18.3108 100.436 18.391 100.392 18.4774 100.366C18.5637 100.339 18.6545 100.329 18.7445 100.338C18.8345 100.346 18.922 100.372 19.002 100.414C19.0819 100.456 19.1529 100.514 19.2106 100.583C22.2936 104.233 25.6315 107.66 29.1993 110.838C38.1361 118.697 45.2719 120.661 50.2903 116.519C52.7995 114.458 56.7317 109.87 59.454 106.353C58.5807 104.939 57.6162 103.583 56.5667 102.293C56.0167 101.606 55.5974 101.029 55.3018 100.617C51.761 103.358 48.0506 105.872 44.1926 108.146C44.0392 108.236 43.8568 108.263 43.6839 108.221C40.4941 107.438 32.9321 100.933 27.1851 94.0093C27.0684 93.8691 27.0122 93.6882 27.029 93.5066C27.0457 93.3249 27.134 93.1574 27.2744 93.0408C27.4148 92.9242 27.5958 92.8681 27.7776 92.8849C27.9594 92.9016 28.127 92.9898 28.2437 93.1301C34.1352 100.219 40.9959 105.893 43.7663 106.813C47.6878 104.475 51.4558 101.89 55.0474 99.0718C55.13 99.0076 55.2262 98.963 55.3287 98.9416C55.4312 98.9202 55.5372 98.9224 55.6386 98.9481C55.7402 98.974 55.8345 99.0227 55.9143 99.0906C55.9942 99.1584 56.0574 99.2436 56.0992 99.3397C56.5719 100.071 57.0861 100.775 57.6391 101.448C58.8628 102.915 59.9468 104.493 60.877 106.161C60.9253 106.272 60.9431 106.394 60.9286 106.515C60.9141 106.636 60.8678 106.751 60.7945 106.847C58.8009 109.444 54.2293 115.022 51.1702 117.57C49.2922 119.165 46.9046 120.035 44.4401 120.022Z" fill="#14213D"/>
<path d="M60.2582 106.435C63.5236 102.122 65.3454 99.2709 65.3454 99.2709C65.3454 99.2709 71.9174 98.3917 72.8386 96.3172C73.7598 94.2428 70.6731 94.7374 68.5145 94.7511C66.8371 94.7511 63.0699 94.5038 63.0699 94.5038C63.0699 94.5038 64.7198 90.0458 62.19 90.5335C59.6602 91.0212 59.0965 96.6401 59.0965 96.6401C57.9971 97.7535 56.7853 98.7502 55.4805 99.6143L60.2582 106.435Z" fill="white"/>
<path d="M60.2581 107.122C60.1496 107.12 60.0432 107.092 59.9476 107.04C59.852 106.989 59.7699 106.916 59.7081 106.827L54.9303 100.006C54.8781 99.9306 54.8414 99.8456 54.8225 99.7559C54.8037 99.6663 54.8029 99.5738 54.8203 99.4838C54.838 99.3946 54.8733 99.3099 54.924 99.2344C54.9748 99.1589 55.04 99.0943 55.116 99.0442C56.3131 98.2475 57.4318 97.339 58.457 96.331C58.6082 95.0877 59.3575 90.3824 62.0729 89.8604C62.3837 89.769 62.7141 89.7676 63.0256 89.8564C63.3371 89.9451 63.617 90.1204 63.8328 90.3618C64.5615 91.2136 64.2865 92.8346 64.0047 93.8719C65.2146 93.9474 67.3938 94.0779 68.5212 94.0642L69.5662 94.0298C71.2435 93.968 72.8247 93.9062 73.464 94.8473C73.6193 95.1118 73.7012 95.4129 73.7012 95.7196C73.7012 96.0263 73.6193 96.3274 73.464 96.592C72.5153 98.742 67.4076 99.6624 65.7508 99.9028C65.2215 100.713 63.4891 103.337 60.808 106.847C60.744 106.933 60.661 107.002 60.5655 107.05C60.4701 107.097 60.3648 107.122 60.2581 107.122ZM56.4221 99.7861L60.2581 105.281C63.111 101.462 64.7334 98.9412 64.7471 98.9137C64.8012 98.8299 64.8728 98.7588 64.9571 98.7054C65.0414 98.652 65.1363 98.6176 65.2352 98.6046C67.8063 98.2611 71.6629 97.2308 72.1853 96.0493C72.3228 95.7402 72.2885 95.6303 72.2885 95.6303C72.0822 95.3212 70.398 95.3899 69.5868 95.4174L68.5006 95.4517C66.837 95.4517 63.1591 95.2113 63.001 95.2044C62.8942 95.1966 62.7908 95.1639 62.6989 95.1091C62.607 95.0542 62.5292 94.9787 62.4717 94.8885C62.4134 94.7989 62.3769 94.697 62.365 94.5909C62.353 94.4848 62.366 94.3774 62.4029 94.2771C62.8223 93.1506 63.0904 91.6326 62.7535 91.2616C62.671 91.1655 62.4304 91.193 62.2998 91.2204C60.6431 91.5433 59.8937 95.3968 59.7631 96.7156C59.7451 96.86 59.6854 96.9961 59.5913 97.1071C58.6182 98.0941 57.5574 98.9907 56.4221 99.7861Z" fill="#14213D"/>
<path d="M30.8091 88.5007L37.7167 87.0097L38.5804 91.0046C38.7494 91.7863 38.6007 92.6031 38.167 93.2753C37.7333 93.9474 37.0502 94.42 36.2678 94.5888L35.2532 94.8078C34.4708 94.9767 33.6534 94.8281 32.9807 94.3948C32.3079 93.9614 31.8351 93.2788 31.6661 92.4971L30.8024 88.5022L30.8091 88.5007Z" fill="white"/>
<path d="M34.6164 95.5411C33.7714 95.5414 32.9517 95.2526 32.2938 94.7227C31.636 94.1929 31.1795 93.4538 31.0004 92.6287L30.1343 88.6309C30.0976 88.4533 30.1326 88.2685 30.2318 88.1166C30.3309 87.9648 30.4862 87.8583 30.6636 87.8204L37.6068 86.316C37.7847 86.2787 37.97 86.3133 38.1224 86.4122C38.1989 86.4608 38.265 86.5241 38.3169 86.5984C38.3688 86.6727 38.4055 86.7565 38.4249 86.845L39.2842 90.8358C39.3873 91.3103 39.3959 91.8005 39.3093 92.2783C39.2227 92.756 39.0428 93.2121 38.7798 93.6204C38.5168 94.0286 38.1758 94.3811 37.7764 94.6576C37.3769 94.9342 36.9269 95.1293 36.4519 95.232L35.407 95.4587C35.1471 95.5137 34.8821 95.5414 34.6164 95.5411ZM31.626 89.0156L32.3135 92.3333C32.4438 92.9329 32.8058 93.457 33.3207 93.7914C33.8357 94.1258 34.4619 94.2436 35.0633 94.1192L36.1082 93.8925C36.7074 93.7607 37.2307 93.3986 37.5651 92.8846C37.8995 92.3705 38.0182 91.7457 37.8956 91.1449L37.1737 87.8272L31.626 89.0156Z" fill="#14213D"/>
<path d="M49.4825 71.0518C52.3548 70.4318 54.1212 67.329 53.4277 64.1215C52.7343 60.914 49.8436 58.8164 46.9712 59.4364C44.0988 60.0564 42.3325 63.1593 43.0259 66.3668C43.7194 69.5743 46.6101 71.6719 49.4825 71.0518Z" fill="white"/>
<path d="M48.4548 71.8363C47.2161 71.829 46.012 71.4272 45.0175 70.6892C43.6485 69.6609 42.6962 68.1741 42.3351 66.5013C41.974 64.8285 42.2283 63.0816 43.0514 61.5809C43.4388 60.871 43.9735 60.2519 44.6196 59.7651C45.2657 59.2782 46.0084 58.9348 46.798 58.7578C50.0359 58.0709 53.3013 60.3926 54.0712 63.9645C54.4577 65.6347 54.2129 67.3887 53.3838 68.8895C52.9049 69.781 52.1928 70.5259 51.3236 71.0448C50.4543 71.5638 49.4605 71.8373 48.4479 71.8363H48.4548ZM47.9873 60.0079C47.6939 60.007 47.4013 60.0369 47.1142 60.0972C46.5117 60.2357 45.9453 60.5001 45.4524 60.8731C44.9595 61.246 44.5512 61.719 44.2544 62.2609C43.6042 63.4696 43.4068 64.8704 43.6979 66.2114C43.989 67.5524 44.7495 68.7456 45.8424 69.5764C46.3319 69.9557 46.8987 70.2233 47.5028 70.3603C48.1068 70.4974 48.7336 70.5005 49.3391 70.3696C49.9445 70.2386 50.5139 69.9768 51.0072 69.6024C51.5005 69.228 51.9058 68.7502 52.1945 68.2026C52.8601 66.997 53.0606 65.5894 52.7582 64.2461C52.2151 61.7526 50.1734 60.0079 47.9873 60.0079Z" fill="#14213D"/>
<path d="M4.59532 54.9247C5.50963 60.8045 7.34513 71.108 10.2943 76.0194C15.402 84.482 25.4732 91.351 34.4238 89.4208C37.9717 88.72 41.2399 87.0055 43.8317 84.4852C46.4235 81.9649 48.2277 78.7473 49.0253 75.2226C49.8192 71.8566 49.8356 68.3542 49.0734 64.9809C49.0734 64.9809 49.1696 62.46 46.6742 53.3036C44.1787 44.1472 42.7832 39.3389 24.332 40.3281C10.0949 41.0631 3.68101 49.0723 4.59532 54.9247Z" fill="white"/>
<path d="M31.4537 90.4099C24.4279 90.4099 15.498 85.9725 9.70274 76.3766C7.4754 72.6948 5.57804 65.7159 3.91441 55.0346C3.50882 52.4313 4.4025 49.6287 6.4236 47.1353C8.44471 44.6418 13.5868 40.1907 24.2973 39.5794C43.4084 38.5628 44.9208 44.0168 47.3407 53.0632C49.6024 61.3884 49.7536 64.3215 49.7605 64.871C50.5227 68.3239 50.4992 71.9037 49.6917 75.3462C48.8559 78.9932 46.9842 82.3215 44.3014 84.9315C41.6186 87.5415 38.2388 89.3221 34.5678 90.0596C33.5447 90.2834 32.501 90.4008 31.4537 90.4099ZM28.7932 40.8295C27.4183 40.8295 25.9747 40.8776 24.3661 40.9601C16.9347 41.3585 10.782 43.9137 7.49603 47.9733C5.71553 50.1576 4.93184 52.5824 5.27556 54.7942C5.88052 58.6546 7.70914 70.4005 10.8783 75.6347C15.5804 83.4173 25.3766 90.6435 34.2516 88.6858C37.6682 88.0002 40.8141 86.3438 43.3115 83.9154C45.809 81.487 47.5518 78.3898 48.3306 74.9959C49.0909 71.7302 49.105 68.3353 48.3718 65.0633C48.3684 65.0061 48.3684 64.9488 48.3718 64.8916C48.3718 64.8916 48.4062 62.2677 46.0001 53.3929C43.8003 45.3081 42.5904 40.8295 28.7932 40.8295Z" fill="#14213D"/>
<path d="M40.4186 72.262C37.9369 71.9598 34.5684 72.8871 31.5849 75.2569C27.6527 78.3892 29.1307 82.2289 25.3978 81.7825C22.7412 81.4983 20.2501 80.3551 18.3033 78.5266C15.8629 76.1087 15.6291 72.2346 14.8248 69.0336C14.6095 67.8824 14.183 66.7808 13.5668 65.7846C13.0094 65.0201 12.2412 64.4344 11.3561 64.099C10.4711 63.7635 9.50738 63.6929 8.58278 63.8956C2.12762 65.4205 6.43794 73.6839 7.72347 77.4275L10.5283 76.8231L10.9407 79.1242C13.267 83.092 16.7879 86.2244 21.0012 88.0747C25.2145 89.9249 29.9049 90.3984 34.4034 89.4277C37.9513 88.7269 41.2195 87.0124 43.8113 84.4921C46.4032 81.9718 48.2073 78.7542 49.0049 75.2294C48.1778 75.5695 47.3307 75.8585 46.4682 76.0949C44.0071 76.72 44.8252 74.309 42.4466 72.9146C41.8206 72.5648 41.1313 72.3429 40.4186 72.262Z" fill="#14213D"/>
<path d="M29.7218 90.616C25.8045 90.6032 21.9582 89.5694 18.5631 87.6166C15.168 85.6639 12.3416 82.8597 10.3632 79.4813C10.3176 79.4105 10.2872 79.331 10.2738 79.2478L9.98512 77.6473L7.87464 78.1007C7.71006 78.1368 7.53791 78.1114 7.3909 78.029C7.24388 77.9467 7.13225 77.8133 7.0772 77.6542C6.90534 77.1528 6.67848 76.5689 6.43787 75.9369C5.20734 72.7841 3.53683 68.4704 5.06297 65.6335C5.41356 65.0035 5.90141 64.4603 6.49043 64.0442C7.07945 63.6281 7.75457 63.3496 8.46585 63.2293C9.52381 62.9933 10.6278 63.0718 11.6416 63.455C12.6555 63.8383 13.535 64.5096 14.1717 65.3862C14.8427 66.4515 15.3089 67.6326 15.5466 68.8688C15.7253 69.59 15.8834 70.3525 16.0347 71.0874C16.5503 73.6564 17.0934 76.3079 18.8395 78.0388C20.6793 79.7594 23.0296 80.8347 25.5353 81.1024C27.0751 81.281 27.3501 80.6628 28.0101 79.1654C28.6591 77.4288 29.7574 75.8953 31.193 74.7211C34.1078 72.3994 37.6 71.2248 40.5354 71.582C41.3473 71.6678 42.1332 71.9179 42.8453 72.317C43.7457 72.866 44.4633 73.669 44.9076 74.625C45.3613 75.4698 45.4576 75.6484 46.3444 75.4218C47.1764 75.1921 47.9936 74.9122 48.7917 74.5837C48.9085 74.5377 49.0357 74.5246 49.1595 74.5457C49.2832 74.5668 49.3988 74.6213 49.4938 74.7035C49.5887 74.7856 49.6593 74.8921 49.6979 75.0114C49.7365 75.1308 49.7417 75.2585 49.7129 75.3806C48.8771 79.0275 47.0053 82.3559 44.3225 84.9659C41.6397 87.5758 38.2599 89.3565 34.589 90.0939C32.9899 90.4409 31.3582 90.616 29.7218 90.616ZM11.6144 78.8769C13.8724 82.7009 17.2818 85.7144 21.3558 87.487C25.4299 89.2597 29.9603 89.7009 34.3003 88.7476C37.4995 88.1132 40.4672 86.6248 42.8879 84.4406C45.3087 82.2564 47.0923 79.4579 48.0493 76.3422C47.5474 76.5208 47.0937 76.6582 46.7087 76.7544C44.7907 77.2421 44.1995 76.1568 43.7252 75.2844C43.397 74.5456 42.8531 73.9231 42.1647 73.4984C41.6149 73.1958 41.009 73.0088 40.3842 72.9489C37.8475 72.6398 34.6577 73.732 32.0592 75.7927C30.8125 76.835 29.8639 78.1881 29.3094 79.7149C28.6219 81.2879 27.9757 82.7716 25.4115 82.4625C22.6039 82.1642 19.9705 80.9583 17.9114 79.028C15.8491 76.9673 15.2854 74.1441 14.7285 71.3759C14.5704 70.6203 14.4261 69.906 14.2542 69.2122C14.0544 68.1435 13.6631 67.1196 13.0993 66.1898C12.618 65.5414 11.9605 65.0446 11.205 64.7585C10.4495 64.4723 9.62762 64.4089 8.83708 64.5756C8.30586 64.6396 7.79606 64.823 7.34599 65.1121C6.89591 65.4012 6.51726 65.7885 6.23851 66.2448C5.03547 68.5322 6.64411 72.6742 7.70966 75.408C7.87464 75.8339 8.03276 76.2323 8.16338 76.6032L10.3838 76.1224C10.567 76.0871 10.7567 76.124 10.9132 76.2254C10.9886 76.277 11.0529 76.343 11.1025 76.4196C11.1521 76.4963 11.1859 76.5821 11.2019 76.6719L11.6144 78.8769Z" fill="#14213D"/>
<path d="M27.4598 66.6219C28.4989 66.3976 29.1593 65.3743 28.9349 64.3362C28.7105 63.2981 27.6862 62.6384 26.6471 62.8627C25.608 63.0869 24.9476 64.1103 25.172 65.1484C25.3964 66.1865 26.4207 66.8462 27.4598 66.6219Z" fill="#14213D"/>
<path d="M42.0546 62.6104C43.1176 62.6104 43.9794 61.7495 43.9794 60.6875C43.9794 59.6254 43.1176 58.7645 42.0546 58.7645C40.9915 58.7645 40.1297 59.6254 40.1297 60.6875C40.1297 61.7495 40.9915 62.6104 42.0546 62.6104Z" fill="#14213D"/>
<path d="M33.7707 69.4663C33.5883 69.4745 33.4102 69.41 33.2755 69.287C33.1408 69.164 33.0605 68.9925 33.0523 68.8103C33.0441 68.6282 33.1086 68.4502 33.2317 68.3156C33.3549 68.181 33.5265 68.1007 33.7088 68.0925C35.1549 67.953 36.5803 67.6488 37.9572 67.1858C37.8954 66.6088 36.4448 64.8778 34.8018 63.456C34.7305 63.3978 34.6715 63.326 34.6285 63.2447C34.5854 63.1634 34.5591 63.0743 34.5512 62.9826C34.5433 62.891 34.5539 62.7987 34.5823 62.7112C34.6108 62.6237 34.6565 62.5428 34.7168 62.4733C34.7772 62.4039 34.8509 62.3472 34.9335 62.3067C35.0162 62.2662 35.1061 62.2427 35.1981 62.2376C35.29 62.2325 35.382 62.2459 35.4686 62.2771C35.5552 62.3082 35.6347 62.3563 35.7024 62.4187C36.8711 63.4353 39.5659 65.9631 39.3115 67.4743C39.2759 67.6937 39.1818 67.8994 39.039 68.0699C38.8963 68.2403 38.7102 68.3692 38.5003 68.4428C36.9913 68.9691 35.4239 69.3105 33.8325 69.4595L33.7707 69.4663Z" fill="#14213D"/>
<path d="M19.9396 61.6631C19.8642 61.6699 19.7883 61.6699 19.7128 61.6631C19.3607 61.6023 19.0462 61.407 18.8357 61.1186C18.6253 60.8301 18.5355 60.4711 18.5854 60.1176C18.5854 59.9665 19.1903 56.4495 23.4731 55.5703C27.5428 54.7323 29.4677 56.4221 29.6602 56.6213C29.9237 56.8736 30.076 57.2201 30.0837 57.5847C30.0915 57.9492 29.954 58.3019 29.7014 58.5652C29.4489 58.8284 29.1021 58.9807 28.7372 58.9884C28.3724 58.9961 28.0194 58.8587 27.756 58.6064C27.756 58.6064 26.6492 57.7134 24.0094 58.2561C21.6926 58.7369 21.3214 60.3649 21.2595 60.5503C21.1999 60.8586 21.0364 61.1371 20.7963 61.3396C20.5561 61.5421 20.2538 61.6563 19.9396 61.6631Z" fill="#14213D"/>
<path d="M38.6451 57.0119C38.392 57.0117 38.144 56.9416 37.9282 56.8096C37.7125 56.6775 37.5374 56.4885 37.4222 56.2634C37.3071 56.0383 37.2563 55.7858 37.2756 55.5338C37.2949 55.2817 37.3834 55.0399 37.5314 54.8348C38.7932 53.2358 40.5939 52.1496 42.5979 51.7787C45.5402 51.2773 47.0732 52.6989 47.5132 53.6124L45.0384 54.8074C45.0456 54.83 45.0573 54.8511 45.0728 54.8692C45.0728 54.8692 44.6259 54.2236 43.0585 54.4914C41.7603 54.7397 40.5902 55.4347 39.7519 56.4556C39.6238 56.6284 39.457 56.7688 39.2648 56.8654C39.0725 56.962 38.8603 57.0122 38.6451 57.0119Z" fill="#14213D"/>
<path d="M11.7374 69.3357C11.7374 69.3357 6.02465 66.9728 4.30603 71.9803C2.5874 76.9878 6.77397 83.9667 14.4872 79.9827L11.7374 69.3357Z" fill="white"/>
<path d="M10.1982 81.8649C8.58618 81.8786 7.02443 81.3048 5.80539 80.2507C4.65372 79.1973 3.83473 77.8309 3.44886 76.3191C3.06299 74.8074 3.127 73.216 3.63305 71.74C3.83961 71.0463 4.19167 70.4045 4.66581 69.8573C5.13994 69.3101 5.72527 68.8701 6.38285 68.5666C8.89204 67.4332 11.8825 68.6353 11.9993 68.6902C12.0967 68.7312 12.1833 68.794 12.2525 68.8738C12.3216 68.9536 12.3714 69.0483 12.398 69.1504L15.1753 79.818C15.2162 79.9699 15.2037 80.1312 15.1399 80.2749C15.0761 80.4187 14.9649 80.5363 14.8247 80.6079C13.4053 81.3904 11.8188 81.8215 10.1982 81.8649ZM8.78205 69.4664C8.14233 69.4554 7.50748 69.5794 6.91906 69.8305C6.4404 70.0646 6.01624 70.3965 5.67401 70.8047C5.33179 71.2129 5.07911 71.6884 4.93233 72.2003C4.52501 73.4163 4.47562 74.7235 4.79002 75.9667C5.10443 77.2099 5.76941 78.3368 6.70595 79.2135C8.47958 80.7453 10.9544 80.8895 13.7111 79.6256L11.14 69.8648C10.379 69.6123 9.58381 69.4779 8.78205 69.4664Z" fill="#14213D"/>
<path d="M34.1696 78.8769L41.1609 77.2764C41.1609 77.2764 41.7727 83.1356 38.9542 84.1454C36.1357 85.1551 34.1696 78.8769 34.1696 78.8769Z" fill="white"/>
<path d="M38.3494 84.9147C37.9381 84.9121 37.5331 84.8133 37.1669 84.6262C34.9671 83.5272 33.6609 79.5294 33.5166 79.0829C33.4882 78.9921 33.4791 78.8963 33.4897 78.8017C33.5004 78.7071 33.5306 78.6157 33.5784 78.5334C33.6251 78.4512 33.6883 78.3794 33.764 78.3227C33.8397 78.2659 33.9263 78.2254 34.0184 78.2037L41.0098 76.6032C41.1052 76.5834 41.2037 76.5829 41.2994 76.6018C41.395 76.6207 41.4859 76.6585 41.5666 76.7131C41.6454 76.7699 41.7113 76.8427 41.7599 76.9268C41.8085 77.0109 41.8387 77.1043 41.8485 77.2008C41.9172 77.8877 42.4191 83.6371 39.1812 84.7567C38.9149 84.8563 38.6336 84.9098 38.3494 84.9147ZM35.1115 79.3714C35.6202 80.6972 36.6376 82.8059 37.82 83.3967C37.9625 83.4757 38.1203 83.5234 38.2827 83.5364C38.4452 83.5494 38.6085 83.5276 38.7618 83.4722C40.3773 82.909 40.6248 79.9072 40.5629 78.1213L35.1115 79.3714Z" fill="#14213D"/>
<path d="M4.78801 57.5898C4.78801 57.5898 41.6904 48.6602 45.3476 42.4025C49.0048 36.1449 45.3476 29.688 45.3476 29.688C45.3476 29.688 44.0552 35.0046 41.4016 37.0241C41.4016 37.0241 43.2509 30.7664 37.8819 28.6714C37.8819 28.6714 35.2283 33.9056 24.0504 36.4746C12.8724 39.0436 2.56067 45.1638 4.78801 57.5898Z" fill="#14213D"/>
<path d="M4.78723 58.2758C4.65317 58.2768 4.52174 58.2386 4.40913 58.1659C4.33043 58.1149 4.263 58.0484 4.21098 57.9705C4.15896 57.8925 4.12346 57.8047 4.10665 57.7125C2.18179 46.9557 9.21441 39.1663 23.9052 35.8005C34.5676 33.3551 37.2486 28.4025 37.2761 28.3545C37.3544 28.2043 37.4854 28.0883 37.644 28.0287C37.8026 27.9691 37.9776 27.9702 38.1355 28.0316C41.5727 29.4054 42.4733 32.4278 42.4183 34.9006C43.4356 33.2342 44.2001 31.4263 44.6869 29.5359C44.7185 29.4018 44.7899 29.2802 44.8917 29.1871C44.9934 29.094 45.1209 29.0336 45.2574 29.0139C45.3932 28.9962 45.5312 29.0195 45.6537 29.0807C45.7762 29.1418 45.8776 29.2382 45.9449 29.3573C46.103 29.6321 49.7671 36.192 45.9449 42.7519C42.1227 49.3118 6.45773 57.8637 4.93847 58.2621L4.78723 58.2758ZM38.1492 29.5359C37.118 31.0059 33.557 35.0311 24.2146 37.1399C16.3295 38.9533 3.53607 43.899 5.34406 56.744C16.027 54.1269 41.937 46.8939 44.7625 42.0512C47.1067 38.0329 46.2474 33.8977 45.4499 31.6791C44.8106 33.4925 43.6144 36.192 41.8064 37.5658C41.6887 37.6518 41.5467 37.6981 41.4008 37.6981C41.255 37.6981 41.113 37.6518 40.9952 37.5658C40.877 37.4837 40.7875 37.3667 40.7394 37.2311C40.6913 37.0956 40.687 36.9483 40.7271 36.8102C40.8096 36.6041 42.2258 31.5623 38.1492 29.5359Z" fill="#14213D"/>
<path d="M72.4123 40.9875H56.0717V53.0494H72.4123V40.9875Z" fill="white"/>
<path d="M72.4123 53.7364H56.0716C55.8893 53.7364 55.7144 53.664 55.5855 53.5352C55.4566 53.4063 55.3842 53.2316 55.3842 53.0495V40.9875C55.3842 40.8053 55.4566 40.6306 55.5855 40.5018C55.7144 40.373 55.8893 40.3006 56.0716 40.3006H72.4123C72.5946 40.3006 72.7695 40.373 72.8984 40.5018C73.0273 40.6306 73.0998 40.8053 73.0998 40.9875V53.0495C73.0998 53.2316 73.0273 53.4063 72.8984 53.5352C72.7695 53.664 72.5946 53.7364 72.4123 53.7364ZM56.7591 52.3626H71.7249V41.6744H56.7591V52.3626Z" fill="#14213D"/>
<path d="M157.175 101.222H132.489V116.78H157.175V101.222Z" fill="white"/>
<path d="M157.175 117.467H132.489C132.306 117.467 132.132 117.394 132.003 117.266C131.874 117.137 131.801 116.962 131.801 116.78V101.222C131.801 101.039 131.874 100.865 132.003 100.736C132.132 100.607 132.306 100.535 132.489 100.535H157.175C157.357 100.535 157.532 100.607 157.661 100.736C157.79 100.865 157.863 101.039 157.863 101.222V116.78C157.863 116.962 157.79 117.137 157.661 117.266C157.532 117.394 157.357 117.467 157.175 117.467ZM133.176 116.093H156.488V101.908H133.176V116.093Z" fill="#14213D"/>
<path d="M132.489 117.467C132.361 117.467 132.235 117.43 132.126 117.363C132.017 117.295 131.93 117.198 131.873 117.083C131.817 116.968 131.794 116.839 131.807 116.711C131.819 116.584 131.868 116.463 131.946 116.361L141.11 104.581C141.171 104.502 141.248 104.438 141.336 104.392C141.424 104.346 141.522 104.32 141.621 104.316C141.72 104.311 141.819 104.328 141.911 104.366C142.004 104.403 142.087 104.46 142.154 104.533L150.026 113.002C150.095 113.066 150.149 113.144 150.187 113.231C150.224 113.317 150.244 113.41 150.243 113.504C150.243 113.599 150.224 113.692 150.186 113.778C150.149 113.864 150.094 113.942 150.025 114.006C149.956 114.07 149.874 114.12 149.785 114.151C149.697 114.183 149.602 114.195 149.508 114.189C149.414 114.182 149.322 114.156 149.239 114.113C149.155 114.07 149.081 114.009 149.022 113.936L141.666 106.085L133.004 117.226C132.941 117.301 132.862 117.361 132.773 117.402C132.684 117.444 132.587 117.466 132.489 117.467Z" fill="#14213D"/>
<path d="M147.613 112.102C147.481 112.102 147.353 112.065 147.242 111.994C147.131 111.923 147.043 111.822 146.988 111.703C146.933 111.583 146.914 111.451 146.932 111.321C146.95 111.191 147.005 111.069 147.09 110.969L151.318 105.989C151.379 105.918 151.453 105.86 151.537 105.818C151.621 105.777 151.713 105.753 151.806 105.748C151.899 105.743 151.992 105.757 152.08 105.789C152.167 105.821 152.247 105.87 152.315 105.934L157.65 110.914C157.783 111.039 157.861 111.211 157.866 111.393C157.872 111.576 157.805 111.753 157.681 111.886C157.556 112.019 157.383 112.097 157.201 112.103C157.018 112.108 156.841 112.042 156.708 111.917L151.896 107.431L148.128 111.862C148.065 111.936 147.986 111.996 147.897 112.038C147.808 112.079 147.711 112.101 147.613 112.102Z" fill="#14213D"/>
<path d="M68.4184 45.2322H60.0659C59.8835 45.2322 59.7087 45.1598 59.5798 45.031C59.4508 44.9022 59.3784 44.7276 59.3784 44.5454C59.3784 44.3633 59.4508 44.1886 59.5798 44.0598C59.7087 43.931 59.8835 43.8586 60.0659 43.8586H68.4184C68.6007 43.8586 68.7756 43.931 68.9045 44.0598C69.0334 44.1886 69.1058 44.3633 69.1058 44.5454C69.1058 44.7276 69.0334 44.9022 68.9045 45.031C68.7756 45.1598 68.6007 45.2322 68.4184 45.2322Z" fill="#96928E"/>
<path d="M65.8061 48.9072H60.0659C59.8835 48.9072 59.7087 48.8348 59.5798 48.706C59.4508 48.5772 59.3784 48.4026 59.3784 48.2204C59.3784 48.0383 59.4508 47.8636 59.5798 47.7348C59.7087 47.606 59.8835 47.5336 60.0659 47.5336H65.8061C65.9884 47.5336 66.1632 47.606 66.2922 47.7348C66.4211 47.8636 66.4935 48.0383 66.4935 48.2204C66.4935 48.4026 66.4211 48.5772 66.2922 48.706C66.1632 48.8348 65.9884 48.9072 65.8061 48.9072Z" fill="#96928E"/>
</svg>
