<svg width="256" height="256" viewBox="0 0 256 256" fill="none" xmlns="http://www.w3.org/2000/svg">
<path d="M36.292 183.135H219.708V188.451C219.708 190.618 218.848 192.695 217.316 194.227C215.784 195.759 213.706 196.62 211.54 196.62H44.4778C43.4036 196.622 42.3395 196.412 41.3465 196.003C40.3534 195.593 39.4509 194.992 38.6906 194.233C37.9302 193.475 37.327 192.573 36.9154 191.581C36.5038 190.589 36.292 189.525 36.292 188.451V183.135Z" fill="#FCA311"/>
<path d="M211.523 197.469H44.4778C43.2921 197.471 42.1177 197.24 41.0216 196.787C39.9255 196.335 38.9294 195.671 38.0902 194.834C37.251 193.996 36.5852 193.001 36.1309 191.906C35.6767 190.811 35.4429 189.637 35.4429 188.451V183.135C35.4429 182.91 35.5323 182.694 35.6916 182.535C35.8508 182.376 36.0668 182.286 36.292 182.286H219.708C219.934 182.286 220.15 182.376 220.309 182.535C220.468 182.694 220.558 182.91 220.558 183.135V188.451C220.558 189.637 220.324 190.811 219.87 191.906C219.415 193.001 218.75 193.996 217.91 194.834C217.071 195.671 216.075 196.335 214.979 196.787C213.883 197.24 212.708 197.471 211.523 197.469ZM37.1412 183.984V188.451C37.1434 190.39 37.9141 192.249 39.2845 193.621C40.6549 194.993 42.5132 195.766 44.4524 195.771H211.523C213.462 195.766 215.32 194.993 216.691 193.621C218.061 192.249 218.832 190.39 218.834 188.451V183.984H37.1412Z" fill="#14213D"/>
<path d="M55.9246 89.6863H200.076C202 89.6863 203.844 90.4504 205.204 91.8103C206.564 93.1703 207.328 95.0148 207.328 96.9381V183.135H48.6729V96.9381C48.6729 95.9858 48.8605 95.0428 49.2249 94.163C49.5893 93.2831 50.1235 92.4837 50.7969 91.8103C51.4703 91.1369 52.2697 90.6028 53.1495 90.2383C54.0293 89.8739 54.9723 89.6863 55.9246 89.6863Z" fill="#FCA311"/>
<path d="M207.328 183.985H48.6725C48.4473 183.985 48.2313 183.895 48.0721 183.736C47.9128 183.577 47.8234 183.361 47.8234 183.135V96.9382C47.8256 94.7904 48.6798 92.7312 50.1985 91.2125C51.7173 89.6938 53.7765 88.8396 55.9243 88.8373H200.076C202.224 88.8396 204.283 89.6938 205.802 91.2125C207.32 92.7312 208.175 94.7904 208.177 96.9382V183.135C208.177 183.361 208.087 183.577 207.928 183.736C207.769 183.895 207.553 183.985 207.328 183.985ZM49.5217 182.286H206.479V96.9382C206.476 95.2409 205.801 93.6136 204.601 92.4134C203.401 91.2132 201.773 90.5379 200.076 90.5356H55.9243C54.2269 90.5379 52.5997 91.2132 51.3994 92.4134C50.1992 93.6136 49.5239 95.2409 49.5217 96.9382V182.286Z" fill="#14213D"/>
<path d="M198.412 97.9486H57.5802C56.3703 97.9486 55.3894 98.9295 55.3894 100.139V173.251C55.3894 174.461 56.3703 175.442 57.5802 175.442H198.412C199.622 175.442 200.603 174.461 200.603 173.251V100.139C200.603 98.9295 199.622 97.9486 198.412 97.9486Z" fill="white"/>
<path d="M198.421 176.291H57.5804C56.7749 176.289 56.0029 175.968 55.4333 175.398C54.8637 174.829 54.5427 174.057 54.5405 173.251V100.14C54.5405 99.3333 54.8607 98.5601 55.4309 97.99C56.001 97.4199 56.7742 97.0996 57.5804 97.0996H198.421C198.819 97.0996 199.214 97.1783 199.583 97.3312C199.951 97.4841 200.285 97.7081 200.567 97.9905C200.849 98.2729 201.072 98.6081 201.224 98.9769C201.376 99.3456 201.453 99.7408 201.452 100.14V173.251C201.452 174.056 201.133 174.828 200.565 175.398C199.996 175.968 199.225 176.289 198.421 176.291ZM57.5804 98.7979C57.2246 98.7979 56.8833 98.9393 56.6317 99.1909C56.3801 99.4425 56.2388 99.7837 56.2388 100.14V173.251C56.2388 173.607 56.3801 173.948 56.6317 174.2C56.8833 174.452 57.2246 174.593 57.5804 174.593H198.421C198.596 174.593 198.77 174.558 198.933 174.491C199.095 174.423 199.242 174.324 199.366 174.2C199.49 174.075 199.588 173.927 199.655 173.764C199.721 173.601 199.755 173.427 199.754 173.251V100.14C199.755 99.9638 199.721 99.7895 199.655 99.6268C199.588 99.464 199.49 99.3161 199.366 99.1914C199.242 99.0667 199.095 98.9677 198.933 98.9002C198.77 98.8327 198.596 98.7979 198.421 98.7979H57.5804Z" fill="#14213D"/>
<path d="M188.094 180.181H67.9057C67.6805 180.181 67.4646 180.091 67.3053 179.932C67.1461 179.773 67.0566 179.557 67.0566 179.331V118.354C67.0566 118.129 67.1461 117.913 67.3053 117.753C67.4646 117.594 67.6805 117.505 67.9057 117.505H188.094C188.32 117.505 188.536 117.594 188.695 117.753C188.854 117.913 188.944 118.129 188.944 118.354V179.331C188.944 179.557 188.854 179.773 188.695 179.932C188.536 180.091 188.32 180.181 188.094 180.181ZM68.7549 178.482H187.245V119.203H68.7549V178.482Z" fill="#96928E"/>
<path d="M120.078 183.135H135.923V184.044C135.923 184.848 135.603 185.619 135.035 186.188C134.466 186.756 133.695 187.075 132.891 187.075H123.118C122.314 187.075 121.543 186.756 120.974 186.188C120.406 185.619 120.086 184.848 120.086 184.044V183.135H120.078Z" fill="#FCA311"/>
<path d="M132.883 187.933H123.118C122.088 187.933 121.1 187.524 120.371 186.797C119.642 186.069 119.231 185.082 119.229 184.052V183.135C119.229 182.91 119.318 182.694 119.477 182.535C119.637 182.376 119.853 182.286 120.078 182.286H135.923C136.148 182.286 136.364 182.376 136.523 182.535C136.683 182.694 136.772 182.91 136.772 183.135V184.044C136.772 185.075 136.362 186.065 135.633 186.794C134.904 187.523 133.915 187.933 132.883 187.933ZM120.927 183.984V184.044C120.929 184.624 121.161 185.179 121.572 185.588C121.982 185.997 122.538 186.226 123.118 186.226H132.883C133.463 186.226 134.019 185.997 134.429 185.588C134.84 185.179 135.072 184.624 135.074 184.044V183.976L120.927 183.984Z" fill="#14213D"/>
<path d="M200.603 111.798H55.3979C55.1727 111.798 54.9568 111.709 54.7975 111.549C54.6383 111.39 54.5488 111.174 54.5488 110.949C54.5488 110.724 54.6383 110.508 54.7975 110.349C54.9568 110.189 55.1727 110.1 55.3979 110.1H200.603C200.828 110.1 201.044 110.189 201.203 110.349C201.362 110.508 201.452 110.724 201.452 110.949C201.452 111.174 201.362 111.39 201.203 111.549C201.044 111.709 200.828 111.798 200.603 111.798Z" fill="#14213D"/>
<path d="M150.401 183.144H106.619L118.481 153.169H138.538L150.401 183.144Z" fill="white"/>
<path d="M150.401 183.985H106.619C106.482 183.984 106.347 183.951 106.226 183.888C106.104 183.824 106 183.732 105.922 183.62C105.843 183.506 105.794 183.374 105.777 183.236C105.761 183.099 105.779 182.959 105.829 182.83L117.717 152.855C117.78 152.697 117.889 152.561 118.03 152.466C118.17 152.371 118.337 152.32 118.507 152.32H138.564C138.734 152.32 138.9 152.371 139.041 152.466C139.181 152.561 139.29 152.697 139.353 152.855L151.241 182.83C151.293 182.958 151.312 183.098 151.297 183.235C151.282 183.373 151.234 183.505 151.156 183.62C151.073 183.741 150.959 183.838 150.827 183.902C150.694 183.966 150.548 183.995 150.401 183.985ZM107.867 182.286H149.144L137.961 154.018H119.059L107.867 182.286Z" fill="#14213D"/>
<path d="M143.175 183.135H213.416C209.748 162.119 197.817 147.259 182.524 146.902C167.231 146.545 164.692 170.466 164.692 170.466C164.692 170.466 159.954 162.705 151.216 166.059C140.789 170.041 143.175 183.135 143.175 183.135Z" fill="white"/>
<path d="M213.416 183.985H143.175C142.973 183.988 142.778 183.92 142.622 183.792C142.467 183.665 142.362 183.486 142.325 183.288C142.325 183.152 139.931 169.447 150.868 165.261C157.491 162.713 162.017 166.186 164.089 168.411C164.687 164.913 165.682 161.495 167.053 158.221C170.543 150.104 175.892 145.943 182.524 146.053C197.928 146.427 210.376 160.922 214.231 183C214.253 183.123 214.247 183.249 214.214 183.369C214.18 183.489 214.121 183.601 214.04 183.696C213.959 183.791 213.858 183.866 213.744 183.918C213.631 183.969 213.507 183.995 213.382 183.993L213.416 183.985ZM143.913 182.286H212.397C208.5 161.61 196.832 148.083 182.499 147.743H182.185C168.114 147.743 165.524 170.322 165.499 170.551C165.48 170.727 165.407 170.893 165.29 171.025C165.173 171.158 165.017 171.25 164.845 171.29C164.673 171.329 164.492 171.313 164.329 171.244C164.167 171.176 164.029 171.058 163.936 170.908C163.758 170.619 159.436 163.809 151.488 166.849C143.09 170.067 143.591 179.603 143.913 182.286Z" fill="#14213D"/>
<path d="M125.088 183.135C125.088 183.135 120.078 173.676 110.898 176.622C110.898 176.622 105.803 164.327 96.8704 164.293C92.3254 164.353 87.9066 165.796 84.2011 168.428C75.3274 148.133 61.6986 152.507 53.7845 158.807C39.0857 170.508 42.9578 182.048 42.6521 183.135H125.088Z" fill="white"/>
<path d="M125.088 183.985H42.6522C42.5211 183.986 42.3915 183.956 42.2736 183.899C42.1558 183.841 42.0528 183.757 41.9729 183.653C41.8938 183.548 41.8403 183.426 41.8167 183.296C41.7931 183.166 41.8001 183.033 41.837 182.906C41.837 182.906 41.786 182.507 41.7521 182.184C41.3869 178.788 40.2576 168.496 53.2496 158.145C56.5782 155.496 63.2441 151.352 70.5298 153.127C76.1936 154.536 80.9064 159.249 84.5577 167.146C88.21 164.792 92.4493 163.509 96.794 163.444H96.8789C105.09 163.444 110.109 172.903 111.374 175.604C120.655 173.183 125.809 182.643 125.809 182.745C125.884 182.874 125.923 183.02 125.923 183.169C125.923 183.319 125.884 183.465 125.809 183.594C125.732 183.715 125.625 183.814 125.499 183.882C125.373 183.951 125.231 183.986 125.088 183.985ZM43.4759 182.286H123.542C121.886 179.951 117.658 175.34 111.162 177.429C110.959 177.494 110.738 177.481 110.545 177.391C110.351 177.302 110.199 177.142 110.117 176.945C110.066 176.826 105.124 165.176 96.8704 165.142H96.794C92.4558 165.223 88.2413 166.601 84.6936 169.099C84.5916 169.178 84.4727 169.233 84.3462 169.26C84.2196 169.286 84.0887 169.284 83.9633 169.252C83.8379 169.22 83.7214 169.16 83.6228 169.076C83.5242 168.992 83.4461 168.887 83.3944 168.768C79.9214 160.811 75.4464 156.107 70.0967 154.782C63.5158 153.144 57.3595 157.016 54.2855 159.47C42.0153 169.243 43.0683 178.847 43.4164 181.998C43.4504 182.108 43.4674 182.201 43.4759 182.286Z" fill="#14213D"/>
<path d="M90.349 136.288L113.081 122.43V148.465H90.349V136.288Z" fill="#FCA311"/>
<path d="M113.081 149.314H90.3574C90.1322 149.314 89.9162 149.224 89.7569 149.065C89.5977 148.906 89.5082 148.69 89.5082 148.465V136.288C89.5065 136.142 89.5423 135.998 89.6122 135.87C89.6821 135.743 89.7837 135.635 89.9073 135.558L112.639 121.708C112.768 121.633 112.915 121.594 113.064 121.594C113.213 121.594 113.359 121.633 113.488 121.708C113.619 121.782 113.729 121.889 113.805 122.019C113.881 122.148 113.921 122.296 113.921 122.447V148.465C113.921 148.688 113.833 148.903 113.676 149.062C113.518 149.221 113.304 149.312 113.081 149.314ZM91.2065 147.615H112.231V123.941L91.2065 136.763V147.615Z" fill="#14213D"/>
<path d="M165.651 136.288L142.92 122.43V148.465H165.651V136.288Z" fill="#FCA311"/>
<path d="M165.643 149.314H142.92C142.695 149.314 142.479 149.224 142.319 149.065C142.16 148.906 142.071 148.69 142.071 148.465V122.43C142.071 122.279 142.111 122.131 142.187 122.002C142.263 121.872 142.373 121.765 142.504 121.691C142.633 121.616 142.779 121.577 142.928 121.577C143.077 121.577 143.224 121.616 143.353 121.691L166.085 135.54C166.208 135.618 166.31 135.725 166.38 135.853C166.45 135.981 166.485 136.125 166.484 136.271V148.465C166.484 148.688 166.395 148.903 166.238 149.062C166.081 149.221 165.867 149.311 165.643 149.314ZM143.769 147.615H164.794V136.763L143.769 123.941V147.615Z" fill="#14213D"/>
<path d="M160.268 84.3284C160.268 79.3521 159.084 74.4472 156.814 70.0189C154.543 65.5906 151.252 61.7659 147.212 58.8609C143.171 55.9559 138.498 54.0539 133.577 53.3119C128.656 52.57 123.63 53.0094 118.913 54.5939C114.195 56.1784 109.923 58.8626 106.448 62.4246C102.973 65.9866 100.395 70.3243 98.9275 75.0793C97.4601 79.8344 97.1451 84.8703 98.0084 89.7712C98.8718 94.672 100.889 99.2971 103.893 103.264C109.956 111.268 113.236 121.034 113.234 131.074H144.482C144.388 121.151 147.603 111.479 153.619 103.587C157.928 98.0922 160.269 91.311 160.268 84.3284Z" fill="#FCA311"/>
<path d="M144.559 131.923H113.31C113.085 131.923 112.869 131.834 112.71 131.674C112.55 131.515 112.461 131.299 112.461 131.074C112.431 121.218 109.197 111.64 103.248 103.782C100.153 99.7097 98.0734 94.9588 97.1796 89.9227C96.2857 84.8867 96.6038 79.7102 98.1074 74.8214C99.6111 69.9326 102.257 65.4722 105.827 61.8089C109.396 58.1457 113.787 55.385 118.635 53.7552C123.483 52.1254 128.649 51.6733 133.707 52.4364C138.765 53.1994 143.568 55.1557 147.719 58.1434C151.871 61.1311 155.251 65.0643 157.581 69.6176C159.911 74.1709 161.123 79.2135 161.117 84.3283C161.14 91.4993 158.747 98.4691 154.324 104.114C148.435 111.86 145.284 121.343 145.366 131.074C145.366 131.292 145.282 131.502 145.132 131.66C144.982 131.818 144.777 131.912 144.559 131.923ZM114.151 130.225H143.718C143.818 120.397 147.095 110.865 153.059 103.052C157.221 97.7019 159.461 91.1066 159.419 84.3283C159.412 80.1436 158.548 76.0046 156.881 72.1665C155.213 68.3285 152.776 64.8728 149.722 62.0126C144.134 56.7936 136.791 53.8615 129.145 53.7964C121.499 53.7313 114.107 56.5378 108.431 61.661C102.755 66.7842 99.2081 73.8508 98.492 81.4634C97.776 89.076 99.9427 96.6801 104.564 102.772C110.574 110.683 113.929 120.292 114.151 130.225Z" fill="#14213D"/>
<path d="M142.92 155.538H114.091L117.471 148.465H139.54L142.92 155.538Z" fill="#14213D"/>
<path d="M142.92 156.387H114.091C113.949 156.387 113.809 156.351 113.685 156.283C113.56 156.215 113.454 156.116 113.378 155.997C113.295 155.872 113.247 155.728 113.238 155.579C113.229 155.43 113.26 155.281 113.327 155.148L116.723 148.074C116.793 147.928 116.902 147.805 117.039 147.72C117.176 147.634 117.335 147.589 117.496 147.59H139.574C139.736 147.589 139.894 147.634 140.031 147.72C140.168 147.805 140.277 147.928 140.347 148.074L143.743 155.148C143.81 155.281 143.841 155.43 143.832 155.579C143.823 155.728 143.775 155.872 143.692 155.997C143.61 156.125 143.496 156.229 143.36 156.298C143.224 156.367 143.072 156.397 142.92 156.387ZM115.441 154.689H141.587L139.039 149.314H118.014L115.441 154.689Z" fill="#14213D"/>
<path d="M143.862 139.786H113.148C111.141 139.786 109.514 141.413 109.514 143.421V144.83C109.514 146.837 111.141 148.465 113.148 148.465H143.862C145.869 148.465 147.497 146.837 147.497 144.83V143.421C147.497 141.413 145.869 139.786 143.862 139.786Z" fill="#FCA311"/>
<path d="M143.871 149.314H113.149C111.96 149.312 110.821 148.838 109.981 147.998C109.14 147.158 108.667 146.019 108.665 144.83V143.421C108.667 142.232 109.14 141.093 109.981 140.253C110.821 139.412 111.96 138.939 113.149 138.937H143.871C145.059 138.939 146.198 139.412 147.039 140.253C147.879 141.093 148.352 142.232 148.354 143.421V144.83C148.352 146.019 147.879 147.158 147.039 147.998C146.198 148.838 145.059 149.312 143.871 149.314ZM113.149 140.635C112.41 140.635 111.702 140.929 111.179 141.451C110.657 141.974 110.363 142.682 110.363 143.421V144.83C110.363 145.569 110.657 146.277 111.179 146.8C111.702 147.322 112.41 147.615 113.149 147.615H143.871C144.61 147.615 145.318 147.322 145.84 146.8C146.363 146.277 146.656 145.569 146.656 144.83V143.421C146.656 142.682 146.363 141.974 145.84 141.451C145.318 140.929 144.61 140.635 143.871 140.635H113.149Z" fill="#14213D"/>
<path d="M143.862 131.108H113.148C111.141 131.108 109.514 132.735 109.514 134.742V136.152C109.514 138.159 111.141 139.786 113.148 139.786H143.862C145.869 139.786 147.497 138.159 147.497 136.152V134.742C147.497 132.735 145.869 131.108 143.862 131.108Z" fill="#FCA311"/>
<path d="M143.871 140.635H113.149C111.96 140.633 110.821 140.16 109.981 139.32C109.14 138.479 108.667 137.34 108.665 136.152V134.742C108.667 133.554 109.14 132.415 109.981 131.575C110.821 130.734 111.96 130.261 113.149 130.259H143.871C145.059 130.261 146.198 130.734 147.039 131.575C147.879 132.415 148.352 133.554 148.354 134.742V136.152C148.352 137.34 147.879 138.479 147.039 139.32C146.198 140.16 145.059 140.633 143.871 140.635ZM113.149 131.957C112.41 131.957 111.702 132.251 111.179 132.773C110.657 133.295 110.363 134.004 110.363 134.742V136.152C110.363 136.891 110.657 137.599 111.179 138.121C111.702 138.644 112.41 138.937 113.149 138.937H143.871C144.239 138.941 144.604 138.871 144.945 138.733C145.285 138.594 145.595 138.389 145.857 138.13C146.118 137.872 146.326 137.563 146.467 137.224C146.609 136.884 146.682 136.52 146.682 136.152V134.742C146.682 134.004 146.388 133.295 145.866 132.773C145.343 132.251 144.635 131.957 143.896 131.957H113.149Z" fill="#14213D"/>
<path d="M143.862 122.43H113.148C111.141 122.43 109.514 124.057 109.514 126.064V127.474C109.514 129.481 111.141 131.108 113.148 131.108H143.862C145.869 131.108 147.497 129.481 147.497 127.474V126.064C147.497 124.057 145.869 122.43 143.862 122.43Z" fill="#FCA311"/>
<path d="M143.871 131.957H113.149C111.96 131.955 110.821 131.482 109.981 130.642C109.14 129.801 108.667 128.662 108.665 127.474V126.064C108.667 124.876 109.14 123.737 109.981 122.896C110.821 122.056 111.96 121.583 113.149 121.581H143.871C145.059 121.583 146.198 122.056 147.039 122.896C147.879 123.737 148.352 124.876 148.354 126.064V127.474C148.352 128.662 147.879 129.801 147.039 130.642C146.198 131.482 145.059 131.955 143.871 131.957ZM113.149 123.279C112.41 123.279 111.702 123.572 111.179 124.095C110.657 124.617 110.363 125.325 110.363 126.064V127.474C110.363 128.212 110.657 128.921 111.179 129.443C111.702 129.965 112.41 130.259 113.149 130.259H143.871C144.61 130.259 145.318 129.965 145.84 129.443C146.363 128.921 146.656 128.212 146.656 127.474V126.064C146.656 125.325 146.363 124.617 145.84 124.095C145.318 123.572 144.61 123.279 143.871 123.279H113.149Z" fill="#14213D"/>
<path d="M120.613 120.57C120.413 120.574 120.218 120.507 120.063 120.381C119.907 120.255 119.801 120.079 119.763 119.882L112.223 79.9722C112.188 79.7971 112.209 79.6154 112.283 79.4529C112.357 79.2903 112.48 79.1552 112.635 79.0668C112.79 78.9784 112.969 78.9412 113.147 78.9604C113.324 78.9797 113.491 79.0544 113.624 79.174L123.186 87.6655L128.849 78.0786C128.926 77.9479 129.037 77.8402 129.17 77.7669C129.303 77.6935 129.453 77.6571 129.605 77.6614C129.757 77.6658 129.904 77.7107 130.033 77.7915C130.161 77.8724 130.266 77.9862 130.335 78.1211L135.345 87.8778L143.642 79.2929C143.767 79.162 143.93 79.0746 144.109 79.0434C144.287 79.0121 144.471 79.0388 144.633 79.1194C144.795 79.2 144.928 79.3304 145.01 79.4915C145.093 79.6525 145.122 79.8359 145.094 80.0147L138.64 119.857C138.622 119.968 138.583 120.075 138.523 120.171C138.464 120.268 138.387 120.351 138.295 120.417C138.204 120.484 138.1 120.531 137.99 120.557C137.88 120.584 137.767 120.588 137.655 120.57C137.544 120.552 137.437 120.513 137.34 120.453C137.244 120.394 137.161 120.317 137.094 120.225C137.028 120.134 136.981 120.03 136.954 119.92C136.928 119.811 136.924 119.697 136.942 119.585L142.962 82.4178L135.719 89.9158C135.625 90.013 135.509 90.0864 135.381 90.1299C135.253 90.1734 135.117 90.1857 134.983 90.1658C134.849 90.1458 134.722 90.0943 134.612 90.0153C134.503 89.9364 134.413 89.8324 134.352 89.712L129.512 80.2694L124.145 89.3723C124.081 89.4807 123.994 89.5735 123.889 89.644C123.785 89.7145 123.667 89.7609 123.542 89.7799C123.418 89.7995 123.292 89.7914 123.171 89.7561C123.051 89.7209 122.94 89.6594 122.846 89.5761L114.354 82.0696L121.428 119.568C121.467 119.789 121.418 120.016 121.291 120.201C121.164 120.385 120.969 120.512 120.748 120.553C120.704 120.565 120.658 120.571 120.613 120.57Z" fill="white"/>
<path d="M138.547 170.891C138.376 170.89 138.209 170.838 138.068 170.741C137.927 170.644 137.819 170.507 137.757 170.347L133.223 158.57C133.173 158.464 133.145 158.349 133.141 158.233C133.137 158.116 133.158 158 133.201 157.891C133.244 157.783 133.309 157.684 133.392 157.602C133.475 157.52 133.574 157.456 133.683 157.413C133.792 157.371 133.909 157.352 134.025 157.357C134.142 157.362 134.256 157.391 134.361 157.442C134.466 157.493 134.56 157.565 134.636 157.654C134.711 157.743 134.768 157.846 134.802 157.958L139.345 169.71C139.426 169.92 139.42 170.153 139.329 170.358C139.238 170.563 139.07 170.724 138.861 170.806C138.763 170.854 138.656 170.883 138.547 170.891Z" fill="#14213D"/>
<path d="M118.311 169.897C118.219 169.9 118.127 169.885 118.04 169.855C117.934 169.819 117.836 169.763 117.751 169.69C117.667 169.616 117.598 169.527 117.548 169.427C117.498 169.327 117.469 169.217 117.462 169.106C117.454 168.994 117.469 168.882 117.505 168.776L120.706 159.342C120.736 159.23 120.788 159.125 120.861 159.033C120.933 158.942 121.023 158.867 121.125 158.811C121.228 158.756 121.341 158.723 121.456 158.713C121.572 158.704 121.689 158.718 121.799 158.755C121.91 158.793 122.011 158.852 122.097 158.93C122.183 159.008 122.253 159.103 122.301 159.209C122.349 159.315 122.374 159.43 122.376 159.547C122.378 159.663 122.356 159.778 122.311 159.886L119.118 169.32C119.061 169.488 118.953 169.635 118.808 169.739C118.663 169.842 118.489 169.898 118.311 169.897Z" fill="#14213D"/>
<path d="M130.743 180.18C130.531 180.181 130.325 180.102 130.168 179.959C130.011 179.816 129.913 179.619 129.894 179.408L128.077 158.366C128.058 158.142 128.129 157.919 128.274 157.747C128.418 157.576 128.626 157.468 128.849 157.449C129.073 157.43 129.296 157.501 129.468 157.645C129.64 157.79 129.747 157.997 129.767 158.221L131.584 179.255C131.594 179.366 131.583 179.479 131.549 179.586C131.516 179.693 131.462 179.793 131.39 179.879C131.318 179.965 131.23 180.036 131.131 180.087C131.031 180.139 130.923 180.171 130.811 180.18H130.743Z" fill="#14213D"/>
<path d="M76.2022 174.635C76.0558 174.635 75.912 174.597 75.7848 174.524C75.6575 174.452 75.5511 174.348 75.4759 174.222C75.4007 174.097 75.3593 173.954 75.3556 173.808C75.3519 173.661 75.3862 173.516 75.455 173.387C75.5739 173.158 78.4355 167.859 83.0973 167.511C86.1288 167.299 89.1263 169.15 91.9964 173.047C92.0629 173.137 92.111 173.239 92.138 173.347C92.165 173.456 92.1704 173.568 92.1538 173.679C92.1373 173.789 92.0991 173.895 92.0415 173.991C91.9839 174.087 91.908 174.17 91.8181 174.236C91.6375 174.368 91.4123 174.423 91.1913 174.39C90.9704 174.356 90.7715 174.237 90.6378 174.058C88.0903 170.661 85.6363 169.031 83.2332 169.201C79.4545 169.481 76.9325 174.134 76.907 174.185C76.8384 174.315 76.7374 174.424 76.6139 174.503C76.4904 174.582 76.3486 174.628 76.2022 174.635Z" fill="#14213D"/>
<path d="M160.31 177.31H160.166C159.946 177.273 159.75 177.15 159.619 176.969C159.489 176.788 159.435 176.563 159.47 176.342C159.47 176.257 160.998 167.978 171.409 169.218C171.634 169.245 171.839 169.36 171.979 169.539C172.12 169.717 172.183 169.944 172.156 170.169C172.129 170.394 172.014 170.599 171.835 170.74C171.657 170.88 171.43 170.943 171.205 170.916C162.425 169.872 161.194 176.368 161.143 176.64C161.102 176.83 160.997 177 160.845 177.122C160.694 177.244 160.505 177.311 160.31 177.31Z" fill="#14213D"/>
<path d="M64.0421 107.366C65.5522 107.366 66.7764 106.142 66.7764 104.631C66.7764 103.121 65.5522 101.897 64.0421 101.897C62.532 101.897 61.3078 103.121 61.3078 104.631C61.3078 106.142 62.532 107.366 64.0421 107.366Z" fill="#FF4040"/>
<path d="M64.0423 108.215C63.3336 108.215 62.6407 108.005 62.0515 107.611C61.4622 107.217 61.0029 106.658 60.7317 106.003C60.4604 105.348 60.3895 104.628 60.5277 103.932C60.666 103.237 61.0073 102.599 61.5084 102.098C62.0096 101.597 62.6481 101.255 63.3432 101.117C64.0383 100.979 64.7588 101.05 65.4136 101.321C66.0684 101.592 66.628 102.051 67.0218 102.641C67.4155 103.23 67.6257 103.923 67.6257 104.632C67.6257 105.582 67.2482 106.493 66.5762 107.165C65.9041 107.837 64.9927 108.215 64.0423 108.215ZM64.0423 102.746C63.6695 102.746 63.305 102.857 62.995 103.064C62.685 103.271 62.4434 103.566 62.3007 103.91C62.158 104.255 62.1207 104.634 62.1934 104.999C62.2661 105.365 62.4457 105.701 62.7093 105.964C62.973 106.228 63.3089 106.408 63.6745 106.48C64.0402 106.553 64.4192 106.516 64.7637 106.373C65.1082 106.23 65.4026 105.989 65.6097 105.679C65.8168 105.369 65.9274 105.004 65.9274 104.632C65.9285 104.384 65.8805 104.138 65.7862 103.909C65.6919 103.68 65.5531 103.471 65.3778 103.296C65.2025 103.121 64.9942 102.982 64.765 102.888C64.5358 102.793 64.2902 102.745 64.0423 102.746Z" fill="#14213D"/>
<path d="M72.1431 107.366C73.6532 107.366 74.8774 106.142 74.8774 104.631C74.8774 103.121 73.6532 101.897 72.1431 101.897C70.633 101.897 69.4088 103.121 69.4088 104.631C69.4088 106.142 70.633 107.366 72.1431 107.366Z" fill="#FCA311"/>
<path d="M72.1431 108.215C71.4348 108.213 70.7428 108.002 70.1546 107.607C69.5664 107.212 69.1085 106.652 68.8386 105.997C68.5686 105.342 68.4989 104.622 68.6381 103.927C68.7773 103.233 69.1193 102.595 69.6208 102.095C70.1223 101.594 70.7608 101.254 71.4557 101.116C72.1505 100.979 72.8706 101.05 73.5249 101.322C74.1792 101.593 74.7383 102.052 75.1317 102.642C75.5251 103.231 75.735 103.923 75.735 104.632C75.7328 105.583 75.3534 106.494 74.68 107.166C74.0066 107.838 73.0943 108.215 72.1431 108.215ZM72.1431 102.746C71.7707 102.748 71.407 102.86 71.0981 103.068C70.7893 103.276 70.549 103.571 70.4076 103.916C70.2662 104.261 70.2301 104.639 70.3038 105.004C70.3775 105.37 70.5577 105.705 70.8217 105.967C71.0856 106.23 71.4215 106.409 71.787 106.481C72.1524 106.553 72.531 106.515 72.875 106.372C73.2189 106.229 73.5129 105.988 73.7196 105.678C73.9264 105.368 74.0367 105.004 74.0367 104.632C74.0367 104.383 73.9877 104.137 73.8924 103.908C73.7972 103.679 73.6576 103.471 73.4816 103.296C73.3057 103.12 73.0968 102.982 72.8672 102.887C72.6375 102.793 72.3914 102.745 72.1431 102.746Z" fill="#14213D"/>
<path d="M80.2524 107.366C81.7625 107.366 82.9867 106.142 82.9867 104.631C82.9867 103.121 81.7625 101.897 80.2524 101.897C78.7423 101.897 77.5182 103.121 77.5182 104.631C77.5182 106.142 78.7423 107.366 80.2524 107.366Z" fill="#1199FC"/>
<path d="M80.2525 108.215C79.5437 108.215 78.8509 108.005 78.2616 107.611C77.6724 107.217 77.2131 106.658 76.9418 106.003C76.6706 105.348 76.5997 104.628 76.7379 103.932C76.8762 103.237 77.2175 102.599 77.7186 102.098C78.2198 101.597 78.8583 101.255 79.5534 101.117C80.2485 100.979 80.969 101.05 81.6238 101.321C82.2786 101.592 82.8382 102.051 83.232 102.641C83.6257 103.23 83.8359 103.923 83.8359 104.632C83.8359 105.582 83.4584 106.493 82.7863 107.165C82.1143 107.837 81.2029 108.215 80.2525 108.215ZM80.2525 102.746C79.8796 102.746 79.5152 102.857 79.2052 103.064C78.8952 103.271 78.6535 103.566 78.5109 103.91C78.3682 104.255 78.3308 104.634 78.4036 104.999C78.4763 105.365 78.6559 105.701 78.9195 105.964C79.1831 106.228 79.519 106.408 79.8847 106.48C80.2504 106.553 80.6294 106.516 80.9739 106.373C81.3183 106.23 81.6127 105.989 81.8199 105.679C82.027 105.369 82.1376 105.004 82.1376 104.632C82.1376 104.132 81.939 103.652 81.5855 103.299C81.2319 102.945 80.7524 102.746 80.2525 102.746Z" fill="#14213D"/>
</svg>
