<svg width="160" height="160" viewBox="0 0 160 160" fill="none" xmlns="http://www.w3.org/2000/svg">
<path d="M118.136 17.7872H51.72C46.4286 17.7872 42.1391 22.0676 42.1391 27.3478V132.659C42.1391 137.94 46.4286 142.22 51.72 142.22H118.136C123.427 142.22 127.717 137.94 127.717 132.659V27.3478C127.717 22.0676 123.427 17.7872 118.136 17.7872Z" fill="#FCA311"/>
<path d="M118.143 142.933H51.7196C48.989 142.931 46.3706 141.849 44.4391 139.922C42.5076 137.996 41.4206 135.384 41.4168 132.659V27.3406C41.4206 24.6157 42.5076 22.0036 44.4391 20.0775C46.3706 18.1514 48.989 17.0686 51.7196 17.0667H118.143C119.498 17.0638 120.84 17.3273 122.093 17.8421C123.346 18.3569 124.485 19.1129 125.445 20.0669C126.405 21.0209 127.167 22.1543 127.688 23.4023C128.209 24.6503 128.479 25.9886 128.482 27.3406V132.659C128.479 134.011 128.209 135.35 127.688 136.598C127.167 137.846 126.405 138.979 125.445 139.933C124.485 140.887 123.346 141.643 122.093 142.158C120.84 142.673 119.498 142.936 118.143 142.933ZM51.7196 18.5076C49.372 18.5095 47.1209 19.4405 45.4601 21.0964C43.7994 22.7523 42.8646 24.9979 42.8608 27.3406V132.659C42.8646 135.002 43.7994 137.248 45.4601 138.904C47.1209 140.559 49.372 141.49 51.7196 141.492H118.143C119.308 141.496 120.463 141.271 121.541 140.829C122.619 140.387 123.6 139.737 124.426 138.916C125.252 138.096 125.908 137.121 126.356 136.047C126.804 134.974 127.036 133.822 127.038 132.659V27.3406C127.034 24.9979 126.099 22.7523 124.439 21.0964C122.778 19.4405 120.527 18.5095 118.179 18.5076H51.7196Z" fill="#14213D"/>
<path d="M127.717 28.3493H42.1391V128.164H127.717V28.3493Z" fill="white"/>
<path d="M127.76 128.891H42.1388C41.9473 128.891 41.7637 128.815 41.6283 128.68C41.4929 128.545 41.4168 128.362 41.4168 128.171V28.3493C41.4168 28.1582 41.4929 27.9749 41.6283 27.8398C41.7637 27.7047 41.9473 27.6288 42.1388 27.6288H127.76C127.951 27.6288 128.135 27.7047 128.27 27.8398C128.406 27.9749 128.482 28.1582 128.482 28.3493V128.171C128.482 128.362 128.406 128.545 128.27 128.68C128.135 128.815 127.951 128.891 127.76 128.891ZM42.8969 127.45H127.038V29.0697H42.8608L42.8969 127.45Z" fill="#14213D"/>
<path d="M113.898 41.6924H30.7818C28.9077 41.6924 27.3885 43.2085 27.3885 45.0787V106.333C27.3885 108.203 28.9077 109.719 30.7818 109.719H113.898C115.772 109.719 117.291 108.203 117.291 106.333V45.0787C117.291 43.2085 115.772 41.6924 113.898 41.6924Z" fill="white"/>
<path d="M113.905 110.44H30.782C29.6911 110.438 28.6455 110.005 27.8741 109.235C27.1028 108.465 26.6686 107.422 26.6667 106.333V45.0931C26.6686 44.0045 27.1028 42.9611 27.8741 42.1913C28.6455 41.4216 29.6911 40.9883 30.782 40.9864H113.905C114.996 40.9883 116.041 41.4216 116.813 42.1913C117.584 42.9611 118.018 44.0045 118.02 45.0931V106.333C118.018 107.422 117.584 108.465 116.813 109.235C116.041 110.005 114.996 110.438 113.905 110.44ZM30.782 42.4129C30.0735 42.4129 29.394 42.6938 28.8931 43.1937C28.3921 43.6936 28.1106 44.3717 28.1106 45.0787V106.319C28.1106 107.026 28.3921 107.704 28.8931 108.204C29.394 108.704 30.0735 108.985 30.782 108.985H113.905C114.613 108.985 115.293 108.704 115.794 108.204C116.295 107.704 116.576 107.026 116.576 106.319V45.0787C116.576 44.3717 116.295 43.6936 115.794 43.1937C115.293 42.6938 114.613 42.4129 113.905 42.4129H30.782Z" fill="#14213D"/>
<path d="M66.1596 63.5804C65.9917 63.5841 65.8278 63.5293 65.696 63.4254C65.5642 63.3216 65.4729 63.1751 65.4376 63.0112L63.8853 55.8641C63.4815 53.801 63.9042 51.6621 65.0627 49.9064C66.2212 48.1506 68.0232 46.918 70.082 46.473C72.1408 46.028 74.2924 46.406 76.0751 47.5259C77.8579 48.6459 79.1296 50.4185 79.6176 52.4635C79.6375 52.5581 79.6385 52.6557 79.6206 52.7507C79.6027 52.8457 79.5663 52.9363 79.5133 53.0173C79.4603 53.0982 79.3919 53.168 79.3119 53.2225C79.232 53.2771 79.142 53.3154 79.0472 53.3353C78.9524 53.3551 78.8546 53.3562 78.7593 53.3383C78.6641 53.3205 78.5734 53.2841 78.4922 53.2312C78.4111 53.1784 78.3412 53.1101 78.2866 53.0303C78.2319 52.9505 78.1935 52.8607 78.1736 52.7661C77.8963 51.4934 77.247 50.3314 76.3078 49.4269C75.3687 48.5225 74.1819 47.9162 72.8975 47.6849C71.613 47.4535 70.2887 47.6074 69.092 48.1272C67.8952 48.6469 66.8798 49.5091 66.1741 50.6047C65.7007 51.3308 65.3771 52.1438 65.2222 52.9961C65.0672 53.8484 65.084 54.723 65.2716 55.5687L66.8239 62.7158C66.8624 62.9021 66.8256 63.0959 66.7214 63.2552C66.6173 63.4145 66.4543 63.5262 66.2679 63.566C66.2324 63.5744 66.1961 63.5792 66.1596 63.5804Z" fill="#14213D"/>
<path d="M61.9938 61.4767H82.8233V73.0042C82.8233 73.8728 82.6519 74.7328 82.3188 75.5353C81.9857 76.3377 81.4975 77.0668 80.882 77.681C80.2666 78.2951 79.5359 78.7823 78.7318 79.1147C77.9276 79.4471 77.0658 79.6182 76.1954 79.6182H68.6145C67.7441 79.6182 66.8822 79.4471 66.0781 79.1147C65.274 78.7823 64.5433 78.2951 63.9278 77.681C63.3124 77.0668 62.8242 76.3377 62.4911 75.5353C62.158 74.7328 61.9866 73.8728 61.9866 73.0042V61.4767H61.9938Z" fill="#FCA311"/>
<path d="M76.2026 80.3314H68.6216C66.6735 80.3276 64.8062 79.5536 63.4287 78.179C62.0512 76.8043 61.2756 74.941 61.2718 72.997V61.4694C61.2718 61.2783 61.3478 61.0951 61.4832 60.96C61.6186 60.8248 61.8023 60.7489 61.9938 60.7489H82.8304C83.0219 60.7489 83.2056 60.8248 83.341 60.96C83.4764 61.0951 83.5524 61.2783 83.5524 61.4694V72.997C83.5486 74.941 82.773 76.8043 81.3955 78.179C80.0179 79.5536 78.1507 80.3276 76.2026 80.3314ZM62.7157 62.1971V73.0042C62.7177 74.5666 63.3405 76.0646 64.4476 77.1694C65.5548 78.2742 67.0559 78.8957 68.6216 78.8976H76.2026C77.7683 78.8957 79.2694 78.2742 80.3765 77.1694C81.4837 76.0646 82.1065 74.5666 82.1085 73.0042V62.1971H62.7157Z" fill="#14213D"/>
<path d="M72.5345 69.8918C73.7147 69.8918 74.6715 68.937 74.6715 67.7592C74.6715 66.5814 73.7147 65.6266 72.5345 65.6266C71.3543 65.6266 70.3976 66.5814 70.3976 67.7592C70.3976 68.937 71.3543 69.8918 72.5345 69.8918Z" fill="#14213D"/>
<path d="M72.5345 70.6338C71.9633 70.6338 71.405 70.4648 70.9301 70.1481C70.4552 69.8315 70.0851 69.3814 69.8666 68.8548C69.648 68.3282 69.5908 67.7487 69.7022 67.1897C69.8136 66.6307 70.0887 66.1172 70.4925 65.7141C70.8964 65.3111 71.4109 65.0366 71.9711 64.9254C72.5313 64.8142 73.1119 64.8713 73.6396 65.0894C74.1672 65.3076 74.6182 65.6769 74.9355 66.1509C75.2529 66.6248 75.4222 67.182 75.4222 67.7519C75.4222 68.5163 75.118 69.2493 74.5764 69.7897C74.0349 70.3302 73.3003 70.6338 72.5345 70.6338ZM72.5345 66.3758C72.2489 66.3758 71.9697 66.4604 71.7323 66.6187C71.4949 66.777 71.3098 67.0021 71.2005 67.2654C71.0912 67.5287 71.0626 67.8184 71.1183 68.0979C71.1741 68.3774 71.3116 68.6342 71.5135 68.8357C71.7154 69.0372 71.9727 69.1744 72.2528 69.23C72.5329 69.2856 72.8232 69.2571 73.087 69.148C73.3508 69.039 73.5764 68.8543 73.735 68.6173C73.8937 68.3804 73.9783 68.1018 73.9783 67.8168C73.9822 67.6251 73.9477 67.4347 73.8768 67.2565C73.806 67.0783 73.7003 66.9161 73.5658 66.7792C73.4313 66.6423 73.2709 66.5336 73.0938 66.4594C72.9167 66.3852 72.7265 66.347 72.5345 66.347V66.3758Z" fill="#14213D"/>
<path d="M72.5351 75.6772C72.3436 75.6772 72.16 75.6012 72.0246 75.4661C71.8892 75.331 71.8132 75.1478 71.8132 74.9567V68.5661C71.8132 68.375 71.8892 68.1917 72.0246 68.0566C72.16 67.9215 72.3436 67.8456 72.5351 67.8456C72.7266 67.8456 72.9102 67.9215 73.0456 68.0566C73.181 68.1917 73.257 68.375 73.257 68.5661V74.9567C73.257 75.1478 73.181 75.331 73.0456 75.4661C72.9102 75.6012 72.7266 75.6772 72.5351 75.6772Z" fill="#14213D"/>
<path d="M122.706 60.3239C124.597 60.4316 126.432 61.0014 128.05 61.9832C129.668 62.9651 131.019 64.3287 131.985 65.9542C132.95 67.5798 133.501 69.4172 133.587 71.3049C133.674 73.1926 133.294 75.0726 132.482 76.7795C131.486 78.9108 129.848 80.6783 127.796 81.8345C125.744 82.9908 123.381 83.4779 121.038 83.2277C119.035 83.0748 117.11 82.3841 115.468 81.2286C113.826 80.0732 112.527 78.496 111.71 76.6642C111.537 76.3112 111.335 76.1094 110.93 76.1671C109.342 76.3589 107.737 75.9727 106.411 75.0792L106.324 75.0287C106.216 74.9553 106.086 74.9197 105.956 74.9275C105.825 74.9353 105.701 74.9861 105.602 75.072C104.88 75.5547 104.158 75.9942 103.501 76.5129C103.367 76.6385 103.19 76.7085 103.006 76.7085C102.823 76.7085 102.646 76.6385 102.512 76.5129C101.855 76.0374 101.162 75.6195 100.498 75.1584C100.396 75.074 100.269 75.0278 100.137 75.0278C100.005 75.0278 99.8768 75.074 99.7756 75.1584C99.0536 75.6483 98.3316 76.095 97.6096 76.5994C97.5504 76.6642 97.4766 76.7142 97.3943 76.7451C97.312 76.776 97.2235 76.787 97.1361 76.7771C97.0487 76.7673 96.9649 76.7369 96.8916 76.6885C96.8183 76.64 96.7575 76.5749 96.7143 76.4985C96.3461 76.0734 95.9129 75.6988 95.523 75.2881C95.4866 75.2352 95.4391 75.1909 95.3837 75.1583C95.3283 75.1258 95.2664 75.1057 95.2024 75.0995C95.1384 75.0933 95.0739 75.1012 95.0133 75.1226C94.9526 75.144 94.8975 75.1783 94.8516 75.2232C94.1873 75.6843 93.5014 76.1166 92.8372 76.5777C92.7315 76.6765 92.5921 76.7315 92.4473 76.7315C92.3025 76.7315 92.1631 76.6765 92.0575 76.5777C90.5557 75.4442 89.0467 74.3227 87.5306 73.2131C87.2057 72.9754 87.1696 72.8097 87.48 72.4927C88.8614 71.143 90.2236 69.7813 91.5665 68.4076C91.7169 68.2414 91.9025 68.1105 92.1098 68.0246C92.317 67.9386 92.5408 67.8996 92.765 67.9104C98.7142 67.9104 104.663 67.9104 110.613 67.9104C110.817 67.9334 111.023 67.8849 111.195 67.7732C111.368 67.6616 111.496 67.4936 111.558 67.298C113.616 62.8023 117.197 60.5472 122.092 60.2734L122.706 60.3239ZM123.067 68.0185C122.556 67.9962 122.045 68.0775 121.567 68.2573C121.088 68.4372 120.65 68.712 120.281 69.0651C119.911 69.4182 119.617 69.8423 119.416 70.3119C119.215 70.7814 119.111 71.2868 119.111 71.7974C119.111 72.308 119.215 72.8134 119.416 73.2829C119.617 73.7525 119.911 74.1767 120.281 74.5298C120.65 74.8828 121.088 75.1576 121.567 75.3375C122.045 75.5173 122.556 75.5986 123.067 75.5763C124.043 75.5338 124.964 75.117 125.64 74.413C126.315 73.709 126.692 72.772 126.692 71.7974C126.692 70.8228 126.315 69.8858 125.64 69.1818C124.964 68.4778 124.043 68.061 123.067 68.0185Z" fill="#FCA311"/>
<path d="M122.186 84.013C121.769 84.0128 121.352 83.9911 120.937 83.9482C118.81 83.7858 116.767 83.0526 115.023 81.8261C113.279 80.5997 111.9 78.9257 111.032 76.9812C111.032 76.938 110.996 76.902 110.981 76.8803C109.228 77.0901 107.458 76.6657 105.992 75.6844C105.638 75.9293 105.328 76.1311 105.017 76.3328C104.707 76.5345 104.295 76.8299 103.906 77.0893C103.646 77.3049 103.319 77.423 102.981 77.423C102.644 77.423 102.317 77.3049 102.057 77.0893C101.703 76.8299 101.335 76.585 100.96 76.3688L100.108 75.7996C99.7902 76.023 99.4942 76.2103 99.2054 76.4048C98.8083 76.6642 98.4112 76.9236 98.0213 77.2045C97.889 77.3213 97.7336 77.409 97.5652 77.4621C97.3967 77.5152 97.219 77.5324 97.0435 77.5128C96.868 77.4931 96.6985 77.4369 96.5461 77.3478C96.3937 77.2587 96.2617 77.1388 96.1586 76.9956C95.9564 76.7723 95.7398 76.5561 95.5232 76.3472L95.1117 75.9365C94.8012 76.1455 94.5124 76.34 94.2164 76.5273C93.9204 76.7146 93.5594 76.9668 93.2345 77.1901C93.0046 77.3787 92.7163 77.4817 92.4187 77.4817C92.1211 77.4817 91.8327 77.3787 91.6028 77.1901C90.1107 76.0614 88.6066 74.9423 87.0904 73.8327C86.9392 73.7389 86.8108 73.6126 86.7146 73.4631C86.6185 73.3135 86.5569 73.1445 86.5344 72.9682C86.5296 72.79 86.5654 72.6131 86.6392 72.4509C86.713 72.2886 86.8229 72.1452 86.9604 72.0316C88.4622 70.5906 89.7978 69.2289 91.0397 67.9609C91.2561 67.7269 91.52 67.5416 91.8138 67.4173C92.1076 67.2931 92.4246 67.2328 92.7436 67.2404H101.328H110.606C110.666 67.2491 110.726 67.2491 110.786 67.2404C110.83 67.1918 110.864 67.1356 110.887 67.0747C113.017 62.4205 116.771 59.9204 122.042 59.625C122.071 59.6214 122.1 59.6214 122.129 59.625H122.36H122.742C124.495 59.6689 126.214 60.1101 127.77 60.9152C129.326 61.7203 130.678 62.8683 131.724 64.2721C133.181 66.0473 134.088 68.2082 134.333 70.4899C134.578 72.7717 134.15 75.0752 133.103 77.1181C132.128 79.1835 130.583 80.9289 128.65 82.15C126.716 83.3711 124.474 84.0173 122.186 84.013ZM111.032 75.4322C111.314 75.441 111.588 75.5324 111.819 75.695C112.05 75.8577 112.228 76.0845 112.331 76.3472C113.097 78.0672 114.314 79.5486 115.855 80.6343C117.395 81.72 119.201 82.3697 121.082 82.5144C123.275 82.7457 125.486 82.2883 127.407 81.2061C129.327 80.1238 130.862 78.4706 131.796 76.4769C132.732 74.6732 133.113 72.6337 132.891 70.6147C132.668 68.5958 131.853 66.6874 130.547 65.1294C129.621 63.8919 128.424 62.8809 127.048 62.1731C125.672 61.4654 124.153 61.0794 122.605 61.0444H122.194H122.013C117.277 61.3181 114.071 63.4796 112.129 67.6511C112.012 67.9716 111.794 68.2455 111.508 68.4314C111.221 68.6173 110.882 68.705 110.541 68.6814H101.27H92.7075C92.5819 68.6711 92.4556 68.6905 92.3389 68.7381C92.2223 68.7857 92.1185 68.86 92.036 68.9551C90.852 70.1727 89.5812 71.4408 88.1517 72.8385C89.5957 73.8856 91.0108 74.9399 92.397 76.0014C92.7508 75.7564 93.0685 75.5475 93.3861 75.3457L94.3897 74.6685C94.6256 74.4783 94.9273 74.389 95.229 74.42C95.5306 74.4511 95.8077 74.6 95.9998 74.8342L96.4979 75.3313C96.729 75.5547 96.96 75.7852 97.1766 76.0518C97.5665 75.7636 97.9708 75.5042 98.3751 75.2377L99.2848 74.6253C99.5084 74.4506 99.7842 74.3556 100.068 74.3556C100.352 74.3556 100.628 74.4506 100.852 74.6253L101.718 75.2016C102.108 75.461 102.505 75.7132 102.88 75.9942C102.88 75.9942 102.931 75.9942 102.938 76.0374L103.025 75.9797C103.407 75.706 103.797 75.4466 104.187 75.1872C104.577 74.9279 104.815 74.7766 105.126 74.5604C105.342 74.3896 105.607 74.2907 105.883 74.2778C106.159 74.2649 106.432 74.3385 106.664 74.4884L106.772 74.546C107.954 75.3555 109.393 75.7042 110.815 75.5258L111.032 75.4322ZM123.053 76.2968C121.839 76.2956 120.676 75.8136 119.818 74.9567C119.399 74.5435 119.067 74.0509 118.841 73.5077C118.615 72.9645 118.501 72.3818 118.504 71.7938C118.516 70.6051 118.995 69.4685 119.84 68.6299C120.684 67.7914 121.825 67.3181 123.017 67.3125C123.606 67.3061 124.19 67.4169 124.735 67.6383C125.281 67.8597 125.776 68.1874 126.193 68.6021C126.82 69.2325 127.246 70.0328 127.42 70.9033C127.594 71.7738 127.507 72.6761 127.171 73.4978C126.834 74.3195 126.263 75.0243 125.528 75.5246C124.794 76.0248 123.928 76.2984 123.038 76.3112L123.053 76.2968ZM123.053 68.739C122.242 68.7446 121.466 69.0681 120.892 69.6395C120.318 70.211 119.992 70.9847 119.984 71.7938C119.98 72.1957 120.056 72.5945 120.21 72.966C120.364 73.3375 120.592 73.674 120.88 73.9552C121.462 74.5426 122.254 74.8767 123.082 74.8846C123.483 74.8866 123.88 74.8087 124.25 74.6554C124.62 74.5021 124.956 74.2766 125.238 73.9921C125.52 73.7075 125.742 73.3697 125.891 72.9984C126.04 72.6271 126.114 72.2298 126.107 71.8298C126.109 71.0204 125.79 70.243 125.219 69.6684C124.934 69.3871 124.595 69.1652 124.223 69.0155C123.852 68.8659 123.454 68.7915 123.053 68.7966V68.739Z" fill="#14213D"/>
<path d="M99.7756 103.711H44.9042C43.0697 103.707 41.3115 102.978 40.015 101.682C38.7185 100.387 37.9894 98.6321 37.9875 96.8014V91.369C37.9894 89.5384 38.7185 87.7832 40.015 86.4881C41.3115 85.1929 43.0697 84.4635 44.9042 84.4597H99.7756C101.61 84.4635 103.368 85.1929 104.665 86.4881C105.961 87.7832 106.69 89.5384 106.692 91.369V96.8014C106.69 98.6321 105.961 100.387 104.665 101.682C103.368 102.978 101.61 103.707 99.7756 103.711ZM44.9042 85.9007C43.4521 85.9026 42.0601 86.4795 41.0339 87.5049C40.0078 88.5302 39.4315 89.92 39.4315 91.369V96.8014C39.4334 98.2499 40.0103 99.6386 41.0361 100.664C42.0618 101.688 43.4526 102.266 44.9042 102.27H99.7756C101.227 102.266 102.618 101.688 103.644 100.664C104.669 99.6386 105.246 98.2499 105.248 96.8014V91.369C105.248 89.92 104.672 88.5302 103.646 87.5049C102.62 86.4795 101.228 85.9026 99.7756 85.9007H44.9042Z" fill="#96928E"/>
<path d="M49.4165 99.4527C49.225 99.4527 49.0414 99.3768 48.906 99.2417C48.7706 99.1066 48.6945 98.9233 48.6945 98.7323V89.4454C48.6945 89.2543 48.7706 89.071 48.906 88.9359C49.0414 88.8008 49.225 88.7249 49.4165 88.7249C49.608 88.7249 49.7916 88.8008 49.927 88.9359C50.0624 89.071 50.1384 89.2543 50.1384 89.4454V98.7323C50.1384 98.9233 50.0624 99.1066 49.927 99.2417C49.7916 99.3768 49.608 99.4527 49.4165 99.4527Z" fill="#14213D"/>
<path d="M45.3735 97.0824C45.2463 97.0829 45.1212 97.0498 45.0109 96.9866C44.9006 96.9233 44.809 96.8321 44.7454 96.7222C44.6979 96.6395 44.6674 96.5483 44.6555 96.4537C44.6436 96.3592 44.6506 96.2633 44.6761 96.1715C44.7016 96.0797 44.7452 95.9939 44.8041 95.919C44.8631 95.8441 44.9364 95.7816 45.0197 95.7351L53.106 91.1745C53.2736 91.079 53.4723 91.0538 53.6585 91.1044C53.8446 91.1551 54.003 91.2775 54.0988 91.4447C54.1945 91.6119 54.2198 91.8102 54.169 91.996C54.1182 92.1818 53.9956 92.3398 53.828 92.4353L45.7345 96.9887C45.6245 97.051 45.5 97.0833 45.3735 97.0824Z" fill="#14213D"/>
<path d="M53.4598 97.0824C53.3358 97.082 53.2139 97.0498 53.106 96.9887L45.0197 92.4354C44.9364 92.3889 44.8631 92.3264 44.8041 92.2515C44.7452 92.1766 44.7016 92.0908 44.6761 91.999C44.6506 91.9072 44.6436 91.8112 44.6555 91.7167C44.6674 91.6222 44.6979 91.531 44.7454 91.4483C44.8394 91.2823 44.9955 91.1602 45.1796 91.1089C45.3637 91.0576 45.5606 91.0812 45.7273 91.1745L53.8208 95.7351C53.9599 95.8138 54.0689 95.9363 54.1307 96.0834C54.1925 96.2305 54.2036 96.3939 54.1623 96.548C54.1211 96.7022 54.0297 96.8382 53.9025 96.935C53.7754 97.0317 53.6197 97.0835 53.4598 97.0824Z" fill="#14213D"/>
<path d="M64.701 99.4527C64.5095 99.4527 64.3259 99.3768 64.1905 99.2417C64.0551 99.1066 63.979 98.9233 63.979 98.7323V89.4454C63.979 89.2543 64.0551 89.071 64.1905 88.9359C64.3259 88.8008 64.5095 88.7249 64.701 88.7249C64.8924 88.7249 65.0761 88.8008 65.2115 88.9359C65.3468 89.071 65.4229 89.2543 65.4229 89.4454V98.7323C65.4229 98.9233 65.3468 99.1066 65.2115 99.2417C65.0761 99.3768 64.8924 99.4527 64.701 99.4527Z" fill="#14213D"/>
<path d="M60.658 97.0824C60.4982 97.0835 60.3425 97.0317 60.2153 96.935C60.0882 96.8383 59.9968 96.7022 59.9555 96.5481C59.9142 96.3939 59.9253 96.2305 59.9872 96.0834C60.049 95.9363 60.158 95.8138 60.297 95.7351L68.3906 91.1745C68.5581 91.079 68.7568 91.0538 68.943 91.1044C69.1292 91.1551 69.2876 91.2775 69.3833 91.4447C69.4791 91.6119 69.5043 91.8102 69.4535 91.996C69.4028 92.1818 69.2801 92.3398 69.1126 92.4353L61.0263 96.9888C60.9141 97.0522 60.787 97.0846 60.658 97.0824Z" fill="#14213D"/>
<path d="M68.7444 97.0824C68.6204 97.082 68.4985 97.0498 68.3906 96.9887L60.2971 92.4353C60.1296 92.3398 60.0069 92.1818 59.9561 91.996C59.9053 91.8102 59.9306 91.6119 60.0264 91.4447C60.1221 91.2775 60.2805 91.1551 60.4666 91.1044C60.6528 91.0538 60.8515 91.079 61.0191 91.1745L69.1054 95.7351C69.2439 95.8135 69.3526 95.9353 69.4146 96.0817C69.4765 96.2281 69.4882 96.3908 69.4478 96.5446C69.4075 96.6983 69.3173 96.8344 69.1914 96.9316C69.0655 97.0289 68.9109 97.0819 68.7516 97.0824H68.7444Z" fill="#14213D"/>
<path d="M79.9855 99.4527C79.794 99.4527 79.6104 99.3768 79.475 99.2417C79.3396 99.1066 79.2635 98.9233 79.2635 98.7323V89.4454C79.2635 89.2543 79.3396 89.071 79.475 88.9359C79.6104 88.8008 79.794 88.7249 79.9855 88.7249C80.177 88.7249 80.3606 88.8008 80.496 88.9359C80.6314 89.071 80.7074 89.2543 80.7074 89.4454V98.7323C80.7074 98.9233 80.6314 99.1066 80.496 99.2417C80.3606 99.3768 80.177 99.4527 79.9855 99.4527Z" fill="#14213D"/>
<path d="M75.9427 97.0824C75.8135 97.0835 75.6865 97.05 75.5747 96.9853C75.463 96.9207 75.3706 96.8273 75.3074 96.715C75.2138 96.5487 75.1902 96.3521 75.2416 96.1685C75.293 95.9848 75.4153 95.829 75.5817 95.7351L83.6752 91.1745C83.8428 91.079 84.0415 91.0538 84.2277 91.1044C84.4139 91.1551 84.5722 91.2775 84.668 91.4447C84.7637 91.6119 84.789 91.8102 84.7382 91.996C84.6874 92.1818 84.5648 92.3398 84.3972 92.4353L76.3109 96.9888C76.1988 97.0522 76.0716 97.0846 75.9427 97.0824Z" fill="#14213D"/>
<path d="M84.0289 97.0824C83.9048 97.082 83.783 97.0498 83.6751 96.9887L75.5816 92.4353C75.4986 92.388 75.4258 92.3249 75.3673 92.2495C75.3088 92.1741 75.2657 92.088 75.2406 91.996C75.2155 91.904 75.2087 91.808 75.2208 91.7134C75.2328 91.6188 75.2634 91.5275 75.3108 91.4447C75.3582 91.3619 75.4215 91.2892 75.4971 91.2309C75.5726 91.1725 75.6589 91.1295 75.7511 91.1044C75.8433 91.0794 75.9395 91.0726 76.0343 91.0847C76.1291 91.0967 76.2206 91.1272 76.3036 91.1745L84.3899 95.7351C84.5284 95.8135 84.6371 95.9353 84.6991 96.0817C84.761 96.2281 84.7727 96.3908 84.7323 96.5445C84.692 96.6983 84.6018 96.8344 84.4759 96.9316C84.35 97.0289 84.1953 97.0819 84.0361 97.0824H84.0289Z" fill="#14213D"/>
<path d="M95.2705 99.4527C95.079 99.4527 94.8954 99.3768 94.76 99.2417C94.6246 99.1066 94.5486 98.9233 94.5486 98.7323V89.4454C94.5486 89.2543 94.6246 89.071 94.76 88.9359C94.8954 88.8008 95.079 88.7249 95.2705 88.7249C95.4619 88.7249 95.6456 88.8008 95.781 88.9359C95.9163 89.071 95.9924 89.2543 95.9924 89.4454V98.7323C95.9924 98.9233 95.9163 99.1066 95.781 99.2417C95.6456 99.3768 95.4619 99.4527 95.2705 99.4527Z" fill="#14213D"/>
<path d="M91.2275 97.0824C91.0983 97.0835 90.9713 97.0499 90.8595 96.9853C90.7478 96.9207 90.6554 96.8273 90.5921 96.715C90.4986 96.5487 90.475 96.3521 90.5264 96.1685C90.5778 95.9848 90.7001 95.8289 90.8665 95.7351L98.96 91.1745C99.1267 91.0812 99.3236 91.0576 99.5077 91.1089C99.6918 91.1602 99.8479 91.2823 99.9419 91.4483C99.9894 91.531 100.02 91.6222 100.032 91.7167C100.044 91.8112 100.037 91.9072 100.011 91.999C99.9857 92.0908 99.9421 92.1766 99.8832 92.2515C99.8242 92.3264 99.7509 92.3889 99.6676 92.4354L91.5813 96.9887C91.4734 97.0498 91.3515 97.082 91.2275 97.0824Z" fill="#14213D"/>
<path d="M99.3137 97.0824C99.1897 97.082 99.0678 97.0498 98.9599 96.9888L90.8664 92.4353C90.6988 92.3398 90.5762 92.1818 90.5254 91.996C90.4746 91.8102 90.4999 91.6119 90.5956 91.4447C90.6914 91.2775 90.8497 91.1551 91.0359 91.1044C91.2221 91.0538 91.4208 91.079 91.5884 91.1745L99.6747 95.7351C99.8411 95.829 99.9634 95.9848 100.015 96.1685C100.066 96.3521 100.043 96.5487 99.949 96.715C99.8857 96.8273 99.7934 96.9207 99.6817 96.9853C99.5699 97.05 99.4428 97.0835 99.3137 97.0824Z" fill="#14213D"/>
<path d="M84.931 138.56C84.2071 138.56 83.4995 138.346 82.8975 137.944C82.2956 137.543 81.8265 136.973 81.5494 136.305C81.2724 135.638 81.1999 134.903 81.3411 134.195C81.4824 133.486 81.831 132.835 82.3429 132.324C82.8548 131.813 83.507 131.466 84.217 131.325C84.927 131.184 85.6629 131.256 86.3318 131.532C87.0006 131.809 87.5722 132.277 87.9744 132.878C88.3766 133.479 88.5913 134.185 88.5913 134.907C88.5894 135.875 88.2031 136.803 87.5171 137.488C86.8311 138.173 85.9012 138.558 84.931 138.56ZM84.931 132.703C84.4924 132.703 84.0636 132.832 83.699 133.076C83.3343 133.319 83.0503 133.665 82.8827 134.07C82.7152 134.474 82.6717 134.919 82.7578 135.349C82.8439 135.778 83.0557 136.172 83.3664 136.481C83.6771 136.79 84.0727 137 84.5031 137.085C84.9335 137.169 85.3794 137.124 85.7842 136.956C86.1891 136.787 86.5347 136.503 86.7774 136.138C87.0201 135.773 87.1488 135.345 87.1474 134.907C87.1455 134.322 86.9111 133.761 86.4957 133.348C86.0803 132.935 85.5176 132.703 84.931 132.703Z" fill="#14213D"/>
<path d="M92.7508 23.9111H81.5094C81.3179 23.9111 81.1342 23.8352 80.9988 23.7001C80.8635 23.565 80.7874 23.3817 80.7874 23.1907C80.7874 22.9996 80.8635 22.8163 80.9988 22.6812C81.1342 22.5461 81.3179 22.4702 81.5094 22.4702H92.7508C92.9423 22.4702 93.1259 22.5461 93.2613 22.6812C93.3967 22.8163 93.4728 22.9996 93.4728 23.1907C93.4728 23.3817 93.3967 23.565 93.2613 23.7001C93.1259 23.8352 92.9423 23.9111 92.7508 23.9111Z" fill="#14213D"/>
<path d="M78.8669 23.9111H77.1126C76.9211 23.9111 76.7375 23.8352 76.6021 23.7001C76.4667 23.565 76.3906 23.3817 76.3906 23.1907C76.3906 22.9996 76.4667 22.8163 76.6021 22.6812C76.7375 22.5461 76.9211 22.4702 77.1126 22.4702H78.8669C79.0584 22.4702 79.242 22.5461 79.3774 22.6812C79.5128 22.8163 79.5888 22.9996 79.5888 23.1907C79.5888 23.3817 79.5128 23.565 79.3774 23.7001C79.242 23.8352 79.0584 23.9111 78.8669 23.9111Z" fill="#14213D"/>
<path d="M56.9031 57.7085C56.7377 57.7092 56.5772 57.6533 56.4482 57.55L52.3332 54.243C52.259 54.1836 52.1974 54.1101 52.1518 54.0268C52.1062 53.9435 52.0775 53.852 52.0674 53.7576C52.0574 53.6632 52.0661 53.5677 52.0931 53.4767C52.1201 53.3857 52.1649 53.3009 52.2249 53.2272C52.3451 53.0798 52.5187 52.9858 52.708 52.9655C52.8973 52.9453 53.0869 53.0005 53.2356 53.1191L57.3507 56.4261C57.4254 56.485 57.4876 56.5581 57.5339 56.6412C57.5802 56.7242 57.6095 56.8156 57.6203 56.91C57.631 57.0045 57.6229 57.1001 57.5965 57.1914C57.57 57.2826 57.5257 57.3678 57.4662 57.442C57.3982 57.5255 57.3124 57.5929 57.2149 57.639C57.1175 57.6851 57.0109 57.7089 56.9031 57.7085Z" fill="#96928E"/>
<path d="M54.8384 62.1971C54.7856 62.2041 54.7322 62.2041 54.6795 62.1971L49.2578 61.0083C49.163 60.988 49.0731 60.9492 48.9933 60.8942C48.9135 60.8392 48.8454 60.769 48.7928 60.6878C48.7401 60.6065 48.7041 60.5156 48.6866 60.4204C48.6692 60.3253 48.6707 60.2276 48.6911 60.1329C48.7114 60.0383 48.7503 59.9486 48.8054 59.869C48.8605 59.7894 48.9308 59.7214 49.0123 59.6689C49.0937 59.6163 49.1847 59.5803 49.2801 59.5629C49.3755 59.5455 49.4734 59.547 49.5682 59.5674L54.99 60.7562C55.1814 60.7762 55.3571 60.8714 55.4782 61.0207C55.5994 61.17 55.6562 61.3612 55.6361 61.5523C55.616 61.7434 55.5206 61.9186 55.371 62.0396C55.2214 62.1605 55.0298 62.2172 54.8384 62.1971Z" fill="#96928E"/>
<path d="M50.1531 69.3154C49.9617 69.344 49.7666 69.2956 49.6109 69.1808C49.4552 69.0659 49.3516 68.894 49.3229 68.703C49.2942 68.5119 49.3427 68.3172 49.4578 68.1619C49.5729 68.0065 49.7451 67.9031 49.9365 67.8744L54.6291 66.4335C54.812 66.3772 55.0097 66.3957 55.179 66.4848C55.3482 66.574 55.475 66.7266 55.5315 66.909C55.5879 67.0915 55.5694 67.2888 55.4801 67.4577C55.3907 67.6266 55.2379 67.7531 55.0551 67.8096L50.3697 69.2505C50.3014 69.2834 50.2283 69.3052 50.1531 69.3154Z" fill="#96928E"/>
</svg>
