<svg width="160" height="160" viewBox="0 0 160 160" fill="none" xmlns="http://www.w3.org/2000/svg">
<path d="M113.758 64.5786L114.816 62.4824C114.816 62.4824 113.713 60.1845 114.602 58.6742C115.492 57.164 116.394 55.2176 117.439 55.7579C118.484 56.2982 118.939 56.513 118.939 56.513C119.032 56.1629 119.225 55.8479 119.495 55.6071C119.766 55.3664 120.1 55.2106 120.458 55.159C121.633 55.0874 128.424 58.1014 128.216 59.1299C127.567 62.1634 123.288 68.4649 120.484 70.4634L115.167 80.6055L108.227 73.6531L113.758 64.5786Z" fill="white"/>
<path d="M115.148 81.2564C114.977 81.254 114.813 81.1838 114.693 81.0611L107.747 74.1413C107.643 74.0382 107.577 73.9032 107.56 73.7579C107.542 73.6126 107.574 73.4656 107.65 73.3406L113.168 64.2921L114.077 62.4889C113.784 61.7467 113.168 59.8199 114.025 58.3682C114.142 58.1729 114.265 57.9646 114.382 57.7563C115.219 56.2851 116.264 54.4558 117.719 55.211L118.608 55.6602C118.791 55.3386 119.05 55.0674 119.363 54.8709C119.675 54.6744 120.032 54.5586 120.4 54.534C121.698 54.4689 127.34 56.9621 128.502 58.3096C128.631 58.4355 128.728 58.5902 128.785 58.7611C128.843 58.932 128.859 59.1142 128.833 59.2926C128.184 62.4173 123.899 68.7447 120.971 70.9255L115.706 80.9049C115.659 80.9964 115.591 81.0754 115.507 81.1354C115.424 81.1954 115.327 81.2346 115.226 81.2499L115.148 81.2564ZM109.026 73.5554L114.986 79.5183L119.887 70.1638C119.935 70.073 120.004 69.9949 120.088 69.936C122.737 68.0482 126.84 62.0722 127.528 59.1363C126.879 58.212 121.536 55.8034 120.504 55.8034C119.822 55.8489 119.582 56.6561 119.575 56.6887C119.55 56.7802 119.506 56.8651 119.444 56.9375C119.383 57.0098 119.307 57.0679 119.221 57.1076C119.135 57.1473 119.041 57.1676 118.947 57.1672C118.852 57.1668 118.759 57.1457 118.673 57.1053C118.673 57.1053 118.212 56.8905 117.147 56.3372C116.797 56.1549 115.946 57.6391 115.537 58.3747C115.414 58.5895 115.291 58.8044 115.167 59.0257C114.583 60.0152 115.167 61.6686 115.407 62.222C115.451 62.3111 115.474 62.4091 115.474 62.5084C115.474 62.6077 115.451 62.7057 115.407 62.7948L114.349 64.8975V64.9365L109.026 73.5554Z" fill="#14213D"/>
<path d="M33.4917 64.5785L32.4335 62.4824C32.4335 62.4824 33.5372 60.1845 32.6478 58.6742C31.7584 57.164 30.856 55.2175 29.8108 55.7579C28.7656 56.2982 28.3111 56.513 28.3111 56.513C28.2181 56.1628 28.0245 55.8478 27.7545 55.6071C27.4844 55.3664 27.1497 55.2105 26.792 55.159C25.617 55.0874 19.0406 58.4659 19.2549 59.501C19.9041 62.528 23.9615 68.4649 26.7661 70.4633L32.083 80.6055L39.0229 73.6531L33.4917 64.5785Z" fill="white"/>
<path d="M32.0828 81.2563H31.9595C31.8579 81.2411 31.7614 81.2018 31.6779 81.1418C31.5944 81.0819 31.5262 81.0029 31.4791 80.9113L26.2596 70.8863C23.2927 68.6861 19.2612 62.7557 18.6185 59.618C18.5982 59.4257 18.6209 59.2313 18.6849 59.0488C18.7489 58.8664 18.8527 58.7006 18.9886 58.5634C20.2026 57.1508 25.4805 54.4362 26.8309 54.4948C27.1991 54.5195 27.5554 54.6353 27.8681 54.8318C28.1808 55.0283 28.44 55.2995 28.6226 55.621L29.512 55.1718C30.9662 54.4167 32.0114 56.2459 32.8489 57.7171C32.9657 57.9255 33.0891 58.1338 33.2059 58.3291C34.0629 59.7807 33.4461 61.7076 33.154 62.4497L34.0629 64.2529L39.581 73.3015C39.6569 73.4265 39.6886 73.5735 39.6709 73.7188C39.6533 73.864 39.5873 73.9991 39.4837 74.1022L32.5373 81.048C32.479 81.1111 32.4088 81.162 32.3308 81.1978C32.2528 81.2335 32.1686 81.2534 32.0828 81.2563ZM19.9169 59.4878C20.5661 62.3651 24.5067 68.0546 27.1425 69.9034C27.2266 69.9623 27.2955 70.0404 27.3437 70.1312L32.2451 79.4857L38.2047 73.5228L32.9398 64.8844V64.8453L31.8816 62.7427C31.838 62.6535 31.8154 62.5555 31.8154 62.4562C31.8154 62.3569 31.838 62.259 31.8816 62.1698C32.1478 61.6165 32.7061 59.963 32.1218 58.9735C31.9984 58.7717 31.8751 58.5569 31.7518 58.3226C31.3428 57.6 30.4923 56.1092 30.1417 56.285C29.0771 56.8383 28.6161 57.0532 28.6161 57.0532C28.5298 57.0938 28.4356 57.1149 28.3402 57.1149C28.2449 57.1149 28.1507 57.0938 28.0643 57.0532C27.9786 57.0126 27.9028 56.9536 27.8423 56.8805C27.7817 56.8074 27.7379 56.7219 27.7138 56.63C27.7138 56.63 27.4671 55.7968 26.7854 55.7512C25.513 55.8033 20.4752 58.6676 19.9169 59.4878Z" fill="#14213D"/>
<path d="M121.159 73.1844C121.159 73.1844 104.734 102.309 88.6994 114.638V139.082H57.8107V114.066C42.0028 101.424 26.0715 73.1844 26.0715 73.1844L34.7513 66.6356C44.3009 81.7512 56.5577 95.2264 61.4462 100.382H85.7845C90.6729 95.2264 102.923 81.7512 112.479 66.6356L121.159 73.1844Z" fill="#FCA311"/>
<path d="M88.6866 139.733H57.8109C57.6387 139.733 57.4736 139.665 57.3518 139.543C57.2301 139.421 57.1617 139.255 57.1617 139.082V114.378C41.5161 101.71 25.6628 73.7833 25.5069 73.5034C25.4297 73.3659 25.4049 73.205 25.4371 73.0505C25.4694 72.896 25.5565 72.7585 25.6822 72.6636L34.362 66.1149C34.4338 66.0614 34.5158 66.0234 34.6029 66.0032C34.6901 65.9831 34.7804 65.9812 34.8683 65.9977C34.956 66.0144 35.0393 66.049 35.113 66.0994C35.1867 66.1498 35.2493 66.2149 35.2968 66.2906C44.7036 81.1719 56.7722 94.4908 61.7255 99.7311H85.5055C90.4524 94.5233 102.508 81.1914 111.934 66.2906C111.982 66.2149 112.044 66.1498 112.118 66.0994C112.192 66.049 112.275 66.0144 112.363 65.9977C112.452 65.9822 112.543 65.9845 112.631 66.0047C112.719 66.0248 112.802 66.0622 112.876 66.1149L121.549 72.6636C121.674 72.7594 121.759 72.8973 121.79 73.0518C121.821 73.2062 121.796 73.3666 121.718 73.5034C121.555 73.7898 105.222 102.576 89.3293 114.957V139.082C89.3293 139.254 89.2618 139.419 89.1414 139.541C89.0211 139.662 88.8576 139.732 88.6866 139.733ZM58.4601 138.432H88.0374V114.638C88.0376 114.539 88.0606 114.441 88.1044 114.352C88.1483 114.263 88.212 114.185 88.2906 114.124C102.91 102.888 118.063 77.24 120.315 73.3537L112.655 67.5795C103.099 82.5519 91.0431 95.7862 86.2586 100.831C86.1975 100.896 86.1239 100.947 86.0424 100.981C85.9609 101.016 85.8732 101.034 85.7847 101.033H61.4464C61.3578 101.034 61.2701 101.016 61.1886 100.981C61.1071 100.947 61.0336 100.896 60.9725 100.831C56.1814 95.7797 44.0934 82.5194 34.5762 67.5795L26.9157 73.3537C29.1295 77.1749 43.8272 102.055 58.2199 113.558C58.2952 113.619 58.3559 113.696 58.3974 113.784C58.439 113.872 58.4604 113.968 58.4601 114.066V138.432Z" fill="#14213D"/>
<path d="M77.027 100.382H70.3597V139.082H77.027V100.382Z" fill="white"/>
<path d="M77.0265 139.733H70.3593C70.1871 139.733 70.022 139.665 69.9002 139.543C69.7785 139.421 69.7101 139.255 69.7101 139.082V100.382C69.7101 100.209 69.7785 100.044 69.9002 99.9217C70.022 99.7997 70.1871 99.7311 70.3593 99.7311H77.0265C77.1987 99.7311 77.3638 99.7997 77.4856 99.9217C77.6073 100.044 77.6757 100.209 77.6757 100.382V139.082C77.6757 139.168 77.6589 139.253 77.6263 139.332C77.5937 139.411 77.5458 139.482 77.4856 139.543C77.4253 139.603 77.3537 139.651 77.275 139.684C77.1962 139.717 77.1118 139.733 77.0265 139.733ZM71.0085 138.431H76.3773V101.033H71.0085V138.431Z" fill="#14213D"/>
<path d="M50.7216 71.2249C50.0399 65.6396 50.2866 58.5309 54.8375 55.7448C55.5033 55.3317 56.2607 55.09 57.0422 55.0411C57.8237 54.9923 58.6051 55.1378 59.3169 55.4648C64.8091 45.0493 79.0914 49.7037 87.0051 54.0262C90.4004 55.8815 94.341 58.1469 95.9575 61.8769C97.1455 64.6045 96.8923 67.7357 96.4963 70.6651C96.1475 73.4783 95.5986 76.2628 94.8539 78.9975C94.551 80.3809 94.0891 81.7244 93.4776 83.001C92.8608 84.0686 91.7507 84.6871 90.9652 85.644C89.6953 87.3301 88.2309 88.8597 86.6026 90.2008C83.0201 93.0654 78.5913 94.6576 74.0098 94.7283C69.4282 94.799 64.9527 93.3441 61.284 90.5914C59.2512 89.0309 57.4785 87.1566 56.032 85.0386C53.7988 81.9465 52.2472 79.0757 51.4357 75.3261C51.163 74.1413 50.9098 72.7417 50.7216 71.2249Z" fill="#14213D"/>
<path d="M73.6898 95.3826C69.0794 95.3405 64.5988 93.8466 60.8811 91.1122C58.7908 89.5149 56.9694 87.5918 55.4863 85.4162C52.8896 81.8358 51.5327 78.9455 50.7797 75.4563C50.481 74.0827 50.2473 72.6831 50.0785 71.3031C49.3839 65.607 49.5851 58.1925 54.4996 55.1785C55.1728 54.7635 55.9281 54.5007 56.713 54.4085C57.4978 54.3164 58.2933 54.3969 59.0439 54.6447C60.5442 51.9778 63.0258 50.0057 65.9578 49.1504C74.0208 46.7093 84.356 51.8194 87.3358 53.4469C90.3156 55.0743 94.7951 57.522 96.5739 61.6101C97.8723 64.5525 97.5477 67.8724 97.1581 70.7237C96.8075 73.5681 96.252 76.3833 95.4962 79.1473C95.4313 79.3751 95.3729 79.6095 95.3079 79.8504C95.0337 81.0478 94.6128 82.2066 94.055 83.3005C93.6376 83.9604 93.1132 84.5456 92.5034 85.0321C92.1408 85.3375 91.8022 85.6705 91.4907 86.0281C90.1863 87.7495 88.6875 89.3136 87.0242 90.6891C83.2148 93.681 78.5283 95.3306 73.6898 95.3826ZM57.343 55.6732C56.574 55.6841 55.8232 55.9095 55.1747 56.3242C50.6303 59.1168 50.8381 66.8244 51.3704 71.1729C51.5327 72.5139 51.7599 73.8679 52.0196 75.2024C52.7337 78.5094 54.0386 81.2499 56.5121 84.6741C57.9136 86.7413 59.6389 88.568 61.6212 90.0837C65.1778 92.7585 69.5198 94.1729 73.9651 94.1045C78.4104 94.0362 82.7071 92.489 86.1803 89.7061C87.769 88.3944 89.1984 86.8999 90.439 85.2534C90.7928 84.843 91.1793 84.462 91.5945 84.1142C92.0987 83.7172 92.5369 83.2426 92.8929 82.7081C93.3931 81.7074 93.7702 80.6494 94.016 79.5574L94.2108 78.8413C94.9475 76.1389 95.4898 73.3869 95.8338 70.6065C96.1973 67.905 96.483 64.7998 95.3469 62.1439C93.8667 58.7458 90.4 56.6366 86.6736 54.6056C83.8107 53.0367 73.8715 48.0959 66.2889 50.4068C64.9094 50.8126 63.628 51.4988 62.5245 52.4227C61.421 53.3467 60.5191 54.4886 59.8749 55.7773C59.7971 55.9257 59.6653 56.0382 59.5069 56.0916C59.3485 56.1449 59.1757 56.135 59.0244 56.0638C58.4974 55.8178 57.9243 55.6868 57.343 55.6797V55.6732Z" fill="#14213D"/>
<path d="M70.5087 98.7937H76.8643V102.459C76.8643 103.177 76.5798 103.866 76.0733 104.374C75.5668 104.881 74.8799 105.167 74.1637 105.167H73.2029C72.4866 105.167 71.7997 104.881 71.2932 104.374C70.7867 103.866 70.5022 103.177 70.5022 102.459V98.7937H70.5087Z" fill="white"/>
<path d="M74.1574 105.818H73.2031C72.3152 105.816 71.4642 105.461 70.8363 104.832C70.2085 104.202 69.855 103.349 69.8533 102.459V98.7936C69.8533 98.6209 69.9217 98.4553 70.0434 98.3332C70.1652 98.2112 70.3303 98.1426 70.5025 98.1426H76.8581C77.0303 98.1426 77.1954 98.2112 77.3171 98.3332C77.4389 98.4553 77.5073 98.6209 77.5073 98.7936V102.459C77.5056 103.349 77.1521 104.202 76.5242 104.832C75.8964 105.461 75.0453 105.816 74.1574 105.818ZM71.1517 99.4445V102.459C71.1534 103.004 71.3701 103.526 71.7544 103.911C72.1388 104.297 72.6596 104.514 73.2031 104.516H74.1574C74.701 104.514 75.2218 104.297 75.6061 103.911C75.9905 103.526 76.2072 103.004 76.2089 102.459V99.4445H71.1517Z" fill="#14213D"/>
<path d="M55.5257 87.5708C58.9354 87.5708 61.6995 85.1838 61.6995 82.2393C61.6995 79.2948 58.9354 76.9078 55.5257 76.9078C52.1159 76.9078 49.3518 79.2948 49.3518 82.2393C49.3518 85.1838 52.1159 87.5708 55.5257 87.5708Z" fill="white"/>
<path d="M55.5256 88.2284C51.7667 88.2284 48.7025 85.5398 48.7025 82.2394C48.7025 78.939 51.7667 76.257 55.5256 76.257C59.2844 76.257 62.3486 78.939 62.3486 82.2394C62.3486 85.5398 59.2909 88.2284 55.5256 88.2284ZM55.5256 77.5589C52.4808 77.5589 50.0009 79.655 50.0009 82.2394C50.0009 84.8238 52.4808 86.9264 55.5256 86.9264C58.5703 86.9264 61.0502 84.8238 61.0502 82.2394C61.0502 79.655 58.5768 77.5589 55.5256 77.5589Z" fill="#14213D"/>
<path d="M91.517 87.5708C94.9267 87.5708 97.6908 85.1838 97.6908 82.2393C97.6908 79.2948 94.9267 76.9078 91.517 76.9078C88.1073 76.9078 85.3431 79.2948 85.3431 82.2393C85.3431 85.1838 88.1073 87.5708 91.517 87.5708Z" fill="white"/>
<path d="M91.5171 88.2284C87.7583 88.2284 84.6941 85.5398 84.6941 82.2394C84.6941 78.939 87.7583 76.257 91.5171 76.257C95.276 76.257 98.3401 78.939 98.3401 82.2394C98.3401 85.5398 95.2824 88.2284 91.5171 88.2284ZM91.5171 77.5589C88.4724 77.5589 85.9925 79.655 85.9925 82.2394C85.9925 84.8238 88.4724 86.9264 91.5171 86.9264C94.5618 86.9264 97.0418 84.8238 97.0418 82.2394C97.0418 79.655 94.5683 77.5589 91.5171 77.5589Z" fill="#14213D"/>
<path d="M84.7715 67.0912C84.4923 66.961 84.2067 66.8438 83.9146 66.7331C82.0773 66.0301 80.1297 65.6851 78.286 65.0015C76.4423 64.318 74.6441 63.2179 73.7417 61.4798C73.1896 63.1894 72.8176 64.9523 72.6315 66.7396C72.4464 68.5527 72.8445 70.3775 73.7676 71.9474C69.4505 69.2654 65.2502 65.8153 63.1923 61.0566C62.2233 64.6746 60.7316 68.131 58.7647 71.316C57.8234 72.8458 56.2653 74.2779 55.4798 75.8728C54.6943 77.4677 55.0903 79.3034 55.0903 81.009C55.1074 84.6699 56.1976 88.2451 58.2252 91.2896C60.2528 94.3342 63.1283 96.7138 66.4941 98.1325C69.8598 99.5511 73.5672 99.9462 77.1552 99.2686C80.7431 98.591 84.0532 96.8706 86.6736 94.3214C88.9671 92.0174 90.6594 89.1825 91.601 86.067C92.6722 82.4932 91.9581 79.1212 91.4907 75.5082C91.4044 74.2362 91.0899 72.9903 90.5623 71.8302C90.0935 71.0099 89.4849 70.2785 88.764 69.669C87.5727 68.6097 86.2262 67.7403 84.7715 67.0912Z" fill="white"/>
<path d="M73.6835 100.278C68.5749 100.273 63.677 98.2354 60.0646 94.6132C56.4523 90.9909 54.4206 86.0796 54.4154 80.957C54.4154 80.5534 54.4154 80.1432 54.3765 79.7201C54.3051 78.2945 54.2336 76.8103 54.8763 75.5343C55.4053 74.5691 56.0388 73.6652 56.7655 72.8393C57.2779 72.2356 57.7528 71.6008 58.1872 70.9385C60.1231 67.8089 61.5907 64.4115 62.5433 60.8549C62.5786 60.7251 62.6532 60.6094 62.7567 60.5238C62.8602 60.4382 62.9877 60.3869 63.1215 60.3769C63.2553 60.3669 63.3889 60.3988 63.5039 60.468C63.619 60.5373 63.7098 60.6406 63.7638 60.7638C65.257 64.2139 67.9836 67.2735 72.2813 70.1833C71.9825 69.0483 71.875 67.8712 71.9632 66.7006C72.1477 64.8667 72.5264 63.0576 73.0928 61.3041C73.1284 61.1799 73.2001 61.0692 73.2987 60.986C73.3973 60.9029 73.5184 60.851 73.6464 60.837C73.7745 60.8231 73.9039 60.8477 74.018 60.9076C74.1321 60.9676 74.2258 61.0603 74.2873 61.1739C75.0209 62.5344 76.4426 63.6215 78.5135 64.3897C79.3835 64.7087 80.3118 64.969 81.2012 65.2099C82.0906 65.4508 83.1488 65.7567 84.1421 66.1213C84.4472 66.2384 84.7458 66.3621 85.0379 66.4988C86.5548 67.1804 87.9583 68.0915 89.1993 69.2004C89.9841 69.8549 90.644 70.6467 91.1469 71.5374C91.7127 72.7681 92.0514 74.0914 92.1466 75.4432C92.2115 75.9314 92.2765 76.4197 92.3479 76.9014C92.7893 80.0651 93.2048 83.0466 92.2375 86.2754C91.264 89.4935 89.5161 92.4221 87.1478 94.8032C83.532 98.3013 78.7079 100.263 73.6835 100.278ZM63.2964 62.8143C62.3253 65.9078 60.9709 68.8668 59.2649 71.622C58.8027 72.3369 58.293 73.0198 57.7393 73.6661C57.078 74.4176 56.4991 75.2382 56.0124 76.1137C55.5255 77.0902 55.584 78.3986 55.6489 79.6615C55.6489 80.0977 55.6878 80.5338 55.6878 80.9635C55.6886 84.5072 56.731 87.9722 58.6849 90.9251C60.6387 93.878 63.4172 96.188 66.6731 97.5661C69.929 98.9443 73.5178 99.3295 76.9908 98.6737C80.4639 98.0179 83.6671 96.3501 86.2 93.8788C88.4185 91.6528 90.0533 88.9111 90.9586 85.8978C91.848 82.9489 91.4455 80.0977 91.03 77.0837C90.9586 76.5954 90.8937 76.1072 90.8288 75.6125C90.747 74.4188 90.4569 73.2489 89.9718 72.1558C89.5397 71.4117 88.9792 70.7504 88.3164 70.2029C87.1733 69.1833 85.8817 68.3447 84.4861 67.7162C84.2135 67.5925 83.9408 67.4818 83.6616 67.3711C82.7528 67.0261 81.779 66.7592 80.8441 66.4988C79.9093 66.2384 78.968 65.9846 78.0396 65.6395C76.4816 65.1261 75.0759 64.2311 73.9497 63.0357C73.5876 64.2763 73.3484 65.5497 73.2356 66.8373C73.0976 68.4751 73.4647 70.1158 74.2873 71.5374C74.3648 71.6612 74.3985 71.8076 74.3829 71.953C74.3673 72.0983 74.3034 72.2342 74.2014 72.3387C74.0995 72.4432 73.9654 72.5102 73.8208 72.529C73.6762 72.5478 73.5295 72.5172 73.4044 72.4422C68.5094 69.4347 65.2635 66.3296 63.3224 62.8143H63.2964Z" fill="#14213D"/>
<path d="M74.4104 88.2283C73.8408 88.2256 73.2722 88.1799 72.7095 88.0916C72.6255 88.0767 72.5453 88.0453 72.4734 87.9993C72.4015 87.9532 72.3393 87.8935 72.2905 87.8233C72.2417 87.7532 72.2071 87.6741 72.1888 87.5906C72.1704 87.507 72.1687 87.4207 72.1836 87.3365C72.1985 87.2523 72.2298 87.1718 72.2757 87.0997C72.3216 87.0276 72.3813 86.9653 72.4512 86.9164C72.5211 86.8674 72.6 86.8327 72.6833 86.8143C72.7666 86.7959 72.8527 86.7942 72.9367 86.8092C73.7396 86.9426 74.5579 86.9558 75.3647 86.8483C75.3647 86.2754 74.7609 84.5243 73.9235 82.9099C73.8482 82.7576 73.8353 82.5818 73.8875 82.42C73.9398 82.2583 74.0531 82.1235 74.2031 82.0444C74.3532 81.9654 74.5282 81.9483 74.6907 81.9969C74.8531 82.0455 74.9902 82.1559 75.0726 82.3045C75.6828 83.4827 77.0526 86.3405 76.5332 87.5123C76.4713 87.6583 76.3762 87.7879 76.2557 87.8907C76.1351 87.9935 75.9923 88.0668 75.8386 88.1046C75.3694 88.2045 74.8897 88.246 74.4104 88.2283Z" fill="#14213D"/>
<path d="M68.6522 81.1718C68.48 81.1718 68.3149 81.1032 68.1931 80.9811C68.0714 80.859 68.003 80.6934 68.003 80.5208C67.9753 80.0571 67.7721 79.6214 67.4348 79.3029C67.0976 78.9843 66.6518 78.8069 66.1885 78.8069C65.7252 78.8069 65.2793 78.9843 64.9421 79.3029C64.6049 79.6214 64.4016 80.0571 64.374 80.5208C64.374 80.6934 64.3056 80.859 64.1838 80.9811C64.0621 81.1032 63.8969 81.1718 63.7248 81.1718C63.5526 81.1718 63.3875 81.1032 63.2657 80.9811C63.144 80.859 63.0756 80.6934 63.0756 80.5208C63.1122 79.7176 63.4561 78.9595 64.0359 78.404C64.6156 77.8486 65.3866 77.5387 66.1885 77.5387C66.9903 77.5387 67.7613 77.8486 68.341 78.404C68.9208 78.9595 69.2648 79.7176 69.3013 80.5208C69.3013 80.6934 69.233 80.859 69.1112 80.9811C68.9895 81.1032 68.8243 81.1718 68.6522 81.1718Z" fill="#14213D"/>
<path d="M84.1225 81.1718C83.9503 81.1718 83.7852 81.1032 83.6634 80.9811C83.5417 80.859 83.4733 80.6934 83.4733 80.5208C83.4456 80.0571 83.2424 79.6214 82.9051 79.3029C82.5679 78.9843 82.1221 78.8069 81.6588 78.8069C81.1955 78.8069 80.7497 78.9843 80.4124 79.3029C80.0752 79.6214 79.872 80.0571 79.8443 80.5208C79.8443 80.6934 79.7759 80.859 79.6541 80.9811C79.5324 81.1032 79.3673 81.1718 79.1951 81.1718C79.0229 81.1718 78.8578 81.1032 78.736 80.9811C78.6143 80.859 78.5459 80.6934 78.5459 80.5208C78.5825 79.7176 78.9264 78.9595 79.5062 78.404C80.086 77.8486 80.857 77.5387 81.6588 77.5387C82.4606 77.5387 83.2316 77.8486 83.8114 78.404C84.3911 78.9595 84.7351 79.7176 84.7717 80.5208C84.7717 80.6934 84.7033 80.859 84.5815 80.9811C84.4598 81.1032 84.2947 81.1718 84.1225 81.1718Z" fill="#14213D"/>
<path d="M69.1525 74.5579C69.0964 74.5642 69.0398 74.5642 68.9837 74.5579L60.5961 73.1323C60.4563 73.1169 60.3211 73.0731 60.1988 73.0034C60.0765 72.9338 59.9697 72.8398 59.885 72.7273C59.8002 72.6147 59.7393 72.486 59.7059 72.349C59.6725 72.212 59.6674 72.0696 59.6909 71.9306C59.7144 71.7916 59.7659 71.6588 59.8424 71.5405C59.9189 71.4221 60.0187 71.3207 60.1357 71.2424C60.2527 71.1641 60.3844 71.1107 60.5227 71.0853C60.6611 71.0599 60.8031 71.0631 60.9402 71.0947L69.3278 72.5204C69.5776 72.5694 69.8005 72.7092 69.9537 72.913C70.107 73.1168 70.1797 73.3702 70.158 73.6245C70.1362 73.8788 70.0215 74.1161 69.836 74.2908C69.6504 74.4655 69.407 74.5653 69.1525 74.5709V74.5579Z" fill="#14213D"/>
<path d="M77.4619 74.5579C77.2079 74.5508 76.9654 74.45 76.7809 74.2748C76.5964 74.0996 76.4828 73.8624 76.4619 73.6084C76.441 73.3545 76.5142 73.1017 76.6676 72.8986C76.8209 72.6954 77.0437 72.5561 77.2931 72.5074L85.6807 71.0817C85.9424 71.053 86.2052 71.1256 86.4153 71.2847C86.6255 71.4438 86.767 71.6775 86.8109 71.9378C86.8549 72.1981 86.798 72.4655 86.6518 72.6851C86.5057 72.9047 86.2814 73.06 86.0248 73.1193L77.6371 74.5449C77.5794 74.5557 77.5206 74.5601 77.4619 74.5579Z" fill="#14213D"/>
<path d="M74.7286 93.8788C73.0147 93.8788 70.8334 93.2864 68.5028 91.1903C68.434 91.135 68.3773 91.0662 68.3359 90.9882C68.2945 90.9102 68.2694 90.8246 68.2621 90.7365C68.2548 90.6484 68.2655 90.5598 68.2934 90.476C68.3214 90.3922 68.3661 90.315 68.4248 90.2491C68.4834 90.1832 68.5549 90.1299 68.6348 90.0926C68.7146 90.0553 68.8012 90.0346 68.8893 90.0319C68.9774 90.0292 69.0651 90.0445 69.1471 90.0769C69.2291 90.1093 69.3036 90.1581 69.3662 90.2203C73.995 94.3736 77.6824 91.8087 77.7149 91.7827C77.7836 91.7285 77.8626 91.6887 77.9471 91.6659C78.0316 91.643 78.1198 91.6375 78.2064 91.6497C78.293 91.6619 78.3763 91.6915 78.4513 91.7368C78.5262 91.7821 78.5912 91.8421 78.6425 91.9132C78.6937 91.9844 78.7301 92.0651 78.7494 92.1507C78.7687 92.2363 78.7705 92.3249 78.7548 92.4112C78.7391 92.4975 78.7062 92.5797 78.658 92.6529C78.6098 92.7261 78.5474 92.7889 78.4744 92.8373C77.3497 93.5338 76.0504 93.8951 74.7286 93.8788Z" fill="#14213D"/>
<path d="M135.156 20.9176H14.5166V60.5749H135.156V20.9176Z" fill="white"/>
<path d="M135.182 61.226H14.5159C14.3437 61.226 14.1786 61.1574 14.0568 61.0353C13.9351 60.9132 13.8667 60.7477 13.8667 60.575V20.9177C13.8667 20.745 13.9351 20.5795 14.0568 20.4574C14.1786 20.3353 14.3437 20.2667 14.5159 20.2667H135.182C135.354 20.2667 135.519 20.3353 135.641 20.4574C135.763 20.5795 135.831 20.745 135.831 20.9177V60.575C135.831 60.7477 135.763 60.9132 135.641 61.0353C135.519 61.1574 135.354 61.226 135.182 61.226ZM15.1911 59.924H134.533V21.5687H15.1651L15.1911 59.924Z" fill="#14213D"/>
<path d="M59.3067 31.5823C59.7619 31.5823 60.1318 31.7342 60.4163 32.038C60.7008 32.3418 60.843 32.7215 60.843 33.1772V49.7817C60.843 50.2753 60.6723 50.6931 60.3309 51.0348C60.0085 51.3576 59.6007 51.519 59.1075 51.519C58.861 51.519 58.6049 51.481 58.3394 51.4051C58.0928 51.3102 57.9031 51.1867 57.7704 51.0348L46.5893 36.8228L47.329 36.3671V49.9241C47.329 50.3798 47.1773 50.7595 46.8738 51.0633C46.5893 51.3671 46.21 51.519 45.7358 51.519C45.2806 51.519 44.9107 51.3671 44.6262 51.0633C44.3417 50.7595 44.1995 50.3798 44.1995 49.9241V33.3196C44.1995 32.8259 44.3607 32.4177 44.6831 32.0949C45.0245 31.7532 45.4418 31.5823 45.9349 31.5823C46.2005 31.5823 46.4755 31.6392 46.76 31.7532C47.0445 31.8481 47.2532 32 47.3859 32.2089L58.2256 46.0506L57.7419 46.3924V33.1772C57.7419 32.7215 57.8842 32.3418 58.1687 32.038C58.4532 31.7342 58.8325 31.5823 59.3067 31.5823Z" fill="#14213D"/>
<path d="M66.8561 31.5823H76.387C76.8801 31.5823 77.2879 31.7437 77.6104 32.0664C77.9518 32.3702 78.1225 32.769 78.1225 33.2627C78.1225 33.7373 77.9518 34.1266 77.6104 34.4304C77.2879 34.7152 76.8801 34.8576 76.387 34.8576H68.4209L68.6769 34.3734V39.9272L68.4493 39.6994H75.1067C75.5999 39.6994 76.0077 39.8608 76.3301 40.1835C76.6715 40.4873 76.8422 40.8861 76.8422 41.3798C76.8422 41.8544 76.6715 42.2437 76.3301 42.5475C76.0077 42.8323 75.5999 42.9747 75.1067 42.9747H68.5347L68.6769 42.7468V48.5L68.4493 48.2437H76.387C76.8801 48.2437 77.2879 48.4146 77.6104 48.7563C77.9518 49.0791 78.1225 49.4589 78.1225 49.8956C78.1225 50.3703 77.9518 50.7595 77.6104 51.0633C77.2879 51.3671 76.8801 51.519 76.387 51.519H66.8561C66.3629 51.519 65.9457 51.3576 65.6043 51.0348C65.2818 50.6931 65.1206 50.2753 65.1206 49.7817V33.3196C65.1206 32.8259 65.2818 32.4177 65.6043 32.0949C65.9457 31.7532 66.3629 31.5823 66.8561 31.5823Z" fill="#14213D"/>
<path d="M103.792 31.4968C104.229 31.4968 104.646 31.6677 105.044 32.0095C105.443 32.3323 105.642 32.7785 105.642 33.3481C105.642 33.519 105.613 33.7089 105.556 33.9177L99.9516 50.4367C99.8378 50.7785 99.6292 51.0443 99.3257 51.2342C99.0412 51.4051 98.7377 51.5 98.4153 51.519C98.0928 51.519 97.7704 51.4241 97.4479 51.2342C97.1445 51.0443 96.9074 50.769 96.7367 50.4083L92.526 40.8386L92.7821 41.0095L88.6283 50.4083C88.4576 50.769 88.211 51.0443 87.8886 51.2342C87.5851 51.4241 87.2721 51.519 86.9497 51.519C86.6462 51.5 86.3428 51.4051 86.0393 51.2342C85.7358 51.0443 85.5272 50.7785 85.4134 50.4367L79.8086 33.9177C79.7517 33.7089 79.7233 33.519 79.7233 33.3481C79.7233 32.7785 79.9224 32.3323 80.3207 32.0095C80.738 31.6677 81.1648 31.4968 81.601 31.4968C81.9614 31.4968 82.2933 31.5918 82.5968 31.7816C82.9192 31.9715 83.1373 32.2468 83.2511 32.6076L87.7748 46.3355L87.1489 46.307L91.1888 36.5949C91.3406 36.2532 91.5587 35.9873 91.8432 35.7975C92.1277 35.5886 92.4501 35.4937 92.8105 35.5127C93.1709 35.4937 93.4933 35.5886 93.7778 35.7975C94.0623 35.9873 94.271 36.2532 94.4037 36.5949L98.1023 45.8798L97.6471 46.1646L102.114 32.6076C102.228 32.2468 102.446 31.9715 102.768 31.7816C103.091 31.5918 103.432 31.4968 103.792 31.4968Z" fill="#14213D"/>
<path d="M114.265 64.8128C114.265 64.8128 114.946 54.4363 116.693 54.4363C118.439 54.4363 117.472 59.6441 117.472 59.6441C117.472 59.6441 121.367 60.4317 119.971 63.8559" fill="white"/>
<path d="M114.265 65.4639H114.219C114.048 65.4522 113.889 65.373 113.775 65.2437C113.662 65.1145 113.605 64.9455 113.616 64.7739C113.947 59.7614 114.745 53.7854 116.693 53.7854C116.903 53.7843 117.11 53.8305 117.3 53.9206C117.49 54.0107 117.658 54.1425 117.79 54.3062C118.647 55.3478 118.394 57.9191 118.205 59.169C119.185 59.4746 120.02 60.1271 120.555 61.0047C120.789 61.483 120.91 62.0085 120.91 62.541C120.91 63.0735 120.789 63.599 120.555 64.0773C120.524 64.1569 120.477 64.2294 120.418 64.2908C120.358 64.3522 120.287 64.4012 120.209 64.4351C120.13 64.4689 120.046 64.487 119.961 64.4881C119.875 64.4893 119.791 64.4736 119.711 64.4419C119.552 64.3769 119.426 64.2513 119.359 64.0927C119.292 63.9341 119.29 63.7553 119.354 63.5956C119.505 63.2937 119.588 62.9619 119.596 62.6243C119.604 62.2866 119.537 61.9513 119.4 61.6427C118.848 60.6076 117.342 60.2821 117.329 60.2756C117.163 60.241 117.017 60.1426 116.922 60.0015C116.828 59.8604 116.792 59.6877 116.823 59.5205C117.134 57.828 117.212 55.6798 116.777 55.1525L116.725 55.1069C116.076 55.6472 115.213 60.0608 114.894 64.8715C114.88 65.0305 114.808 65.1787 114.692 65.2879C114.576 65.3971 114.424 65.4597 114.265 65.4639Z" fill="#14213D"/>
<path d="M32.7842 64.8128C32.7842 64.8128 32.135 54.4363 30.3562 54.4363C28.5774 54.4363 29.5772 59.6441 29.5772 59.6441C29.5772 59.6441 25.682 60.4317 27.0778 63.8559" fill="white"/>
<path d="M32.7843 65.4639C32.6197 65.4643 32.4611 65.402 32.3406 65.2896C32.22 65.1772 32.1466 65.0231 32.1351 64.8585C31.817 60.0478 30.986 55.6342 30.3043 55.0939L30.2524 55.1394C29.772 55.7188 29.9408 58.0884 30.207 59.5075C30.2377 59.6747 30.2018 59.8474 30.1072 59.9885C30.0126 60.1296 29.8666 60.228 29.7006 60.2626C29.7006 60.2626 28.1815 60.5946 27.6297 61.6297C27.4928 61.9383 27.4259 62.2735 27.4338 62.6112C27.4416 62.9489 27.524 63.2807 27.6751 63.5826C27.7156 63.6631 27.739 63.7513 27.7437 63.8414C27.7485 63.9315 27.7345 64.0216 27.7027 64.106C27.6708 64.1904 27.6218 64.2672 27.5588 64.3316C27.4958 64.396 27.4201 64.4466 27.3366 64.4801C27.253 64.5136 27.1634 64.5293 27.0735 64.5263C26.9836 64.5232 26.8952 64.5015 26.8141 64.4624C26.733 64.4233 26.6609 64.3677 26.6024 64.2992C26.5439 64.2306 26.5002 64.1507 26.4741 64.0643C26.2407 63.586 26.1194 63.0605 26.1194 62.528C26.1194 61.9955 26.2407 61.47 26.4741 60.9917C27.0164 60.1152 27.8589 59.4671 28.8437 59.169C28.6554 57.9191 28.4022 55.3478 29.2591 54.3062C29.3914 54.1425 29.5587 54.0107 29.7486 53.9206C29.9385 53.8305 30.1462 53.7843 30.3563 53.7854C32.3039 53.7854 33.1089 59.7614 33.4335 64.7739C33.4442 64.9455 33.3867 65.1145 33.2735 65.2437C33.1604 65.373 33.0008 65.4522 32.8297 65.4639H32.7843Z" fill="#14213D"/>
<path d="M145.484 101.899V120.777C145.484 122.604 144.761 124.355 143.473 125.647C142.185 126.939 140.438 127.664 138.616 127.664H104.773C102.952 127.664 101.205 126.939 99.9167 125.647C98.6287 124.355 97.905 122.604 97.905 120.777V109.71L90.9197 101.15L97.905 101.847C97.905 100.942 98.0827 100.047 98.4278 99.211C98.773 98.3754 99.2789 97.6161 99.9167 96.9766C100.555 96.3371 101.312 95.8297 102.145 95.4836C102.978 95.1375 103.872 94.9594 104.773 94.9594H138.616C139.522 94.9593 140.42 95.1392 141.257 95.4886C142.093 95.8379 142.853 96.3499 143.491 96.995C144.13 97.64 144.635 98.4055 144.977 99.2471C145.319 100.089 145.491 100.99 145.484 101.899Z" fill="white"/>
<path d="M138.616 128.341H104.773C102.78 128.34 100.869 127.545 99.4593 126.132C98.0499 124.718 97.2573 122.802 97.2555 120.803V109.99L90.4195 101.612C90.338 101.513 90.2878 101.392 90.2751 101.263C90.2625 101.135 90.288 101.006 90.3484 100.893C90.4089 100.779 90.5016 100.686 90.6148 100.625C90.7279 100.565 90.8565 100.539 90.9843 100.551L97.288 101.202C97.4699 99.3369 98.3366 97.6058 99.7198 96.3452C101.103 95.0845 102.904 94.3841 104.773 94.3801H138.616C140.609 94.3819 142.52 95.1766 143.93 96.5899C145.339 98.0033 146.132 99.9197 146.133 101.918V120.797C146.132 122.796 145.339 124.713 143.93 126.127C142.521 127.542 140.61 128.338 138.616 128.341ZM92.4125 102.003L98.4046 109.346C98.5014 109.463 98.5542 109.611 98.5539 109.763V120.829C98.5557 122.483 99.2114 124.068 100.377 125.237C101.543 126.406 103.124 127.064 104.773 127.066H138.616C140.265 127.064 141.846 126.406 143.012 125.237C144.178 124.068 144.833 122.483 144.835 120.829V101.951C144.833 100.298 144.178 98.7123 143.012 97.5431C141.846 96.3739 140.265 95.7163 138.616 95.7146H104.773C103.124 95.7163 101.543 96.3739 100.377 97.5431C99.2114 98.7123 98.5557 100.298 98.5539 101.951C98.5537 102.042 98.5345 102.132 98.4976 102.215C98.4608 102.298 98.407 102.372 98.3397 102.433C98.2723 102.493 98.193 102.539 98.1069 102.567C98.0208 102.595 97.9298 102.605 97.8398 102.595L92.4125 102.003Z" fill="#14213D"/>
<path opacity="0.48" d="M125.867 109.867H117.333C117.193 109.867 117.055 109.839 116.925 109.786C116.796 109.732 116.678 109.653 116.579 109.554C116.48 109.455 116.401 109.338 116.348 109.208C116.294 109.079 116.267 108.94 116.267 108.8V105.6C116.267 104.186 116.829 102.829 117.829 101.829C118.829 100.829 120.186 100.267 121.6 100.267C123.015 100.267 124.371 100.829 125.371 101.829C126.371 102.829 126.933 104.186 126.933 105.6V108.8C126.933 108.94 126.906 109.079 126.852 109.208C126.799 109.338 126.72 109.455 126.621 109.554C126.522 109.653 126.404 109.732 126.275 109.786C126.146 109.839 126.007 109.867 125.867 109.867ZM118.4 107.733H124.8V105.6C124.8 104.751 124.463 103.937 123.863 103.337C123.263 102.737 122.449 102.4 121.6 102.4C120.751 102.4 119.937 102.737 119.337 103.337C118.737 103.937 118.4 104.751 118.4 105.6V107.733Z" fill="#FCA311"/>
<path d="M126.933 107.733H116.267C114.499 107.733 113.067 109.166 113.067 110.933V118.4C113.067 120.167 114.499 121.6 116.267 121.6H126.933C128.701 121.6 130.133 120.167 130.133 118.4V110.933C130.133 109.166 128.701 107.733 126.933 107.733Z" fill="#FCA311"/>
<path d="M134.117 102.322C133.964 102.323 133.815 102.27 133.697 102.172C133.579 102.074 133.5 101.938 133.472 101.787C133.445 101.635 133.472 101.48 133.549 101.346C133.625 101.213 133.746 101.111 133.89 101.059L137.473 99.6986C137.554 99.6628 137.642 99.644 137.73 99.6432C137.818 99.6425 137.906 99.6598 137.987 99.6942C138.069 99.7286 138.142 99.7793 138.204 99.8432C138.265 99.9072 138.312 99.9829 138.343 100.066C138.374 100.149 138.388 100.237 138.384 100.326C138.38 100.414 138.357 100.501 138.318 100.581C138.279 100.66 138.225 100.731 138.158 100.789C138.09 100.846 138.012 100.89 137.928 100.916L134.351 102.276C134.277 102.307 134.197 102.323 134.117 102.322Z" fill="white"/>
<path d="M135.558 108.571C135.386 108.581 135.217 108.521 135.089 108.406C134.96 108.291 134.883 108.129 134.873 107.956C134.864 107.783 134.923 107.614 135.038 107.485C135.153 107.357 135.314 107.279 135.487 107.269L140.304 106.683C140.474 106.663 140.645 106.711 140.78 106.818C140.916 106.924 141.003 107.079 141.024 107.25C141.044 107.421 140.996 107.593 140.891 107.728C140.785 107.863 140.63 107.951 140.459 107.972L135.642 108.558L135.558 108.571Z" fill="white"/>
<path d="M139.227 116.266C139.136 116.264 139.045 116.247 138.96 116.214L135.916 114.86C135.838 114.825 135.767 114.775 135.708 114.713C135.65 114.652 135.603 114.579 135.573 114.499C135.542 114.419 135.527 114.334 135.529 114.248C135.531 114.163 135.55 114.079 135.585 114C135.619 113.922 135.669 113.852 135.73 113.793C135.792 113.734 135.865 113.687 135.945 113.656C136.024 113.626 136.109 113.611 136.194 113.613C136.28 113.615 136.364 113.634 136.442 113.668L139.486 115.022C139.62 115.084 139.73 115.189 139.796 115.321C139.863 115.453 139.883 115.604 139.853 115.748C139.822 115.893 139.744 116.023 139.63 116.117C139.516 116.211 139.374 116.264 139.227 116.266Z" fill="white"/>
</svg>
