<svg width="160" height="160" viewBox="0 0 160 160" fill="none" xmlns="http://www.w3.org/2000/svg">
<path d="M113.758 64.5783L114.816 62.4822C114.816 62.4822 113.713 60.1842 114.602 58.674C115.492 57.1637 116.394 55.2173 117.439 55.7576C118.484 56.2979 118.939 56.5128 118.939 56.5128C119.032 56.1626 119.225 55.8476 119.495 55.6069C119.766 55.3661 120.1 55.2103 120.458 55.1587C121.633 55.0871 128.424 58.1011 128.216 59.1297C127.567 62.1632 123.288 68.4646 120.484 70.4631L115.167 80.6053L108.227 73.6529L113.758 64.5783Z" fill="white"/>
<path d="M115.148 81.2564C114.977 81.254 114.813 81.1838 114.693 81.0611L107.747 74.1413C107.643 74.0382 107.577 73.9032 107.56 73.7579C107.542 73.6126 107.574 73.4656 107.65 73.3406L113.168 64.2921L114.077 62.4889C113.784 61.7468 113.168 59.8199 114.025 58.3682C114.141 58.1729 114.265 57.9646 114.382 57.7563C115.219 56.2851 116.264 54.4558 117.719 55.211L118.608 55.6602C118.791 55.3386 119.05 55.0674 119.362 54.8709C119.675 54.6744 120.032 54.5586 120.4 54.534C121.698 54.4689 127.34 56.9621 128.502 58.3096C128.631 58.4355 128.728 58.5902 128.785 58.7611C128.843 58.932 128.859 59.1142 128.833 59.2926C128.184 62.4173 123.899 68.7447 120.971 70.9255L115.706 80.9049C115.659 80.9964 115.591 81.0754 115.507 81.1354C115.424 81.1954 115.327 81.2346 115.226 81.2499L115.148 81.2564ZM109.026 73.5554L114.985 79.5183L119.887 70.1638C119.935 70.073 120.004 69.9949 120.088 69.936C122.737 68.0482 126.84 62.0722 127.528 59.1363C126.879 58.212 121.536 55.8034 120.504 55.8034C119.822 55.8489 119.582 56.6561 119.575 56.6887C119.55 56.7802 119.505 56.8651 119.444 56.9375C119.383 57.0098 119.307 57.0679 119.221 57.1076C119.135 57.1473 119.041 57.1676 118.947 57.1672C118.852 57.1668 118.759 57.1457 118.673 57.1053C118.673 57.1053 118.212 56.8905 117.147 56.3372C116.797 56.1549 115.946 57.6391 115.537 58.3747C115.414 58.5895 115.291 58.8044 115.167 59.0257C114.583 60.0152 115.167 61.6686 115.407 62.222C115.451 62.3111 115.474 62.4091 115.474 62.5084C115.474 62.6077 115.451 62.7057 115.407 62.7948L114.349 64.8975V64.9365L109.026 73.5554Z" fill="#14213D"/>
<path d="M33.4917 64.5784L32.4335 62.4823C32.4335 62.4823 33.5371 60.1844 32.6477 58.6741C31.7583 57.1638 30.8559 55.2174 29.8107 55.7577C28.7655 56.298 28.3111 56.5129 28.3111 56.5129C28.2181 56.1627 28.0245 55.8477 27.7544 55.607C27.4843 55.3663 27.1496 55.2104 26.792 55.1588C25.6169 55.0872 19.0406 58.4658 19.2548 59.5008C19.904 62.5279 23.9615 68.4647 26.766 70.4632L32.0829 80.6054L39.0228 73.653L33.4917 64.5784Z" fill="white"/>
<path d="M32.0828 81.2564H31.9594C31.8578 81.2411 31.7613 81.2018 31.6778 81.1418C31.5943 81.0819 31.5262 81.0029 31.479 80.9113L26.2595 70.8863C23.2927 68.6861 19.2612 62.7557 18.6185 59.618C18.5982 59.4257 18.6209 59.2313 18.6849 59.0488C18.7489 58.8664 18.8526 58.7006 18.9885 58.5634C20.2025 57.1508 25.4805 54.4362 26.8308 54.4948C27.199 54.5195 27.5554 54.6353 27.868 54.8318C28.1807 55.0283 28.44 55.2995 28.6226 55.621L29.512 55.1718C30.9662 54.4167 32.0114 56.2459 32.8488 57.7171C32.9657 57.9255 33.089 58.1338 33.2059 58.3291C34.0628 59.7807 33.4461 61.7076 33.154 62.4497L34.0628 64.2529L39.581 73.3015C39.6569 73.4265 39.6885 73.5735 39.6709 73.7188C39.6532 73.864 39.5872 73.9991 39.4836 74.1022L32.5372 81.048C32.4789 81.1112 32.4088 81.162 32.3308 81.1978C32.2528 81.2336 32.1685 81.2535 32.0828 81.2564ZM19.9169 59.4878C20.5661 62.3651 24.5067 68.0546 27.1424 69.9034C27.2265 69.9623 27.2955 70.0404 27.3437 70.1312L32.2451 79.4857L38.2047 73.5228L32.9397 64.8844V64.8453L31.8815 62.7427C31.838 62.6535 31.8153 62.5555 31.8153 62.4562C31.8153 62.3569 31.838 62.259 31.8815 62.1698C32.1477 61.6165 32.706 59.963 32.1217 58.9735C31.9984 58.7717 31.875 58.5569 31.7517 58.3226C31.3427 57.6 30.4923 56.1092 30.1417 56.285C29.077 56.8383 28.6161 57.0532 28.6161 57.0532C28.5297 57.0938 28.4355 57.1149 28.3402 57.1149C28.2448 57.1149 28.1506 57.0938 28.0643 57.0532C27.9786 57.0126 27.9028 56.9536 27.8422 56.8805C27.7817 56.8074 27.7378 56.7219 27.7137 56.63C27.7137 56.63 27.467 55.7968 26.7854 55.7512C25.5129 55.8033 20.4752 58.6676 19.9169 59.4878Z" fill="#14213D"/>
<path d="M121.159 73.1843C121.159 73.1843 104.734 102.309 88.6993 114.638V139.082H57.8106V114.065C42.0027 101.424 26.0715 73.1843 26.0715 73.1843L34.7512 66.6355C44.3009 81.7511 56.5577 95.2262 61.4461 100.382H85.7844C90.6729 95.2262 102.923 81.7511 112.479 66.6355L121.159 73.1843Z" fill="#FCA311"/>
<path d="M88.6865 139.733H57.8108C57.6386 139.733 57.4735 139.665 57.3517 139.543C57.23 139.42 57.1616 139.255 57.1616 139.082V114.378C41.516 101.71 25.6626 73.7831 25.5068 73.5032C25.4296 73.3657 25.4047 73.2047 25.437 73.0502C25.4692 72.8958 25.5563 72.7583 25.6821 72.6634L34.3618 66.1146C34.4336 66.0612 34.5157 66.0232 34.6028 66.003C34.69 65.9828 34.7803 65.9809 34.8682 65.9974C34.9559 66.0141 35.0392 66.0487 35.1129 66.0991C35.1866 66.1495 35.2492 66.2146 35.2967 66.2904C44.7035 81.1716 56.772 94.4905 61.7254 99.7309H85.5054C90.4523 94.5231 102.508 81.1912 111.934 66.2904C111.982 66.2146 112.044 66.1495 112.118 66.0991C112.192 66.0487 112.275 66.0141 112.363 65.9974C112.452 65.9819 112.543 65.9843 112.631 66.0044C112.719 66.0245 112.802 66.062 112.875 66.1146L121.549 72.6634C121.673 72.7592 121.759 72.8971 121.79 73.0515C121.821 73.2059 121.795 73.3664 121.717 73.5032C121.555 73.7896 105.221 102.576 89.3291 114.957V139.082C89.3292 139.254 89.2617 139.418 89.1413 139.54C89.021 139.662 88.8575 139.731 88.6865 139.733ZM58.46 138.431H88.0373V114.638C88.0375 114.539 88.0604 114.441 88.1043 114.352C88.1482 114.262 88.2119 114.185 88.2904 114.124C102.91 102.888 118.063 77.2397 120.315 73.3534L112.655 67.5793C103.099 82.5517 91.043 95.786 86.2585 100.831C86.1974 100.895 86.1238 100.946 86.0423 100.981C85.9608 101.016 85.8731 101.033 85.7846 101.033H61.4462C61.3577 101.033 61.27 101.016 61.1885 100.981C61.107 100.946 61.0334 100.895 60.9723 100.831C56.1813 95.7795 44.0933 82.5191 34.5761 67.5793L26.9156 73.3534C29.1293 77.1746 43.8271 102.055 58.2197 113.558C58.2951 113.619 58.3557 113.696 58.3973 113.784C58.4389 113.872 58.4603 113.968 58.46 114.065V138.431Z" fill="#14213D"/>
<path d="M77.0268 100.382H70.3596V139.082H77.0268V100.382Z" fill="white"/>
<path d="M77.0265 139.733H70.3593C70.1871 139.733 70.022 139.665 69.9002 139.543C69.7785 139.421 69.7101 139.255 69.7101 139.082V100.382C69.7101 100.209 69.7785 100.044 69.9002 99.9216C70.022 99.7995 70.1871 99.731 70.3593 99.731H77.0265C77.1987 99.731 77.3638 99.7995 77.4856 99.9216C77.6073 100.044 77.6757 100.209 77.6757 100.382V139.082C77.6757 139.168 77.6589 139.252 77.6263 139.331C77.5937 139.41 77.5459 139.482 77.4856 139.543C77.4253 139.603 77.3537 139.651 77.275 139.684C77.1962 139.716 77.1118 139.733 77.0265 139.733ZM71.0085 138.431H76.3773V101.033H71.0085V138.431Z" fill="#14213D"/>
<path d="M50.7215 71.2247C50.0398 65.6393 50.2865 58.5307 54.8374 55.7445C55.5032 55.3314 56.2606 55.0897 57.042 55.0409C57.8235 54.992 58.6049 55.1376 59.3168 55.4646C64.809 45.049 79.0913 49.7035 87.005 54.0259C90.4003 55.8812 94.3409 58.1466 95.9574 61.8767C97.1454 64.6043 96.8922 67.7355 96.4962 70.6648C96.1474 73.478 95.5985 76.2626 94.8537 78.9973C94.5509 80.3807 94.089 81.7241 93.4774 83.0008C92.8607 84.0684 91.7506 84.6868 90.9651 85.6437C89.6951 87.3299 88.2308 88.8594 86.6025 90.2006C83.02 93.0651 78.5912 94.6574 74.0096 94.7281C69.4281 94.7988 64.9526 93.3438 61.2839 90.5911C59.2511 89.0306 57.4784 87.1564 56.0319 85.0383C53.7986 81.9462 52.2471 79.0754 51.4356 75.3258C51.1629 74.141 50.9097 72.7414 50.7215 71.2247Z" fill="#14213D"/>
<path d="M73.6897 95.3826C69.0793 95.3405 64.5987 93.8466 60.8811 91.1122C58.7907 89.5149 56.9694 87.5918 55.4863 85.4162C52.8895 81.8358 51.5327 78.9455 50.7796 75.4563C50.481 74.0827 50.2473 72.6831 50.0785 71.3031C49.3838 65.607 49.5851 58.1925 54.4995 55.1785C55.1727 54.7635 55.9281 54.5007 56.7129 54.4085C57.4978 54.3164 58.2932 54.3969 59.0439 54.6447C60.5441 51.9778 63.0258 50.0057 65.9578 49.1504C74.0208 46.7093 84.356 51.8194 87.3358 53.4469C90.3156 55.0743 94.795 57.522 96.5738 61.6101C97.8722 64.5525 97.5476 67.8724 97.1581 70.7237C96.8074 73.5681 96.252 76.3833 95.4961 79.1473C95.4312 79.3751 95.3728 79.6095 95.3079 79.8504C95.0336 81.0478 94.6128 82.2066 94.0549 83.3005C93.6376 83.9604 93.1132 84.5456 92.5034 85.0321C92.1407 85.3375 91.8021 85.6705 91.4906 86.0281C90.1863 87.7495 88.6875 89.3136 87.0242 90.6891C83.2148 93.681 78.5282 95.3306 73.6897 95.3826ZM57.343 55.6732C56.5739 55.6841 55.8231 55.9095 55.1747 56.3242C50.6303 59.1168 50.838 66.8244 51.3704 71.1729C51.5327 72.5139 51.7599 73.8679 52.0196 75.2024C52.7337 78.5094 54.0386 81.2499 56.512 84.6741C57.9136 86.7413 59.6388 88.568 61.6212 90.0837C65.1778 92.7585 69.5198 94.1729 73.965 94.1045C78.4103 94.0362 82.707 92.489 86.1802 89.7061C87.769 88.3944 89.1983 86.8999 90.4389 85.2534C90.7928 84.843 91.1792 84.462 91.5945 84.1142C92.0986 83.7172 92.5368 83.2426 92.8929 82.7081C93.3931 81.7074 93.7702 80.6494 94.016 79.5574L94.2107 78.8413C94.9474 76.1388 95.4898 73.3869 95.8337 70.6065C96.1973 67.905 96.4829 64.7998 95.3468 62.1439C93.8667 58.7458 90.4 56.6366 86.6736 54.6056C83.8106 53.0367 73.8715 48.0959 66.2889 50.4068C64.9094 50.8126 63.628 51.4988 62.5245 52.4227C61.421 53.3467 60.519 54.4886 59.8748 55.7773C59.7971 55.9257 59.6653 56.0382 59.5069 56.0916C59.3485 56.1449 59.1757 56.135 59.0244 56.0638C58.4974 55.8178 57.9242 55.6868 57.343 55.6797V55.6732Z" fill="#14213D"/>
<path d="M70.5087 98.7935H76.8643V102.458C76.8643 103.177 76.5798 103.865 76.0733 104.373C75.5668 104.881 74.8799 105.167 74.1637 105.167H73.2029C72.4866 105.167 71.7997 104.881 71.2932 104.373C70.7867 103.865 70.5022 103.177 70.5022 102.458V98.7935H70.5087Z" fill="white"/>
<path d="M74.1573 105.818H73.203C72.3151 105.816 71.464 105.461 70.8362 104.832C70.2083 104.202 69.8549 103.349 69.8531 102.459V98.7936C69.8531 98.6209 69.9215 98.4553 70.0433 98.3332C70.165 98.2112 70.3302 98.1426 70.5023 98.1426H76.858C77.0301 98.1426 77.1953 98.2112 77.317 98.3332C77.4388 98.4553 77.5072 98.6209 77.5072 98.7936V102.459C77.5054 103.349 77.152 104.202 76.5241 104.832C75.8963 105.461 75.0452 105.816 74.1573 105.818ZM71.1515 99.4445V102.459C71.1533 103.004 71.3699 103.526 71.7543 103.911C72.1386 104.297 72.6594 104.514 73.203 104.516H74.1573C74.7009 104.514 75.2217 104.297 75.606 103.911C75.9904 103.526 76.2071 103.004 76.2088 102.459V99.4445H71.1515Z" fill="#14213D"/>
<path d="M55.5256 87.5706C58.9353 87.5706 61.6994 85.1837 61.6994 82.2392C61.6994 79.2947 58.9353 76.9077 55.5256 76.9077C52.1159 76.9077 49.3517 79.2947 49.3517 82.2392C49.3517 85.1837 52.1159 87.5706 55.5256 87.5706Z" fill="white"/>
<path d="M55.5254 88.2282C51.7666 88.2282 48.7024 85.5397 48.7024 82.2393C48.7024 78.9388 51.7666 76.2568 55.5254 76.2568C59.2843 76.2568 62.3485 78.9388 62.3485 82.2393C62.3485 85.5397 59.2908 88.2282 55.5254 88.2282ZM55.5254 77.5588C52.4807 77.5588 50.0008 79.6549 50.0008 82.2393C50.0008 84.8237 52.4807 86.9263 55.5254 86.9263C58.5702 86.9263 61.0501 84.8237 61.0501 82.2393C61.0501 79.6549 58.5767 77.5588 55.5254 77.5588Z" fill="#14213D"/>
<path d="M91.5169 87.5706C94.9266 87.5706 97.6907 85.1837 97.6907 82.2392C97.6907 79.2947 94.9266 76.9077 91.5169 76.9077C88.1072 76.9077 85.343 79.2947 85.343 82.2392C85.343 85.1837 88.1072 87.5706 91.5169 87.5706Z" fill="white"/>
<path d="M91.517 88.2282C87.7582 88.2282 84.694 85.5397 84.694 82.2393C84.694 78.9388 87.7582 76.2568 91.517 76.2568C95.2758 76.2568 98.34 78.9388 98.34 82.2393C98.34 85.5397 95.2823 88.2282 91.517 88.2282ZM91.517 77.5588C88.4723 77.5588 85.9924 79.6549 85.9924 82.2393C85.9924 84.8237 88.4723 86.9263 91.517 86.9263C94.5617 86.9263 97.0416 84.8237 97.0416 82.2393C97.0416 79.6549 94.5682 77.5588 91.517 77.5588Z" fill="#14213D"/>
<path d="M84.7715 67.0912C84.4923 66.961 84.2067 66.8438 83.9146 66.7331C82.0773 66.0301 80.1297 65.6851 78.286 65.0015C76.4423 64.318 74.6441 63.2179 73.7417 61.4798C73.1896 63.1894 72.8176 64.9523 72.6315 66.7396C72.4464 68.5527 72.8445 70.3775 73.7676 71.9474C69.4505 69.2654 65.2502 65.8153 63.1923 61.0566C62.2233 64.6746 60.7316 68.131 58.7647 71.316C57.8234 72.8458 56.2653 74.2779 55.4798 75.8728C54.6943 77.4677 55.0903 79.3034 55.0903 81.009C55.1074 84.6699 56.1976 88.2451 58.2252 91.2896C60.2528 94.3342 63.1283 96.7138 66.4941 98.1325C69.8598 99.5512 73.5672 99.9462 77.1552 99.2686C80.7431 98.591 84.0532 96.8706 86.6736 94.3214C88.9671 92.0174 90.6594 89.1825 91.601 86.067C92.6722 82.4932 91.9581 79.1212 91.4907 75.5083C91.4044 74.2362 91.0899 72.9903 90.5623 71.8302C90.0935 71.0099 89.4849 70.2785 88.764 69.669C87.5727 68.6097 86.2262 67.7403 84.7715 67.0912Z" fill="white"/>
<path d="M73.6835 100.278C68.5749 100.273 63.677 98.2353 60.0646 94.613C56.4523 90.9908 54.4206 86.0795 54.4154 80.9568C54.4154 80.5532 54.4154 80.1431 54.3765 79.72C54.3051 78.2944 54.2336 76.8101 54.8763 75.5342C55.4053 74.5689 56.0388 73.6651 56.7655 72.8392C57.278 72.2355 57.7528 71.6007 58.1872 70.9383C60.1231 67.8088 61.5907 64.4114 62.5433 60.8548C62.5786 60.725 62.6532 60.6093 62.7567 60.5237C62.8602 60.4381 62.9877 60.3868 63.1215 60.3768C63.2553 60.3668 63.3889 60.3986 63.5039 60.4679C63.619 60.5372 63.7098 60.6405 63.7638 60.7636C65.257 64.2138 67.9836 67.2734 72.2813 70.1832C71.9825 69.0482 71.875 67.8711 71.9632 66.7005C72.1477 64.8666 72.5264 63.0575 73.0928 61.3039C73.1284 61.1798 73.2001 61.0691 73.2987 60.9859C73.3973 60.9027 73.5184 60.8509 73.6465 60.8369C73.7745 60.823 73.9039 60.8475 74.018 60.9075C74.1321 60.9675 74.2258 61.0602 74.2873 61.1737C75.0209 62.5343 76.4426 63.6214 78.5135 64.3896C79.3835 64.7085 80.3118 64.9689 81.2012 65.2098C82.0906 65.4506 83.1488 65.7566 84.1421 66.1211C84.4472 66.2383 84.7458 66.362 85.0379 66.4987C86.5548 67.1802 87.9583 68.0914 89.1993 69.2003C89.9841 69.8547 90.644 70.6466 91.1469 71.5372C91.7127 72.7679 92.0514 74.0913 92.1466 75.4431C92.2116 75.9313 92.2765 76.4195 92.3479 76.9013C92.7893 80.065 93.2048 83.0465 92.2375 86.2753C91.264 89.4934 89.5161 92.422 87.1478 94.803C83.532 98.3011 78.7079 100.263 73.6835 100.278ZM63.2964 62.8142C62.3253 65.9076 60.9709 68.8666 59.2649 71.6219C58.8027 72.3368 58.293 73.0197 57.7393 73.6659C57.078 74.4175 56.4991 75.2381 56.0124 76.1136C55.5255 77.09 55.584 78.3985 55.6489 79.6614C55.6489 80.0975 55.6878 80.5337 55.6878 80.9633C55.6886 84.5071 56.731 87.972 58.6849 90.925C60.6387 93.8779 63.4172 96.1878 66.6731 97.566C69.929 98.9442 73.5178 99.3294 76.9908 98.6736C80.4639 98.0177 83.6671 96.3499 86.2 93.8787C88.4185 91.6527 90.0533 88.9109 90.9586 85.8977C91.848 82.9488 91.4455 80.0975 91.03 77.0835C90.9586 76.5953 90.8937 76.1071 90.8288 75.6123C90.747 74.4187 90.4569 73.2488 89.9718 72.1557C89.5397 71.4115 88.9792 70.7503 88.3164 70.2027C87.1733 69.1832 85.8817 68.3446 84.4861 67.716C84.2135 67.5923 83.9408 67.4817 83.6617 67.371C82.7528 67.026 81.779 66.7591 80.8441 66.4987C79.9093 66.2383 78.968 65.9844 78.0396 65.6394C76.4816 65.126 75.0759 64.231 73.9497 63.0355C73.5876 64.2761 73.3484 65.5495 73.2356 66.8372C73.0976 68.4749 73.4647 70.1156 74.2873 71.5372C74.3648 71.6611 74.3985 71.8075 74.3829 71.9528C74.3673 72.0982 74.3034 72.2341 74.2014 72.3386C74.0995 72.4431 73.9654 72.5101 73.8208 72.5289C73.6762 72.5477 73.5295 72.5171 73.4044 72.4421C68.5094 69.4346 65.2635 66.3295 63.3224 62.8142H63.2964Z" fill="#14213D"/>
<path d="M74.4104 88.2283C73.8408 88.2256 73.2722 88.1799 72.7095 88.0916C72.6255 88.0767 72.5453 88.0453 72.4734 87.9993C72.4015 87.9533 72.3393 87.8935 72.2905 87.8233C72.2417 87.7532 72.2071 87.6741 72.1888 87.5906C72.1704 87.507 72.1687 87.4207 72.1836 87.3365C72.1985 87.2523 72.2298 87.1718 72.2757 87.0997C72.3216 87.0277 72.3813 86.9653 72.4512 86.9164C72.5211 86.8674 72.6 86.8327 72.6833 86.8143C72.7666 86.796 72.8527 86.7942 72.9367 86.8092C73.7396 86.9426 74.5579 86.9558 75.3647 86.8483C75.3647 86.2754 74.7609 84.5243 73.9235 82.9099C73.8482 82.7576 73.8353 82.5818 73.8875 82.42C73.9398 82.2583 74.0531 82.1235 74.2031 82.0444C74.3532 81.9654 74.5282 81.9483 74.6907 81.9969C74.8531 82.0455 74.9902 82.1559 75.0726 82.3045C75.6828 83.4827 77.0526 86.3405 76.5332 87.5123C76.4713 87.6583 76.3762 87.7879 76.2557 87.8907C76.1351 87.9935 75.9923 88.0668 75.8386 88.1046C75.3694 88.2045 74.8897 88.246 74.4104 88.2283Z" fill="#14213D"/>
<path d="M68.6522 81.1717C68.48 81.1717 68.3149 81.1031 68.1931 80.981C68.0714 80.8589 68.003 80.6933 68.003 80.5207C67.9753 80.0569 67.7721 79.6213 67.4348 79.3028C67.0976 78.9842 66.6518 78.8068 66.1885 78.8068C65.7252 78.8068 65.2793 78.9842 64.9421 79.3028C64.6049 79.6213 64.4016 80.0569 64.374 80.5207C64.374 80.6933 64.3056 80.8589 64.1838 80.981C64.0621 81.1031 63.8969 81.1717 63.7248 81.1717C63.5526 81.1717 63.3875 81.1031 63.2657 80.981C63.144 80.8589 63.0756 80.6933 63.0756 80.5207C63.1122 79.7175 63.4561 78.9593 64.0359 78.4039C64.6156 77.8485 65.3866 77.5386 66.1885 77.5386C66.9903 77.5386 67.7613 77.8485 68.341 78.4039C68.9208 78.9593 69.2648 79.7175 69.3013 80.5207C69.3013 80.6933 69.233 80.8589 69.1112 80.981C68.9895 81.1031 68.8243 81.1717 68.6522 81.1717Z" fill="#14213D"/>
<path d="M84.1225 81.1717C83.9503 81.1717 83.7852 81.1031 83.6634 80.981C83.5417 80.8589 83.4733 80.6933 83.4733 80.5207C83.4456 80.0569 83.2424 79.6213 82.9051 79.3028C82.5679 78.9842 82.1221 78.8068 81.6588 78.8068C81.1955 78.8068 80.7497 78.9842 80.4124 79.3028C80.0752 79.6213 79.872 80.0569 79.8443 80.5207C79.8443 80.6933 79.7759 80.8589 79.6541 80.981C79.5324 81.1031 79.3673 81.1717 79.1951 81.1717C79.0229 81.1717 78.8578 81.1031 78.736 80.981C78.6143 80.8589 78.5459 80.6933 78.5459 80.5207C78.5825 79.7175 78.9264 78.9593 79.5062 78.4039C80.086 77.8485 80.857 77.5386 81.6588 77.5386C82.4606 77.5386 83.2316 77.8485 83.8114 78.4039C84.3911 78.9593 84.7351 79.7175 84.7717 80.5207C84.7717 80.6933 84.7033 80.8589 84.5815 80.981C84.4598 81.1031 84.2947 81.1717 84.1225 81.1717Z" fill="#14213D"/>
<path d="M69.1524 74.5577C69.0963 74.5639 69.0397 74.5639 68.9836 74.5577L60.596 73.132C60.4562 73.1167 60.321 73.0728 60.1988 73.0032C60.0765 72.9335 59.9697 72.8396 59.8849 72.727C59.8001 72.6145 59.7392 72.4858 59.7058 72.3488C59.6724 72.2118 59.6673 72.0694 59.6908 71.9304C59.7143 71.7913 59.7659 71.6585 59.8424 71.5402C59.9189 71.4219 60.0186 71.3204 60.1356 71.2422C60.2526 71.1639 60.3843 71.1104 60.5227 71.085C60.661 71.0596 60.8031 71.0629 60.9401 71.0945L69.3277 72.5201C69.5775 72.5692 69.8004 72.709 69.9537 72.9128C70.1069 73.1166 70.1796 73.37 70.1579 73.6243C70.1362 73.8786 70.0215 74.1159 69.8359 74.2906C69.6503 74.4653 69.4069 74.565 69.1524 74.5707V74.5577Z" fill="#14213D"/>
<path d="M77.4618 74.5578C77.2078 74.5507 76.9653 74.4499 76.7808 74.2747C76.5963 74.0995 76.4827 73.8622 76.4618 73.6083C76.4409 73.3544 76.5142 73.1016 76.6675 72.8985C76.8209 72.6953 77.0436 72.556 77.293 72.5072L85.6806 71.0816C85.9424 71.0528 86.2052 71.1254 86.4153 71.2846C86.6254 71.4437 86.7669 71.6774 86.8109 71.9377C86.8548 72.198 86.7979 72.4653 86.6518 72.685C86.5056 72.9046 86.2813 73.0599 86.0247 73.1191L77.6371 74.5448C77.5793 74.5556 77.5205 74.5599 77.4618 74.5578Z" fill="#14213D"/>
<path d="M74.7285 93.8787C73.0146 93.8787 70.8333 93.2863 68.5027 91.1902C68.434 91.1349 68.3772 91.0661 68.3358 90.9881C68.2945 90.9101 68.2694 90.8244 68.2621 90.7364C68.2548 90.6483 68.2654 90.5597 68.2934 90.4759C68.3213 90.3921 68.366 90.3149 68.4247 90.249C68.4834 90.1831 68.5548 90.1298 68.6347 90.0925C68.7146 90.0551 68.8012 90.0345 68.8893 90.0318C68.9773 90.0291 69.065 90.0444 69.147 90.0768C69.229 90.1092 69.3036 90.158 69.3661 90.2202C73.9949 94.3734 77.6823 91.8086 77.7148 91.7826C77.7836 91.7283 77.8625 91.6886 77.947 91.6657C78.0315 91.6429 78.1197 91.6374 78.2063 91.6496C78.293 91.6618 78.3763 91.6914 78.4512 91.7367C78.5261 91.782 78.5912 91.842 78.6424 91.9131C78.6936 91.9842 78.73 92.065 78.7493 92.1506C78.7686 92.2361 78.7705 92.3247 78.7548 92.411C78.7391 92.4974 78.7061 92.5796 78.6579 92.6528C78.6098 92.726 78.5473 92.7887 78.4743 92.8371C77.3496 93.5337 76.0504 93.895 74.7285 93.8787Z" fill="#14213D"/>
<path d="M135.156 20.9175H14.5165V60.5748H135.156V20.9175Z" fill="white"/>
<path d="M135.182 61.2259H14.5158C14.3437 61.2259 14.1785 61.1573 14.0568 61.0352C13.935 60.9131 13.8666 60.7475 13.8666 60.5749V20.9176C13.8666 20.7449 13.935 20.5793 14.0568 20.4573C14.1785 20.3352 14.3437 20.2666 14.5158 20.2666H135.182C135.354 20.2666 135.519 20.3352 135.641 20.4573C135.762 20.5793 135.831 20.7449 135.831 20.9176V60.5749C135.831 60.7475 135.762 60.9131 135.641 61.0352C135.519 61.1573 135.354 61.2259 135.182 61.2259ZM15.191 59.9239H134.532V21.5685H15.165L15.191 59.9239Z" fill="#14213D"/>
<path d="M59.3067 31.582C59.7619 31.582 60.1318 31.7339 60.4163 32.0377C60.7008 32.3415 60.843 32.7213 60.843 33.177V49.7814C60.843 50.2751 60.6723 50.6928 60.3309 51.0346C60.0085 51.3574 59.6007 51.5188 59.1075 51.5188C58.861 51.5188 58.6049 51.4808 58.3394 51.4048C58.0928 51.3099 57.9031 51.1865 57.7704 51.0346L46.5893 36.8225L47.329 36.3668V49.9238C47.329 50.3795 47.1773 50.7593 46.8738 51.0631C46.5893 51.3669 46.21 51.5188 45.7358 51.5188C45.2806 51.5188 44.9107 51.3669 44.6262 51.0631C44.3417 50.7593 44.1995 50.3795 44.1995 49.9238V33.3194C44.1995 32.8257 44.3607 32.4175 44.6831 32.0947C45.0245 31.7529 45.4418 31.582 45.9349 31.582C46.2005 31.582 46.4755 31.639 46.76 31.7529C47.0445 31.8478 47.2532 31.9997 47.3859 32.2086L58.2256 46.0504L57.7419 46.3922V33.177C57.7419 32.7213 57.8842 32.3415 58.1687 32.0377C58.4532 31.7339 58.8325 31.582 59.3067 31.582Z" fill="#14213D"/>
<path d="M66.8561 31.582H76.387C76.8801 31.582 77.2879 31.7434 77.6104 32.0662C77.9518 32.37 78.1225 32.7687 78.1225 33.2624C78.1225 33.7371 77.9518 34.1263 77.6104 34.4301C77.2879 34.7149 76.8801 34.8573 76.387 34.8573H68.4209L68.6769 34.3732V39.927L68.4493 39.6991H75.1067C75.5999 39.6991 76.0077 39.8605 76.3301 40.1833C76.6715 40.4871 76.8422 40.8858 76.8422 41.3795C76.8422 41.8542 76.6715 42.2434 76.3301 42.5472C76.0077 42.832 75.5999 42.9744 75.1067 42.9744H68.5347L68.6769 42.7466V48.4998L68.4493 48.2434H76.387C76.8801 48.2434 77.2879 48.4143 77.6104 48.7561C77.9518 49.0789 78.1225 49.4586 78.1225 49.8953C78.1225 50.37 77.9518 50.7593 77.6104 51.0631C77.2879 51.3669 76.8801 51.5188 76.387 51.5188H66.8561C66.3629 51.5188 65.9457 51.3574 65.6043 51.0346C65.2818 50.6928 65.1206 50.2751 65.1206 49.7814V33.3194C65.1206 32.8257 65.2818 32.4175 65.6043 32.0947C65.9457 31.7529 66.3629 31.582 66.8561 31.582Z" fill="#14213D"/>
<path d="M103.792 31.4966C104.229 31.4966 104.646 31.6675 105.044 32.0092C105.443 32.332 105.642 32.7782 105.642 33.3479C105.642 33.5187 105.613 33.7086 105.556 33.9175L99.9516 50.4365C99.8378 50.7783 99.6292 51.0441 99.3257 51.234C99.0412 51.4048 98.7377 51.4998 98.4153 51.5188C98.0928 51.5188 97.7704 51.4238 97.4479 51.234C97.1445 51.0441 96.9074 50.7688 96.7367 50.408L92.526 40.8384L92.7821 41.0093L88.6283 50.408C88.4576 50.7688 88.211 51.0441 87.8886 51.234C87.5851 51.4238 87.2721 51.5188 86.9497 51.5188C86.6462 51.4998 86.3428 51.4048 86.0393 51.234C85.7358 51.0441 85.5272 50.7783 85.4134 50.4365L79.8086 33.9175C79.7517 33.7086 79.7233 33.5187 79.7233 33.3479C79.7233 32.7782 79.9224 32.332 80.3207 32.0092C80.738 31.6675 81.1648 31.4966 81.601 31.4966C81.9614 31.4966 82.2933 31.5915 82.5968 31.7814C82.9192 31.9713 83.1373 32.2466 83.2511 32.6073L87.7748 46.3352L87.1489 46.3067L91.1888 36.5947C91.3406 36.2529 91.5587 35.9871 91.8432 35.7972C92.1277 35.5884 92.4501 35.4934 92.8105 35.5124C93.1709 35.4934 93.4933 35.5884 93.7778 35.7972C94.0623 35.9871 94.271 36.2529 94.4037 36.5947L98.1023 45.8795L97.6471 46.1643L102.114 32.6073C102.228 32.2466 102.446 31.9713 102.768 31.7814C103.091 31.5915 103.432 31.4966 103.792 31.4966Z" fill="#14213D"/>
<path d="M114.265 64.8128C114.265 64.8128 114.946 54.4363 116.693 54.4363C118.439 54.4363 117.472 59.6441 117.472 59.6441C117.472 59.6441 121.367 60.4317 119.971 63.8559" fill="white"/>
<path d="M114.265 65.4636H114.219C114.048 65.4519 113.889 65.3728 113.775 65.2435C113.662 65.1142 113.605 64.9453 113.616 64.7736C113.947 59.7611 114.745 53.7852 116.693 53.7852C116.903 53.784 117.11 53.8302 117.3 53.9204C117.49 54.0105 117.658 54.1423 117.79 54.306C118.647 55.3475 118.394 57.9189 118.205 59.1687C119.185 59.4743 120.02 60.1268 120.555 61.0045C120.789 61.4828 120.91 62.0083 120.91 62.5408C120.91 63.0733 120.789 63.5987 120.555 64.0771C120.524 64.1566 120.477 64.2292 120.418 64.2906C120.358 64.3519 120.287 64.401 120.209 64.4348C120.13 64.4687 120.046 64.4867 119.961 64.4879C119.875 64.489 119.791 64.4733 119.711 64.4416C119.552 64.3766 119.426 64.2511 119.359 64.0924C119.292 63.9338 119.29 63.7551 119.354 63.5954C119.505 63.2934 119.588 62.9617 119.596 62.624C119.604 62.2863 119.537 61.9511 119.4 61.6424C118.848 60.6074 117.342 60.2819 117.329 60.2754C117.163 60.2408 117.017 60.1424 116.922 60.0013C116.828 59.8602 116.792 59.6875 116.823 59.5203C117.134 57.8277 117.212 55.6795 116.777 55.1522L116.725 55.1067C116.076 55.647 115.213 60.0606 114.894 64.8713C114.88 65.0302 114.808 65.1784 114.692 65.2877C114.576 65.3969 114.424 65.4595 114.265 65.4636Z" fill="#14213D"/>
<path d="M32.7841 64.8128C32.7841 64.8128 32.1349 54.4363 30.3561 54.4363C28.5773 54.4363 29.5771 59.6441 29.5771 59.6441C29.5771 59.6441 25.6819 60.4317 27.0777 63.8559" fill="white"/>
<path d="M32.7843 65.4636C32.6197 65.464 32.4611 65.4017 32.3406 65.2894C32.22 65.177 32.1466 65.0229 32.1351 64.8582C31.817 60.0475 30.986 55.6339 30.3043 55.0936L30.2524 55.1392C29.772 55.7186 29.9408 58.0881 30.207 59.5072C30.2377 59.6745 30.2018 59.8471 30.1072 59.9882C30.0126 60.1294 29.8666 60.2278 29.7006 60.2624C29.7006 60.2624 28.1815 60.5944 27.6297 61.6294C27.4928 61.9381 27.4259 62.2733 27.4338 62.611C27.4416 62.9487 27.524 63.2804 27.6751 63.5823C27.7156 63.6629 27.739 63.751 27.7437 63.8411C27.7485 63.9312 27.7345 64.0213 27.7027 64.1057C27.6708 64.1901 27.6218 64.267 27.5588 64.3314C27.4958 64.3958 27.4201 64.4463 27.3366 64.4799C27.253 64.5134 27.1634 64.5291 27.0735 64.526C26.9836 64.523 26.8952 64.5012 26.8141 64.4621C26.733 64.423 26.6609 64.3674 26.6024 64.2989C26.5439 64.2304 26.5002 64.1504 26.4741 64.064C26.2407 63.5857 26.1194 63.0603 26.1194 62.5277C26.1194 61.9952 26.2407 61.4698 26.4741 60.9915C27.0164 60.115 27.8589 59.4669 28.8437 59.1687C28.6554 57.9189 28.4022 55.3475 29.2591 54.306C29.3914 54.1423 29.5587 54.0105 29.7486 53.9204C29.9385 53.8302 30.1462 53.784 30.3563 53.7852C32.3039 53.7852 33.1089 59.7611 33.4335 64.7736C33.4442 64.9453 33.3867 65.1142 33.2735 65.2435C33.1604 65.3728 33.0008 65.4519 32.8297 65.4636H32.7843Z" fill="#14213D"/>
<path d="M145.484 101.899V120.777C145.484 122.603 144.761 124.355 143.473 125.647C142.185 126.939 140.438 127.664 138.616 127.664H104.773C102.952 127.664 101.205 126.939 99.9167 125.647C98.6286 124.355 97.9049 122.603 97.9049 120.777V109.71L90.9196 101.15L97.9049 101.847C97.9049 100.942 98.0826 100.046 98.4278 99.2109C98.773 98.3753 99.2789 97.616 99.9167 96.9765C100.554 96.3369 101.312 95.8296 102.145 95.4835C102.978 95.1374 103.871 94.9592 104.773 94.9592H138.616C139.522 94.9592 140.42 95.1391 141.256 95.4884C142.093 95.8378 142.853 96.3498 143.491 96.9949C144.13 97.6399 144.634 98.4053 144.977 99.247C145.319 100.089 145.491 100.99 145.484 101.899Z" fill="white"/>
<path d="M138.616 128.341H104.773C102.78 128.339 100.869 127.545 99.4592 126.131C98.0497 124.718 97.2571 122.802 97.2554 120.803V109.99L90.4194 101.612C90.3379 101.513 90.2877 101.391 90.275 101.263C90.2624 101.135 90.2879 101.006 90.3483 100.892C90.4088 100.779 90.5015 100.686 90.6146 100.625C90.7278 100.564 90.8564 100.539 90.9842 100.551L97.2879 101.202C97.4698 99.3367 98.3365 97.6056 99.7197 96.3449C101.103 95.0842 102.904 94.3839 104.773 94.3799H138.616C140.609 94.3816 142.52 95.1764 143.93 96.5897C145.339 98.003 146.132 99.9194 146.133 101.918V120.796C146.132 122.796 145.339 124.713 143.93 126.127C142.521 127.542 140.61 128.338 138.616 128.341ZM92.4124 102.003L98.4045 109.346C98.5013 109.463 98.5541 109.61 98.5538 109.762V120.829C98.5555 122.482 99.2113 124.068 100.377 125.237C101.543 126.406 103.124 127.064 104.773 127.065H138.616C140.265 127.064 141.845 126.406 143.011 125.237C144.177 124.068 144.833 122.482 144.835 120.829V101.951C144.833 100.297 144.177 98.712 143.011 97.5429C141.845 96.3737 140.265 95.7161 138.616 95.7144H104.773C103.124 95.7161 101.543 96.3737 100.377 97.5429C99.2113 98.712 98.5555 100.297 98.5538 101.951C98.5536 102.042 98.5344 102.131 98.4975 102.214C98.4606 102.297 98.4068 102.372 98.3396 102.432C98.2722 102.493 98.1929 102.539 98.1068 102.567C98.0207 102.595 97.9297 102.604 97.8397 102.595L92.4124 102.003Z" fill="#14213D"/>
<path d="M129.067 100.267H114.133C113.568 100.267 113.025 100.491 112.625 100.891C112.225 101.292 112 101.834 112 102.4V104.533C112 105.099 112.225 105.642 112.625 106.042C113.025 106.442 113.568 106.667 114.133 106.667V118.4C114.133 119.249 114.47 120.063 115.071 120.663C115.671 121.263 116.485 121.6 117.333 121.6H125.867C126.715 121.6 127.529 121.263 128.129 120.663C128.73 120.063 129.067 119.249 129.067 118.4V106.667C129.632 106.667 130.175 106.442 130.575 106.042C130.975 105.642 131.2 105.099 131.2 104.533V102.4C131.2 101.834 130.975 101.292 130.575 100.891C130.175 100.491 129.632 100.267 129.067 100.267ZM126.933 115.2H124.533V110.933H126.933V115.2ZM126.933 108.8H123.467C123.184 108.8 122.912 108.912 122.712 109.112C122.512 109.312 122.4 109.584 122.4 109.867V116.267C122.4 116.549 122.512 116.821 122.712 117.021C122.912 117.221 123.184 117.333 123.467 117.333H126.933V118.4C126.933 118.683 126.821 118.954 126.621 119.154C126.421 119.354 126.15 119.467 125.867 119.467H117.333C117.05 119.467 116.779 119.354 116.579 119.154C116.379 118.954 116.267 118.683 116.267 118.4V106.667H126.933V108.8ZM114.133 104.533V102.4H129.067V104.533H114.133Z" fill="#FCA311"/>
<path d="M134.117 102.322C133.964 102.323 133.815 102.27 133.697 102.172C133.579 102.074 133.499 101.938 133.472 101.786C133.445 101.635 133.472 101.479 133.548 101.346C133.625 101.213 133.746 101.111 133.89 101.059L137.473 99.6984C137.554 99.6627 137.641 99.6438 137.73 99.6431C137.818 99.6423 137.906 99.6597 137.987 99.6941C138.069 99.7285 138.142 99.7792 138.204 99.8431C138.265 99.907 138.312 99.9828 138.343 100.066C138.374 100.149 138.388 100.237 138.384 100.326C138.379 100.414 138.357 100.501 138.318 100.581C138.279 100.66 138.225 100.731 138.157 100.789C138.09 100.846 138.012 100.889 137.928 100.916L134.351 102.276C134.277 102.307 134.197 102.323 134.117 102.322Z" fill="white"/>
<path d="M135.558 108.571C135.386 108.581 135.217 108.521 135.089 108.406C134.96 108.291 134.883 108.129 134.873 107.956C134.864 107.783 134.923 107.614 135.038 107.485C135.153 107.357 135.314 107.279 135.487 107.269L140.304 106.683C140.474 106.663 140.645 106.711 140.78 106.818C140.915 106.924 141.003 107.079 141.024 107.25C141.044 107.421 140.996 107.593 140.89 107.728C140.785 107.863 140.63 107.951 140.459 107.972L135.642 108.558L135.558 108.571Z" fill="white"/>
<path d="M139.227 116.266C139.135 116.264 139.045 116.247 138.96 116.214L135.916 114.86C135.838 114.825 135.767 114.775 135.708 114.713C135.65 114.651 135.603 114.578 135.573 114.499C135.542 114.419 135.527 114.334 135.529 114.248C135.531 114.163 135.55 114.079 135.585 114C135.619 113.922 135.669 113.851 135.73 113.792C135.792 113.733 135.865 113.687 135.944 113.656C136.024 113.625 136.109 113.611 136.194 113.613C136.279 113.615 136.364 113.634 136.442 113.668L139.486 115.022C139.62 115.084 139.73 115.189 139.796 115.321C139.863 115.453 139.883 115.603 139.853 115.748C139.822 115.893 139.744 116.023 139.63 116.117C139.516 116.211 139.374 116.264 139.227 116.266Z" fill="white"/>
</svg>
