<svg width="64" height="64" viewBox="0 0 64 64" fill="none" xmlns="http://www.w3.org/2000/svg">
<rect x="0.25" y="0.25" width="63.5" height="63.5" rx="15.75" stroke="#96928E" stroke-width="0.5"/>
<rect width="64" height="64" rx="16" fill="#FCA311"/>
<path d="M35.5057 53.3334C32.5205 53.3334 29.7316 52.7803 27.1391 51.6742C24.5466 50.568 22.2684 49.047 20.3044 47.1112C18.3404 45.1359 16.7889 42.8643 15.6498 40.2964C14.5499 37.7285 14 34.963 14 32.0001C14 29.0371 14.5499 26.2717 15.6498 23.7038C16.7889 21.1359 18.3404 18.884 20.3044 16.9482C22.2684 14.9729 24.5466 13.4322 27.1391 12.326C29.7316 11.2198 32.5205 10.6667 35.5057 10.6667C37.3519 10.6667 39.1391 10.8643 40.8674 11.2593C42.5957 11.6544 44.1866 12.247 45.6399 13.0371C46.2291 13.3532 46.6612 13.7877 46.9362 14.3408C47.2504 14.8544 47.4075 15.3877 47.4075 15.9408C47.4075 16.889 47.0933 17.7384 46.4648 18.489C45.8363 19.2396 45.0311 19.6149 44.0491 19.6149C43.7349 19.6149 43.401 19.5754 43.0475 19.4964C42.7332 19.4174 42.419 19.2988 42.1047 19.1408C41.1228 18.7063 40.0818 18.3705 38.982 18.1334C37.8822 17.8964 36.7234 17.7779 35.5057 17.7779C32.9525 17.7779 30.6154 18.4297 28.4943 19.7334C26.4124 20.9976 24.743 22.7161 23.4861 24.889C22.2684 27.0223 21.6596 29.3927 21.6596 32.0001C21.6596 34.568 22.2684 36.9384 23.4861 39.1112C24.743 41.284 26.4124 43.0223 28.4943 44.326C30.6154 45.5902 32.9525 46.2223 35.5057 46.2223C36.6841 46.2223 37.9804 46.1038 39.3944 45.8667C40.8085 45.6297 41.9673 45.3137 42.8707 44.9186L42.3404 46.6964V36.563L43.3421 37.4519H36.802C35.7807 37.4519 34.9165 37.1161 34.2095 36.4445C33.5417 35.7729 33.2079 34.9235 33.2079 33.8964C33.2079 32.8692 33.5417 32.0198 34.2095 31.3482C34.9165 30.6766 35.7807 30.3408 36.802 30.3408H46.4648C47.4861 30.3408 48.3306 30.6964 48.9984 31.4075C49.6661 32.0791 50 32.9285 50 33.9556V46.5186C50 47.3087 49.8036 47.9606 49.4108 48.4742C49.0573 48.9877 48.6448 49.4026 48.1735 49.7186C46.3666 50.8248 44.383 51.7137 42.2226 52.3853C40.1015 53.0174 37.8625 53.3334 35.5057 53.3334Z" fill="#14213D"/>
</svg>
